<svg width="1140" height="655" viewBox="0 0 1140 655" fill="none" xmlns="http://www.w3.org/2000/svg">
                <style>
                    
                    #k1,#k2,#k3{
                        position: relative;
                      animation: kvadrat 2s ease alternate infinite;
                      transform-origin: center;
                      transform-box: fill-box;
					  
                    }


                    #k4,#k5{
                        position: relative;
                      animation: kvadrat2 3s ease alternate infinite;
                      transform-origin: center;
                      transform-box: fill-box;
                    }


                    #k6,#k7{
                        position: relative;
                      animation: kvadrat3 6s linear alternate infinite;
                      transform-origin: center;
                      transform-box: fill-box;
                    }
                    
                    #Vector_6{
                        animation: text 3s ease alternate infinite;
                        transform-box: fill-box;
                    }


                    #Vector_7{
                        animation: text 1.5s ease alternate infinite;
                        transform-box: fill-box;
                    }

                    #Vector_8{
                        animation: text 2s ease alternate infinite;
                        transform-box: fill-box;
                    }

                    #Vector_9{
                        animation: text 2.5s ease alternate infinite;
                        transform-box: fill-box;
                    }

                    #Vector_10{
                        animation: text 3s ease alternate infinite;
                        transform-box: fill-box;
                    }

                    #Vector_11{
                        animation: text 3.5s ease alternate infinite;
                        transform-box: fill-box;
                    }
					
                    #Vector_5{animation: screen 3s ease alternate infinite;}
					
					
					#Vector_29{
                        animation: text2 3s ease alternate infinite;
                        transform-box: fill-box;
						transform-origin:bottom;
                    }
                    
					@keyframes kvadrat{from{transform:  translate(0%,0%);} 
                    to{transform:  translate(60%,60%);}}
                    
                    @keyframes kvadrat2{from{transform:  translate(0%,0%);} 
                    to{transform:  translate(-30%,30%);}}

                    @keyframes kvadrat3{0%{transform:  translate(0%,0%);} 
                    30%{transform:  translate(30%,30%);} 70%{transform:  translate(-30%,30%);} 100%{transform:  translate(0%,0%);}}

                    @keyframes text{from{transform:  scaleX(0);} 
                    to{transform:  scaleX(1);}}
					
					@keyframes text2{from{transform:  scale(1);} 
                    to{transform:  scale(0.9);}}
					
					
					@keyframes screen{from{fill:black;} 
                    to{fill:#777;}}
                
				
				
                </style>
                
                <g id="test 1">
                <g id="Group">
                <g id="other">
                <path id="Vector" opacity="0.6" d="M246.827 568C279.546 568 306.07 542.07 306.07 510.084C306.07 478.097 279.546 452.166 246.827 452.166C214.108 452.166 187.583 478.097 187.583 510.084C187.583 542.07 214.108 568 246.827 568Z" fill="#F2F2F2"/>
                <path id="Vector_2" opacity="0.6" d="M683.793 18.2346H423.623V12.9923H305.652V18.2346H44.4101C42.099 18.2346 39.8106 18.6796 37.6754 19.5442C35.5403 20.4088 33.6003 21.6761 31.9661 23.2737C30.3319 24.8712 29.0356 26.7679 28.1512 28.8552C27.2668 30.9426 26.8116 33.1797 26.8116 35.4391V383.716C26.8116 388.278 28.6657 392.655 31.9661 395.881C35.2664 399.107 39.7427 400.92 44.4101 400.92H683.793C688.46 400.92 692.936 399.107 696.237 395.881C699.537 392.655 701.391 388.278 701.391 383.716V35.4391C701.391 33.1797 700.936 30.9426 700.052 28.8552C699.167 26.7679 697.871 24.8712 696.237 23.2737C694.603 21.6761 692.663 20.4088 690.527 19.5442C688.392 18.6796 686.104 18.2346 683.793 18.2346Z" fill="#3F3D56"/>
                <path id="Vector_3" opacity="0.6" d="M677.797 48.6397H50.4058V394.63H677.797V48.6397Z" fill="#B1B1F0"/>
                <path id="Vector_4" opacity="0.6" d="M363.565 39.2036C367.119 39.2036 370 36.3872 370 32.913C370 29.4386 367.119 26.6222 363.565 26.6222C360.011 26.6222 357.13 29.4386 357.13 32.913C357.13 36.3872 360.011 39.2036 363.565 39.2036Z" fill="#6C63FF"/>
                <path id="Vector_5" opacity="0.1" d="M498.374 394.63H50.406V48.6401L498.374 394.63Z" fill="black"/>
                <path id="Vector_6" opacity="0.6" d="M568.558 235.235H509.953V247.207H568.558V235.235Z" fill="#3F3D56"/>
                <path id="Vector_7" opacity="0.6" d="M639.409 142.026H439.102V147.157H639.409V142.026Z" fill="#3F3D56"/>
                <path id="Vector_8" opacity="0.6" d="M639.409 158.273H439.102V163.405H639.409V158.273Z" fill="#3F3D56"/>
                <path id="Vector_9" opacity="0.6" d="M639.409 174.521H439.102V179.652H639.409V174.521Z" fill="#3F3D56"/>
                <path id="Vector_10" opacity="0.6" d="M639.409 190.768H439.102V195.899H639.409V190.768Z" fill="#3F3D56"/>
                <path id="Vector_11" opacity="0.6" d="M639.409 207.016H439.102V212.147H639.409V207.016Z" fill="#3F3D56"/>
                <path id="Vector_12" opacity="0.6" d="M650.78 90.7192H621.04V61.645H650.78V90.7192ZM622.333 89.4551H649.487V62.9091H622.333V89.4551Z" fill="#3F3D56"/>
                <path id="Vector_13" opacity="0.6" d="M719.007 388.339H657.778V384.026C657.778 383.913 657.755 383.803 657.711 383.699C657.667 383.594 657.603 383.501 657.522 383.421C657.44 383.342 657.344 383.279 657.238 383.236C657.132 383.193 657.018 383.171 656.903 383.171H635.91C635.795 383.171 635.682 383.193 635.575 383.236C635.469 383.279 635.373 383.342 635.292 383.421C635.21 383.501 635.146 383.594 635.102 383.699C635.058 383.803 635.035 383.913 635.035 384.026V388.339H621.915V384.026C621.915 383.913 621.892 383.803 621.848 383.699C621.804 383.594 621.74 383.501 621.659 383.421C621.577 383.342 621.481 383.279 621.375 383.236C621.269 383.193 621.155 383.171 621.04 383.171H600.047C599.932 383.171 599.819 383.193 599.713 383.236C599.606 383.279 599.51 383.342 599.429 383.421C599.348 383.501 599.283 383.594 599.239 383.699C599.195 383.803 599.173 383.913 599.173 384.026V388.339H586.052V384.026C586.052 383.913 586.029 383.803 585.985 383.699C585.942 383.594 585.877 383.501 585.796 383.421C585.715 383.342 585.618 383.279 585.512 383.236C585.406 383.193 585.292 383.171 585.177 383.171H564.184C564.07 383.171 563.956 383.193 563.85 383.236C563.744 383.279 563.647 383.342 563.566 383.421C563.485 383.501 563.42 383.594 563.376 383.699C563.332 383.803 563.31 383.913 563.31 384.026V388.339H550.189V384.026C550.189 383.913 550.167 383.803 550.123 383.699C550.079 383.594 550.014 383.501 549.933 383.421C549.852 383.342 549.755 383.279 549.649 383.236C549.543 383.193 549.429 383.171 549.314 383.171H528.322C528.207 383.171 528.093 383.193 527.987 383.236C527.881 383.279 527.784 383.342 527.703 383.421C527.622 383.501 527.557 383.594 527.513 383.699C527.469 383.803 527.447 383.913 527.447 384.026V388.339H514.326V384.026C514.326 383.913 514.304 383.803 514.26 383.699C514.216 383.594 514.151 383.501 514.07 383.421C513.989 383.342 513.892 383.279 513.786 383.236C513.68 383.193 513.566 383.171 513.452 383.171H492.459C492.344 383.171 492.23 383.193 492.124 383.236C492.018 383.279 491.921 383.342 491.84 383.421C491.759 383.501 491.694 383.594 491.651 383.699C491.607 383.803 491.584 383.913 491.584 384.026V388.339H478.463V384.026C478.463 383.913 478.441 383.803 478.397 383.699C478.353 383.594 478.288 383.501 478.207 383.421C478.126 383.342 478.03 383.279 477.923 383.236C477.817 383.193 477.704 383.171 477.589 383.171H456.596C456.481 383.171 456.367 383.193 456.261 383.236C456.155 383.279 456.058 383.342 455.977 383.421C455.896 383.501 455.832 383.594 455.788 383.699C455.744 383.803 455.721 383.913 455.721 384.026V388.339H442.6V384.026C442.6 383.913 442.578 383.803 442.534 383.699C442.49 383.594 442.426 383.501 442.344 383.421C442.263 383.342 442.167 383.279 442.06 383.236C441.954 383.193 441.841 383.171 441.726 383.171H277.281C277.166 383.171 277.053 383.193 276.947 383.236C276.84 383.279 276.744 383.342 276.663 383.421C276.582 383.501 276.517 383.594 276.473 383.699C276.429 383.803 276.407 383.913 276.407 384.026V388.339H263.286V384.026C263.286 383.913 263.263 383.803 263.219 383.699C263.176 383.594 263.111 383.501 263.03 383.421C262.949 383.342 262.852 383.279 262.746 383.236C262.64 383.193 262.526 383.171 262.411 383.171H241.418C241.304 383.171 241.19 383.193 241.084 383.236C240.978 383.279 240.881 383.342 240.8 383.421C240.719 383.501 240.654 383.594 240.61 383.699C240.566 383.803 240.544 383.913 240.544 384.026V388.339H227.423V384.026C227.423 383.913 227.401 383.803 227.357 383.699C227.313 383.594 227.248 383.501 227.167 383.421C227.086 383.342 226.989 383.279 226.883 383.236C226.777 383.193 226.663 383.171 226.548 383.171H205.556C205.441 383.171 205.327 383.193 205.221 383.236C205.115 383.279 205.018 383.342 204.937 383.421C204.856 383.501 204.791 383.594 204.747 383.699C204.703 383.803 204.681 383.913 204.681 384.026V388.339H191.56V384.026C191.56 383.913 191.538 383.803 191.494 383.699C191.45 383.594 191.385 383.501 191.304 383.421C191.223 383.342 191.126 383.279 191.02 383.236C190.914 383.193 190.8 383.171 190.686 383.171H169.693C169.578 383.171 169.464 383.193 169.358 383.236C169.252 383.279 169.155 383.342 169.074 383.421C168.993 383.501 168.928 383.594 168.885 383.699C168.841 383.803 168.818 383.913 168.818 384.026V388.339H155.697V384.026C155.697 383.913 155.675 383.803 155.631 383.699C155.587 383.594 155.522 383.501 155.441 383.421C155.36 383.342 155.264 383.279 155.157 383.236C155.051 383.193 154.938 383.171 154.823 383.171H133.83C133.715 383.171 133.601 383.193 133.495 383.236C133.389 383.279 133.292 383.342 133.211 383.421C133.13 383.501 133.066 383.594 133.022 383.699C132.978 383.803 132.955 383.913 132.955 384.026V388.339H119.835V384.026C119.835 383.913 119.812 383.803 119.768 383.699C119.724 383.594 119.66 383.501 119.578 383.421C119.497 383.342 119.401 383.279 119.295 383.236C119.188 383.193 119.075 383.171 118.96 383.171H97.9669C97.852 383.171 97.7383 383.193 97.6322 383.236C97.526 383.279 97.4296 383.342 97.3484 383.421C97.2672 383.501 97.2027 383.594 97.1588 383.699C97.1148 383.803 97.0922 383.913 97.0922 384.026V388.339H83.9716V384.026C83.9716 383.913 83.949 383.803 83.9051 383.699C83.8611 383.594 83.7967 383.501 83.7154 383.421C83.6342 383.342 83.5378 383.279 83.4317 383.236C83.3255 383.193 83.2118 383.171 83.0969 383.171H62.104C61.9892 383.171 61.8754 383.193 61.7693 383.236C61.6632 383.279 61.5667 383.342 61.4855 383.421C61.4043 383.501 61.3398 383.594 61.2959 383.699C61.2519 383.803 61.2293 383.913 61.2293 384.026V388.339H20.9929C15.4252 388.339 10.0856 390.501 6.14869 394.35C2.21175 398.198 5.30432e-06 403.418 0 408.862V418.141C1.5913e-05 423.585 2.21177 428.805 6.1487 432.653C10.0856 436.502 15.4253 438.664 20.9929 438.664H719.007C724.575 438.664 729.914 436.502 733.851 432.653C737.788 428.805 740 423.585 740 418.141V408.862C740 403.418 737.788 398.198 733.851 394.35C729.914 390.501 724.575 388.339 719.007 388.339Z" fill="#3F3D56"/>
                <path id="Vector_14" opacity="0.6" d="M163.171 346.605C148.14 346.605 133.446 342.248 120.948 334.084C108.45 325.92 98.7088 314.316 92.9565 300.74C87.2043 287.164 85.6992 272.225 88.6317 257.812C91.5642 243.4 98.8025 230.161 109.431 219.77C120.06 209.379 133.602 202.303 148.345 199.437C163.087 196.569 178.368 198.041 192.255 203.664C206.143 209.288 218.012 218.811 226.363 231.029C234.714 243.247 239.171 257.612 239.171 272.307C239.149 292.006 231.134 310.89 216.886 324.819C202.638 338.748 183.321 346.583 163.171 346.605ZM163.171 199.964C148.536 199.964 134.228 204.207 122.059 212.155C109.89 220.105 100.405 231.404 94.8043 244.623C89.2034 257.841 87.738 272.387 90.5933 286.421C93.4486 300.454 100.496 313.344 110.845 323.461C121.195 333.579 134.38 340.469 148.735 343.26C163.089 346.052 177.968 344.619 191.49 339.143C205.012 333.668 216.569 324.396 224.7 312.499C232.831 300.602 237.171 286.615 237.171 272.307C237.149 253.127 229.346 234.739 215.473 221.177C201.6 207.614 182.791 199.985 163.171 199.964Z" fill="#3F3D56"/>
                <path id="Vector_15" opacity="0.6" d="M841.171 31.8146H586.171V33.7699H841.171V31.8146Z" fill="#3F3D56"/>
                <path id="Vector_16" opacity="0.6" d="M516 549.418H482V516.179H516V549.418ZM483.478 547.973H514.522V517.624H483.478V547.973Z" fill="#3F3D56"/>
                <path id="Vector_17" opacity="0.6" d="M841 33.2388H807V0H841V33.2388ZM808.478 31.7936H839.522V1.44517H808.478V31.7936Z" fill="#3F3D56"/>
                <path id="Vector_18" opacity="0.6" d="M952.829 639.358H918.829V606.119H952.829V639.358ZM920.307 637.913H951.35V607.564H920.307V637.913Z" fill="#3F3D56"/>
                <path id="Vector_19" opacity="0.6" d="M887 316.705H884.621V253.003C884.621 248.161 883.646 243.367 881.751 238.893C879.855 234.42 877.077 230.356 873.575 226.932C870.073 223.508 865.916 220.793 861.34 218.94C856.764 217.087 851.86 216.133 846.907 216.133H708.854C703.901 216.133 698.997 217.087 694.422 218.94C689.846 220.793 685.688 223.508 682.186 226.932C678.684 230.356 675.906 234.42 674.011 238.893C672.116 243.367 671.14 248.161 671.14 253.003V602.481C671.14 607.323 672.116 612.117 674.011 616.59C675.906 621.063 678.684 625.128 682.186 628.552C685.688 631.975 689.846 634.691 694.422 636.544C698.997 638.396 703.901 639.35 708.854 639.35H846.908C851.86 639.35 856.764 638.396 861.34 636.544C865.916 634.691 870.073 631.975 873.575 628.552C877.077 625.128 879.855 621.063 881.751 616.59C883.646 612.117 884.621 607.323 884.621 602.481V362.05H887V316.705Z" fill="#3F3D56"/>
                <path id="Vector_20" opacity="0.6" d="M876.59 255.169V604.138C876.591 611.441 873.625 618.444 868.344 623.609C863.063 628.774 855.9 631.676 848.43 631.677H709.71C702.24 631.676 695.077 628.774 689.796 623.609C684.515 618.444 681.549 611.441 681.55 604.138V255.169C681.551 247.869 684.518 240.867 689.799 235.704C695.08 230.541 702.242 227.641 709.71 227.64H726.54C725.712 229.626 725.396 231.781 725.62 233.914C725.844 236.048 726.602 238.095 727.826 239.876C729.05 241.655 730.703 243.114 732.639 244.122C734.576 245.13 736.736 245.657 738.93 245.657H818.02C820.214 245.657 822.374 245.13 824.311 244.122C826.247 243.114 827.9 241.655 829.124 239.876C830.348 238.095 831.106 236.048 831.33 233.914C831.554 231.781 831.238 229.626 830.41 227.64H848.43C855.898 227.641 863.06 230.541 868.341 235.704C873.622 240.867 876.589 247.869 876.59 255.169Z" fill="#B1B1F0"/>
                <path id="Vector_21" opacity="0.6" d="M799.732 457.736H758.408V469.707H799.732V457.736Z" fill="#3F3D56"/>
                <path id="Vector_22" opacity="0.6" d="M849.69 364.527H708.45V369.658H849.69V364.527Z" fill="#3F3D56"/>
                <path id="Vector_23" opacity="0.6" d="M849.69 380.774H708.45V385.905H849.69V380.774Z" fill="#3F3D56"/>
                <path id="Vector_24" opacity="0.6" d="M849.69 397.022H708.45V402.152H849.69V397.022Z" fill="#3F3D56"/>
                <path id="Vector_25" opacity="0.6" d="M849.69 413.269H708.45V418.399H849.69V413.269Z" fill="#3F3D56"/>
                <path id="Vector_26" opacity="0.6" d="M849.69 429.517H708.45V434.647H849.69V429.517Z" fill="#3F3D56"/>
                <path id="Vector_27" opacity="0.6" d="M784.004 296.391H759.512V320.334H784.004V296.391Z" fill="#F2F2F2"/>
                <path id="Vector_28" opacity="0.6" d="M768.888 302.378V331.452H798.628V302.378H768.888ZM797.338 330.191H770.178V303.639H797.338V330.191Z" fill="#3F3D56"/>
                <path id="Vector_29" opacity="0.1" d="M876.59 566.871V604.138C876.591 611.441 873.625 618.444 868.344 623.609C863.063 628.774 855.9 631.676 848.43 631.677H709.71C702.24 631.676 695.077 628.774 689.796 623.609C684.515 618.444 681.549 611.441 681.55 604.138V416.231L798.42 506.494L800.42 508.038L822.16 524.824L824.19 526.398L876.59 566.871Z" fill="black"/>
                <path id="Vector_30" opacity="0.6" d="M780 610.561C769.122 610.561 758.488 607.408 749.444 601.499C740.399 595.591 733.349 587.194 729.187 577.369C725.024 567.544 723.935 556.732 726.057 546.302C728.179 535.872 733.417 526.291 741.109 518.772C748.801 511.252 758.601 506.131 769.27 504.057C779.939 501.982 790.998 503.047 801.048 507.117C811.098 511.186 819.687 518.078 825.731 526.92C831.774 535.763 835 546.158 835 556.792C834.984 571.048 829.184 584.715 818.873 594.795C808.562 604.875 794.582 610.545 780 610.561ZM780 504.979C769.518 504.979 759.271 508.018 750.555 513.711C741.839 519.404 735.046 527.497 731.034 536.964C727.023 546.431 725.973 556.85 728.018 566.901C730.063 576.951 735.111 586.184 742.523 593.43C749.936 600.676 759.379 605.611 769.66 607.61C779.941 609.609 790.598 608.583 800.282 604.662C809.967 600.74 818.244 594.099 824.068 585.578C829.892 577.058 833 567.04 833 556.792C832.984 543.056 827.395 529.885 817.459 520.172C807.523 510.458 794.052 504.994 780 504.979Z" fill="#3F3D56"/>
                </g>
                <g id="k7">
                <path id="Vector_31" opacity="0.6" d="M247.243 567.833C279.962 567.833 306.486 541.903 306.486 509.917C306.486 477.93 279.962 452 247.243 452C214.524 452 188 477.93 188 509.917C188 541.903 214.524 567.833 247.243 567.833Z" fill="#9F9FD8"/>
                </g>
                <g id="k5">
                <path id="k5_2" opacity="0.6" d="M163.307 330.913C196.613 330.913 223.614 304.517 223.614 271.956C223.614 239.396 196.613 213 163.307 213C130 213 103 239.396 103 271.956C103 304.517 130 330.913 163.307 330.913Z" fill="#F2F2F2"/>
                </g>
                <g id="k6">
                <path id="k6_2" opacity="0.6" d="M648.492 64H624V87.9434H648.492V64Z" fill="#F2F2F2"/>
                </g>
                <g id="k2">
                <path id="Vector_32" opacity="0.6" d="M513 519H485V546.373H513V519Z" fill="#6C63FF"/>
                </g>
                <g id="k1">
                <path id="Vector_33" opacity="0.6" d="M838 3H810V30.3731H838V3Z" fill="#6C63FF"/>
                </g>
                <g id="k3">
                <path id="k3_2" opacity="0.6" d="M950 609H922V636.373H950V609Z" fill="#6C63FF"/>
                </g>
                <g id="k4">
                <path id="k4_2" opacity="0.6" d="M779.868 599.772C804.096 599.772 823.736 580.57 823.736 556.886C823.736 533.2 804.096 514 779.868 514C755.641 514 736 533.2 736 556.886C736 580.57 755.641 599.772 779.868 599.772Z" fill="#F2F2F2"/>
                </g>
                </g>
                </g>
                </svg>