<svg width="214" height="184" viewBox="0 0 214 184" fill="none" xmlns="http://www.w3.org/2000/svg">
<g id="Group">
<g id="Group_2">
<path id="Vector" d="M204.103 142.304H9.89672C5.5272 142.304 2 139.348 2 135.783V8.52174C2 4.95652 5.57984 2 9.89672 2H204.103C208.473 2 212 4.95652 212 8.52174V135.783C212 139.348 208.473 142.304 204.103 142.304Z" stroke="#B65656" stroke-width="4" stroke-miterlimit="10"/>
<path id="Vector_2" d="M137.876 142.304H76.1764V167.087H137.876V142.304Z" stroke="#B65656" stroke-width="3" stroke-miterlimit="10"/>
<path id="Vector_3" d="M172.464 182H41.5889C38.9566 182 36.8508 180.261 36.8508 178.087V171C36.8508 168.826 38.9566 167.087 41.5889 167.087H172.464C175.096 167.087 177.202 168.826 177.202 171V178.087C177.202 180.261 175.096 182 172.464 182Z" stroke="#B65656" stroke-width="3" stroke-miterlimit="10"/>
<path id="Vector_4" d="M42.3786 16.9566H12.2658C11.0549 16.9566 10.0547 16.1305 10.0547 15.1305V11.7827C10.0547 10.7827 11.0549 9.95667 12.2658 9.95667H42.3259C43.5368 9.95667 44.537 10.7827 44.537 11.7827V15.1305C44.5897 16.1305 43.5894 16.9566 42.3786 16.9566Z" stroke="#B65656" stroke-width="3" stroke-miterlimit="10"/>
<path id="Vector_5" d="M85.9685 16.9566H55.9083C54.6975 16.9566 53.6973 16.1305 53.6973 15.1305V11.7827C53.6973 10.7827 54.6975 9.95667 55.9083 9.95667H85.9685C87.1793 9.95667 88.1796 10.7827 88.1796 11.7827V15.1305C88.1796 16.1305 87.1793 16.9566 85.9685 16.9566Z" stroke="#B65656" stroke-width="3" stroke-miterlimit="10"/>
<path id="Vector_6" d="M199.734 16.9566H169.674C168.463 16.9566 167.463 16.1305 167.463 15.1305V11.7827C167.463 10.7827 168.463 9.95667 169.674 9.95667H199.734C200.945 9.95667 201.945 10.7827 201.945 11.7827V15.1305C201.945 16.1305 200.945 16.9566 199.734 16.9566Z" stroke="#B65656" stroke-width="3" stroke-miterlimit="10"/>
<path id="Vector_7" d="M2 116.565H212" stroke="#B65656" stroke-width="4" stroke-miterlimit="10"/>
</g>
<path id="Vector_8" d="M101.657 59.3044L95.9183 54.6087L92.1805 57.6957C91.4435 58.3044 90.2853 58.3044 89.5482 57.6957C88.8112 57.087 88.8112 56.1304 89.5482 55.5217L93.286 52.4348L87.0739 47.3043C85.9158 46.3478 84.0732 46.3478 82.915 47.3043L75.4394 53.4782C74.2813 54.4348 74.2813 55.9565 75.4394 56.913L89.9694 68.9131C91.1276 69.8696 92.9702 69.8696 94.1283 68.9131L101.604 62.7392C102.815 61.8261 102.815 60.2609 101.657 59.3044Z" fill="#B65656"/>
<path id="Vector_9" d="M136.823 88.3914L130.874 83.4783L127.137 86.5653C126.4 87.174 125.241 87.174 124.504 86.5653C123.767 85.9566 123.767 85.0001 124.504 84.3914L128.242 81.3044L122.293 76.3913C121.135 75.4348 119.293 75.4348 118.134 76.3913L110.659 82.5653C109.501 83.5218 109.501 85.0436 110.659 86.0001L125.189 98.0001C126.347 98.9567 128.19 98.9567 129.348 98.0001L136.823 91.8262C137.981 90.8697 137.981 89.3044 136.823 88.3914Z" fill="#B65656"/>
<path id="Vector_10" d="M121.919 51.2424L79.8551 85.9825L83.6148 89.0876L125.679 54.3475L121.919 51.2424Z" fill="#B65656"/>
<path id="Vector_11" d="M128.608 56.759L86.5436 91.4991L90.3033 94.6042L132.368 59.8641L128.608 56.759Z" fill="#B65656"/>
<path id="Vector_12" d="M77.8612 89.0869L86.4423 96.1739L74.8604 99.5653C74.2813 99.7392 73.6496 99.2609 73.8602 98.7827L77.8612 89.0869Z" fill="#B65656"/>
<path id="Vector_13" d="M138.192 46.6523L137.929 46.4349C135.139 44.1306 130.664 44.1306 127.874 46.4349L124.978 48.8262L135.191 57.261L138.192 54.7828C140.93 52.5219 140.93 48.9132 138.192 46.6523Z" fill="#B65656"/>
</g>
</svg>
