<svg width="50" height="46" viewBox="0 0 50 46" fill="none" xmlns="http://www.w3.org/2000/svg">
<g id="email">
<g id="Group">
<g id="Group_2">
<path id="Vector" d="M49.9899 17.3741C49.9848 17.3219 49.9733 17.2704 49.9558 17.2204C49.9443 17.1757 49.9284 17.1322 49.9083 17.0901C49.885 17.049 49.857 17.0101 49.825 16.9741C49.7929 16.9314 49.7557 16.8921 49.7141 16.8567C49.7008 16.8461 49.695 16.8317 49.6808 16.8211L41.6663 11.1633V5.29953C41.6663 4.0445 40.5469 3.02702 39.1661 3.02702H30.1348L26.5187 0.474965C25.6254 -0.158322 24.3727 -0.158322 23.4794 0.474965L19.8625 3.02702H10.8312C9.45048 3.02702 8.33109 4.04441 8.33109 5.29953V11.1634L0.319059 16.8212C0.304898 16.8318 0.299039 16.8462 0.285757 16.8568C0.244251 16.8921 0.207042 16.9315 0.174911 16.9742C0.142878 17.0102 0.114947 17.049 0.0916062 17.0902C0.0713903 17.1322 0.0555692 17.1758 0.0441429 17.2205C0.0267592 17.2697 0.0153328 17.3205 0.00996144 17.372C0.00996144 17.3879 0 17.4016 0 17.4175V43.1747C0.00117193 43.6566 0.172665 44.1253 0.489185 44.5117C0.494166 44.5186 0.495045 44.5269 0.500807 44.5329C0.506666 44.539 0.519167 44.5458 0.527468 44.5541C0.995656 45.1141 1.72382 45.4442 2.49759 45.4473H47.4999C48.2767 45.4451 49.0079 45.1134 49.4766 44.5504C49.4833 44.5429 49.4933 44.5406 49.4991 44.533C49.505 44.5255 49.5057 44.5186 49.5108 44.5118C49.8273 44.1253 49.9988 43.6566 50 43.1748V17.4196C49.9999 17.4037 49.9908 17.39 49.9899 17.3741ZM24.4986 1.67026C24.7896 1.46005 25.2018 1.46005 25.4928 1.67026L27.4154 3.02693H22.5818L24.4986 1.67026ZM2.70756 43.9323L24.4987 28.5466C24.7899 28.3367 25.2018 28.3367 25.4929 28.5466L47.2898 43.9323H2.70756ZM48.3332 42.7513L26.5187 27.3512C25.6252 26.7184 24.3729 26.7184 23.4794 27.3512L1.66415 42.7513V18.5732L15.3207 28.2125C15.6846 28.469 16.2082 28.4088 16.4904 28.078C16.7725 27.7473 16.7063 27.2713 16.3424 27.0148L2.46839 17.2226L8.33119 13.0813V18.9345C8.33119 19.3529 8.70435 19.692 9.16453 19.692C9.62481 19.692 9.99787 19.3528 9.99787 18.9345V5.29945C9.99787 4.88107 10.3709 4.54197 10.8312 4.54197H39.166C39.6262 4.54197 39.9993 4.88107 39.9993 5.29945V18.9345C39.9993 19.3529 40.3724 19.692 40.8326 19.692C41.2929 19.692 41.666 19.3528 41.666 18.9345V13.0813L47.5288 17.2226L33.6306 27.0323C33.3915 27.197 33.2682 27.4658 33.3078 27.7361C33.3475 28.0064 33.5439 28.2365 33.8221 28.3385C34.1004 28.4405 34.4175 28.3988 34.6523 28.2291L48.333 18.5732V42.7513H48.3332Z" fill="#B65656"/>
<path id="Vector_2" d="M34.9991 18.1772V15.1472C34.9991 10.1269 30.5218 6.05713 24.9986 6.05713C19.4755 6.05713 14.9982 10.1269 14.9982 15.1472C14.9982 20.1675 19.4755 24.2373 24.9986 24.2373C25.4589 24.2373 25.832 23.8982 25.832 23.4798C25.832 23.0615 25.4589 22.7223 24.9986 22.7223C20.3961 22.7223 16.6649 19.3309 16.6649 15.1473C16.6649 10.9637 20.3961 7.57226 24.9986 7.57226C29.6012 7.57226 33.3324 10.9637 33.3324 15.1473V18.1773C33.3324 19.0141 32.5861 19.6924 31.6656 19.6924C30.745 19.6924 29.9988 19.0141 29.9988 18.1773V15.1473C29.9988 14.7289 29.6257 14.3898 29.1655 14.3898C28.7052 14.3898 28.3321 14.7289 28.3321 15.1473C28.3321 16.8207 26.8397 18.1773 24.9986 18.1773C23.1576 18.1773 21.6652 16.8207 21.6652 15.1473C21.6652 13.4739 23.1576 12.1173 24.9986 12.1173C25.4589 12.1173 25.832 11.7782 25.832 11.3598C25.832 10.9415 25.4589 10.6024 24.9986 10.6024C22.7607 10.5978 20.792 11.9454 20.1787 13.9018C19.5654 15.8581 20.4567 17.9466 22.3611 19.015C24.2655 20.0835 26.7189 19.8717 28.368 18.4963C28.5494 20.0983 30.0812 21.2894 31.8504 21.2043C33.6198 21.1191 35.0047 19.7877 34.9991 18.1772Z" fill="#B65656"/>
</g>
</g>
</g>
</svg>
