<svg width="73" height="66" viewBox="0 0 73 66" fill="none" xmlns="http://www.w3.org/2000/svg">
<g id="facebook">
<path id="Vector" d="M46.1597 33.8633H47.0519L47.1532 32.9769L47.9759 25.783L48.1032 24.6694H46.9824H40.841V21.4304C40.841 20.9153 41.0112 20.741 41.1201 20.6605C41.281 20.5415 41.5394 20.4725 41.8271 20.4725H41.832H41.8369H41.8419H41.8469H41.8521H41.8573H41.8626H41.868H41.8734H41.8789H41.8845H41.8902H41.8959H41.9017H41.9076H41.9136H41.9196H41.9257H41.9319H41.9381H41.9445H41.9508H41.9573H41.9638H41.9704H41.9771H41.9838H41.9906H41.9975H42.0045H42.0115H42.0185H42.0257H42.0329H42.0402H42.0475H42.0549H42.0624H42.0699H42.0775H42.0852H42.0929H42.1007H42.1086H42.1165H42.1245H42.1325H42.1406H42.1488H42.157H42.1653H42.1737H42.1821H42.1906H42.1991H42.2077H42.2163H42.225H42.2338H42.2426H42.2515H42.2604H42.2694H42.2785H42.2876H42.2967H42.306H42.3152H42.3246H42.3339H42.3434H42.3529H42.3624H42.372H42.3816H42.3913H42.4011H42.4109H42.4207H42.4307H42.4406H42.4506H42.4607H42.4708H42.4809H42.4911H42.5014H42.5117H42.522H42.5324H42.5429H42.5534H42.5639H42.5745H42.5851H42.5958H42.6065H42.6173H42.6281H42.6389H42.6498H42.6608H42.6717H42.6828H42.6938H42.7049H42.7161H42.7273H42.7385H42.7498H42.7611H42.7725H42.7839H42.7953H42.8068H42.8183H42.8298H42.8414H42.853H42.8647H42.8764H42.8881H42.8999H42.9117H42.9236H42.9354H42.9473H42.9593H42.9713H42.9833H42.9953H43.0074H43.0195H43.0317H43.0439H43.0561H43.0683H43.0806H43.0929H43.1053H43.1176H43.13H43.1424H43.1549H43.1674H43.1799H43.1924H43.205H43.2176H43.2302H43.2429H43.2555H43.2682H43.281H43.2937H43.3065H43.3193H43.3321H43.345H43.3579H43.3708H43.3837H43.3966H43.4096H43.4226H43.4356H43.4486H43.4617H43.4748H43.4878H43.501H43.5141H43.5272H43.5404H43.5536H43.5668H43.58H43.5933H43.6065H43.6198H43.6331H43.6464H43.6597H43.6731H43.6864H43.6998H43.7132H43.7266H43.74H43.7534H43.7669H43.7803H43.7938H43.8073H43.8208H43.8343H43.8478H43.8613H43.8748H43.8884H43.9019H43.9155H43.9291H43.9426H43.9562H43.9698H43.9834H43.997H44.0106H44.0243H44.0379H44.0515H44.0652H44.0788H44.0925H44.1061H44.1198H44.1335H44.1471H44.1608H44.1745H44.1882H44.2018H44.2155H44.2292H44.2429H44.2566H44.2703H44.2839H44.2976H44.3113H44.325H44.3387H44.3524H44.366H44.3797H44.3934H44.4071H44.4207H44.4344H44.4481H44.4617H44.4754H44.489H44.5027H44.5163H44.5299H44.5436H44.5572H44.5708H44.5844H44.598H44.6116H44.6252H44.6387H44.6523H44.6658H44.6794H44.6929H44.7064H44.7199H44.7334H44.7469H44.7604H44.7739H44.7873H44.8008H44.8142H44.8276H44.841H44.8544H44.8678H44.8811H44.8945H44.9078H44.9211H44.9344H44.9477H44.9609H44.9742H44.9874H45.0006H45.0138H45.027H45.0401H45.0533H45.0664H45.0795H45.0925H45.1056H45.1186H45.1316H45.1446H45.1576H45.1705H45.1834H45.1964H45.2092H45.2221H45.2349H45.2477H45.2605H45.2732H45.286H45.2987H45.3113H45.324H45.3366H45.3492H45.3618H45.3743H45.3868H45.3993H45.4118H45.4242H45.4366H45.449H45.4613H45.4736H45.4859H45.4981H45.5103H45.5225H45.5347H45.5468H45.5589H45.5709H45.5829H45.5949H45.6069H45.6188H45.6307H45.6425H45.6543H45.6661H45.6778H45.6895H45.7012H45.7128H45.7244H45.736H45.7475H45.7589H45.7704H45.7818H45.7931H45.8044H45.8157H45.827H45.8382H45.8493H45.8604H45.8715H45.8825H45.8935H45.9044H45.9153H45.9262H45.937H45.9477H45.9585H45.9691H45.9798H45.9904H46.0009H46.0114H46.0218H46.0322H46.0426H46.0529H46.0631H46.0733H46.0835H46.0936H46.1036H46.1136H46.1236H46.1335H46.1434H46.1532H46.1629H46.1726H46.1823H46.1919H46.2014H46.2109H46.2203H46.2297H46.239H46.2483H46.2575H46.2667H46.2758H46.2848H46.2938H46.3028H46.3117H46.3205H46.3292H46.3379H46.3466H46.3552H46.3637H46.3722H46.3806H46.389H46.3972H46.4055H46.4136H46.4217H46.4298H46.4378H46.4457H46.4536H46.4614H46.4691H46.4768H46.4844H46.4919H46.4994H46.5068H46.5141H46.5214H46.5286H46.5358H46.5428H46.5498H46.5568H46.5637H46.5705H46.5772H46.5839H46.5905H46.597H46.6035H46.6099H46.6162H46.6224H46.6286H46.6347H46.6407H46.6467H46.6526H46.6584H46.6641H46.6698H46.6754H46.6809H46.6864H46.6917H46.697H46.7022H46.7074H46.7125H46.7174H46.7224H46.7272H46.7319H46.7366H46.7412H46.7457H46.7502H46.7545H46.7588H46.763H46.7672H46.7712H46.7752H46.779H46.7828H46.7865H46.7902H46.7937H46.7972H46.8006H46.8039H46.8071H46.8102H46.8132H46.8162H46.8191H46.8219H46.8246H46.8272H46.8297H46.8321H46.8345H46.8368H46.8389H46.841H46.843H46.8449H46.8467H46.8485H46.8501H46.8517H46.8531H46.8545H46.8557H46.8569H46.858H46.859H46.8599H46.8607H46.8614H46.8621H46.8626H46.863H46.8633H46.8636H46.8638H47.8638V19.4725V12.4836V11.487L46.8673 11.4836L39.9304 11.4594H39.9269C35.8278 11.4594 33.1574 12.8587 31.5354 14.8495C29.9454 16.8011 29.4718 19.1874 29.4718 21.0056V24.668H26.0162H25.0162V25.668V32.8633V33.8633H26.0162H29.4718V33.8999V33.9548V34.0098V34.0647V34.1197V34.1748V34.2298V34.2849V34.34V34.3952V34.4504V34.5056V34.5608V34.6161V34.6713V34.7266V34.782V34.8373V34.8927V34.9481V35.0035V35.0589V35.1144V35.1698V35.2253V35.2808V35.3364V35.3919V35.4475V35.503V35.5586V35.6142V35.6699V35.7255V35.7811V35.8368V35.8925V35.9481V36.0038V36.0595V36.1152V36.171V36.2267V36.2824V36.3382V36.3939V36.4497V36.5054V36.5612V36.617V36.6727V36.7285V36.7843V36.8401V36.8959V36.9516V37.0074V37.0632V37.119V37.1748V37.2305V37.2863V37.3421V37.3979V37.4536V37.5094V37.5651V37.6209V37.6766V37.7323V37.7881V37.8438V37.8995V37.9552V38.0109V38.0665V38.1222V38.1778V38.2335V38.2891V38.3447V38.4003V38.4559V38.5115V38.567V38.6225V38.6781V38.7336V38.789V38.8445V38.8999V38.9553V39.0107V39.0661V39.1215V39.1768V39.2321V39.2874V39.3427V39.3979V39.4531V39.5083V39.5634V39.6186V39.6737V39.7288V39.7838V39.8388V39.8938V39.9488V40.0037V40.0586V40.1134V40.1683V40.223V40.2778V40.3325V40.3872V40.4419V40.4965V40.5511V40.6056V40.6601V40.7146V40.769V40.8234V40.8777V40.932V40.9863V41.0405V41.0947V41.1488V41.2029V41.2569V41.3109V41.3649V41.4188V41.4726V41.5264V41.5802V41.6339V41.6876V41.7412V41.7948V41.8483V41.9017V41.9551V42.0085V42.0618V42.115V42.1682V42.2214V42.2744V42.3275V42.3804V42.4334V42.4862V42.539V42.5917V42.6444V42.697V42.7496V42.8021V42.8545V42.9069V42.9592V43.0114V43.0636V43.1157V43.1677V43.2197V43.2716V43.3235V43.3752V43.427V43.4786V43.5302V43.5817V43.6331V43.6844V43.7357V43.7869V43.8381V43.8891V43.9401V43.991V44.0419V44.0926V44.1433V44.1939V44.2445V44.2949V44.3453V44.3956V44.4458V44.4959V44.546V44.596V44.6458V44.6956V44.7454V44.795V44.8446V44.894V44.9434V44.9927V45.0419V45.091V45.14V45.189V45.2378V45.2866V45.3353V45.3838V45.4323V45.4807V45.529V45.5772V45.6253V45.6734V45.7213V45.7691V45.8168V45.8645V45.912V45.9595V46.0068V46.054V46.1012V46.1482V46.1952V46.242V46.2887V46.3354V46.3819V46.4283V46.4746V46.5208V46.5669V46.6129V46.6588V46.7046V46.7503V46.7959V46.8413V46.8867V46.9319V46.9771V47.0221V47.067V47.1118V47.1565V47.201V47.2455V47.2898V47.334V47.3781V47.4221V47.466V47.5097V47.5534V47.5969V47.6403V47.6835V47.7267V47.7697V47.8126V47.8554V47.8981V47.9406V47.983V48.0253V48.0675V48.1095V48.1514V48.1932V48.2349V48.2764V48.3178V48.3591V48.4002V48.4412V48.4821V48.5228V48.5634V48.6039V48.6443V48.6845V48.7245V48.7645V48.8043V48.844V48.8835V48.9229V48.9621V49.0012V49.0402V49.0791V49.1177V49.1563V49.1947V49.233V49.2711V49.3091V49.3469V49.3846V49.4222V49.4596V49.4968V49.5339V49.5709V49.6077V49.6443V49.6809V49.7172V49.7534V49.7895V49.8254V49.8612V49.8968V49.9322V49.9675V50.0026V50.0376V50.0725V50.1071V50.1417V50.176V50.2102V50.2443V50.2781V50.3119V50.3454V50.3788V50.4121V50.4451V50.4781V50.5108V50.5434V50.5758V50.6081V50.6402V50.6721V50.7038V50.7354V50.7668V50.7981V50.8292V50.8601V50.8908V50.9214V50.9518V50.982V51.0121V51.042V51.0717V51.1012V51.1306V51.1598V51.1888V51.2176V51.2463V51.2747V51.303V51.3312V51.3591V51.3869V51.4144V51.4418V51.469V51.4961V51.5229V51.5496V51.5761V51.6024V51.6285V51.6544V51.6801V51.7057V51.731V51.7562V51.7812V51.806V51.8306V51.855V51.8792V51.9032V51.9271V51.9507V51.9742V51.9974V52.0205V52.0434V52.066V52.0885V52.1108V52.1328V52.1547V52.1764V52.1979V52.2192V52.2402V52.2611V52.2818V52.3023V52.3225V52.3426V52.3625V52.3821V52.4016V52.4208V52.4399V52.4587V52.4773V52.4958V52.514V52.532V52.5498V52.5673V52.5847V52.6019V52.6188V52.6355V52.6521V52.6684V52.6844V52.7003V52.716V52.7314V52.7466V52.7617V52.7764V52.791V52.8054V52.8195V52.8334V52.8471V52.8606V52.8738V52.8868V52.8996V52.9122V52.9246V52.9367V52.9486V52.9603V52.9717V52.9829V52.9939V53.0047V53.0152V53.0255V53.0356V53.0454V53.055V53.0644V53.0736V53.0825V53.0912V53.0996V53.1078V53.1158V53.1235V53.131V53.1383V53.1453V53.1521V53.1586V53.165V53.171V53.1768V53.1824V53.1878V53.1929V53.1977V53.2023V53.2067V53.2108V53.2147V53.2184V53.2217V53.2249V53.2278V53.2304V53.2328V53.235V53.2369V53.2385V53.2399V53.241V53.2419V53.2426V53.2429C29.4718 53.243 29.4718 53.2431 30.4718 53.2431H29.4718V54.2431H30.4718H39.8395H40.8395V53.2431H39.8395C40.8395 53.2431 40.8395 53.243 40.8395 53.2429V53.2425V53.2419V53.241V53.2399V53.2384V53.2368V53.2349V53.2327V53.2303V53.2276V53.2247V53.2215V53.2181V53.2144V53.2105V53.2063V53.2019V53.1973V53.1924V53.1872V53.1818V53.1762V53.1703V53.1642V53.1578V53.1512V53.1443V53.1372V53.1299V53.1223V53.1145V53.1065V53.0982V53.0896V53.0809V53.0719V53.0626V53.0532V53.0435V53.0335V53.0234V53.013V53.0023V52.9915V52.9804V52.9691V52.9575V52.9457V52.9337V52.9215V52.909V52.8963V52.8834V52.8702V52.8569V52.8433V52.8295V52.8154V52.8012V52.7867V52.772V52.7571V52.7419V52.7266V52.711V52.6952V52.6792V52.6629V52.6465V52.6298V52.6129V52.5958V52.5785V52.561V52.5433V52.5253V52.5072V52.4888V52.4702V52.4514V52.4324V52.4132V52.3938V52.3742V52.3544V52.3343V52.3141V52.2936V52.273V52.2521V52.2311V52.2098V52.1884V52.1667V52.1448V52.1228V52.1005V52.0781V52.0554V52.0326V52.0095V51.9862V51.9628V51.9392V51.9153V51.8913V51.8671V51.8427V51.818V51.7932V51.7683V51.7431V51.7177V51.6921V51.6664V51.6405V51.6143V51.588V51.5615V51.5348V51.508V51.4809V51.4537V51.4262V51.3986V51.3709V51.3429V51.3147V51.2864V51.2579V51.2292V51.2003V51.1713V51.1421V51.1127V51.0831V51.0533V51.0234V50.9933V50.963V50.9326V50.902V50.8712V50.8402V50.8091V50.7778V50.7463V50.7147V50.6829V50.6509V50.6187V50.5864V50.5539V50.5213V50.4885V50.4555V50.4224V50.3891V50.3556V50.322V50.2882V50.2542V50.2201V50.1859V50.1515V50.1169V50.0821V50.0472V50.0122V49.977V49.9416V49.9061V49.8704V49.8346V49.7986V49.7625V49.7262V49.6897V49.6531V49.6164V49.5795V49.5425V49.5053V49.468V49.4305V49.3929V49.3551V49.3172V49.2791V49.2409V49.2026V49.1641V49.1255V49.0867V49.0478V49.0087V48.9695V48.9302V48.8907V48.8511V48.8114V48.7715V48.7315V48.6913V48.651V48.6106V48.57V48.5293V48.4885V48.4476V48.4065V48.3653V48.3239V48.2824V48.2408V48.1991V48.1572V48.1152V48.0731V48.0309V47.9885V47.946V47.9034V47.8607V47.8178V47.7748V47.7317V47.6885V47.6451V47.6016V47.5581V47.5143V47.4705V47.4266V47.3825V47.3383V47.294V47.2496V47.2051V47.1605V47.1157V47.0709V47.0259V46.9808V46.9356V46.8903V46.8449V46.7993V46.7537V46.7079V46.6621V46.6161V46.5701V46.5239V46.4776V46.4312V46.3848V46.3382V46.2915V46.2447V46.1978V46.1508V46.1037V46.0565V46.0092V45.9618V45.9143V45.8667V45.819V45.7713V45.7234V45.6754V45.6273V45.5792V45.5309V45.4826V45.4341V45.3856V45.337V45.2883V45.2395V45.1906V45.1416V45.0925V45.0434V44.9942V44.9448V44.8954V44.8459V44.7963V44.7467V44.6969V44.6471V44.5972V44.5472V44.4971V44.447V44.3967V44.3464V44.296V44.2456V44.195V44.1444V44.0937V44.043V43.9921V43.9412V43.8902V43.8391V43.788V43.7368V43.6855V43.6342V43.5827V43.5312V43.4797V43.4281V43.3764V43.3246V43.2728V43.2209V43.1689V43.1169V43.0648V43.0127V42.9604V42.9082V42.8558V42.8034V42.751V42.6985V42.6459V42.5933V42.5406V42.4878V42.435V42.3821V42.3292V42.2763V42.2232V42.1701V42.117V42.0638V42.0106V41.9573V41.904V41.8506V41.7971V41.7436V41.6901V41.6365V41.5829V41.5292V41.4755V41.4217V41.3679V41.314V41.2601V41.2062V41.1522V41.0982V41.0441V40.99V40.9358V40.8816V40.8274V40.7731V40.7188V40.6645V40.6101V40.5557V40.5012V40.4468V40.3922V40.3377V40.2831V40.2285V40.1738V40.1192V40.0644V40.0097V39.9549V39.9001V39.8453V39.7905V39.7356V39.6807V39.6257V39.5708V39.5158V39.4608V39.4058V39.3507V39.2956V39.2405V39.1854V39.1303V39.0751V39.02V38.9648V38.9095V38.8543V38.7991V38.7438V38.6885V38.6332V38.5779V38.5226V38.4673V38.4119V38.3566V38.3012V38.2458V38.1904V38.135V38.0796V38.0242V37.9688V37.9134V37.8579V37.8025V37.747V37.6916V37.6361V37.5807V37.5252V37.4697V37.4143V37.3588V37.3033V37.2479V37.1924V37.1369V37.0815V37.026V36.9705V36.9151V36.8596V36.8042V36.7487V36.6933V36.6379V36.5824V36.527V36.4716V36.4162V36.3608V36.3055V36.2501V36.1947V36.1394V36.0841V36.0287V35.9734V35.9181V35.8629V35.8076V35.7524V35.6971V35.6419V35.5867V35.5316V35.4764V35.4213V35.3662V35.3111V35.256V35.201V35.1459V35.0909V35.036V34.981V34.9261V34.8712V34.8163V34.7614V34.7066V34.6518V34.5971V34.5423V34.4876V34.4329V34.3783V34.3237V34.2691V34.2146V34.16V34.1056V34.0511V33.9967V33.9423V33.888V33.8633H46.1597ZM1 33.0013C1 15.4226 16.7968 1 36.5 1C56.2018 1 72 15.4226 72 33.0013C72 50.5827 56.2034 65 36.5 65C16.7966 65 1 50.5827 1 33.0013Z" stroke="#B65656" stroke-width="2"/>
</g>
</svg>
