<svg width="50" height="46" viewBox="0 0 50 46" fill="none" xmlns="http://www.w3.org/2000/svg">
<g id="fonTel">
<g id="Group">
<g id="Group_2">
<g id="Vector">
<mask id="path-1-inside-1" fill="white">
<path d="M48.8791 35.9466L41.1574 28.9113C39.6193 27.5158 37.0723 27.5582 35.4807 29.0086L31.5905 32.5519C31.3447 32.4285 31.0903 32.2996 30.8229 32.1628C28.3662 30.9228 25.0039 29.2231 21.4657 25.9975C17.9171 22.7651 16.0497 19.6972 14.6843 17.4578C14.5402 17.2205 14.4022 16.9918 14.2659 16.7746L16.8768 14.3995L18.1604 13.2287C19.7545 11.7761 19.7984 9.45645 18.264 8.05688L10.5423 1.02078C9.00784 -0.376831 6.45969 -0.334431 4.86565 1.11814L2.6894 3.1121L2.74887 3.16588C2.01915 4.01414 1.40937 4.99247 0.955587 6.04748C0.537288 7.05172 0.276857 8.01003 0.157774 8.9703C-0.861829 16.6708 3.00083 23.7085 13.4836 33.2584C27.9739 46.4583 39.6512 45.4611 40.155 45.4124C41.2522 45.2929 42.3037 45.0541 43.3723 44.6761C44.5203 44.2675 45.5935 43.7128 46.524 43.0494L46.5716 43.0879L48.7762 41.1212C50.367 39.6689 50.4128 37.3484 48.8791 35.9466Z"/>
</mask>
<path d="M48.8791 35.9466L41.1574 28.9113C39.6193 27.5158 37.0723 27.5582 35.4807 29.0086L31.5905 32.5519C31.3447 32.4285 31.0903 32.2996 30.8229 32.1628C28.3662 30.9228 25.0039 29.2231 21.4657 25.9975C17.9171 22.7651 16.0497 19.6972 14.6843 17.4578C14.5402 17.2205 14.4022 16.9918 14.2659 16.7746L16.8768 14.3995L18.1604 13.2287C19.7545 11.7761 19.7984 9.45645 18.264 8.05688L10.5423 1.02078C9.00784 -0.376831 6.45969 -0.334431 4.86565 1.11814L2.6894 3.1121L2.74887 3.16588C2.01915 4.01414 1.40937 4.99247 0.955587 6.04748C0.537288 7.05172 0.276857 8.01003 0.157774 8.9703C-0.861829 16.6708 3.00083 23.7085 13.4836 33.2584C27.9739 46.4583 39.6512 45.4611 40.155 45.4124C41.2522 45.2929 42.3037 45.0541 43.3723 44.6761C44.5203 44.2675 45.5935 43.7128 46.524 43.0494L46.5716 43.0879L48.7762 41.1212C50.367 39.6689 50.4128 37.3484 48.8791 35.9466Z" stroke="#B65656" stroke-width="4" mask="url(#path-1-inside-1)"/>
</g>
</g>
</g>
</g>
</svg>
