<svg width="71" height="71" viewBox="0 0 71 71" fill="none" xmlns="http://www.w3.org/2000/svg">
<style>
svg:hover #Vector_3{
stroke-dasharray:5;
-webkit-animation: mymove 5s infinite; /* Safari 4.0 - 8.0 */
  animation: mymove 5s linear infinite;
  transform-box: fill-box;
	transform-origin:center;

}

@keyframes mymove{from{transform:rotate(0deg);}to{transform:rotate(360deg);}

</style>

<path d="M40.5603 35.7884C40.5603 38.6284 38.2353 41.0622 35.2108 41.0622C32.1864 41.0622 29.8613 38.6284 29.8613 35.7884C29.8613 32.9484 32.1864 30.5146 35.2108 30.5146C38.2353 30.5146 40.5603 32.9484 40.5603 35.7884Z" stroke="#B65656" stroke-width="2"/>
<path d="M48.1343 48.6727L48.1142 48.6906L48.0951 48.7098C47.033 49.7719 45.285 50.4423 43.148 50.4423H27.4185C25.3251 50.4423 23.6911 49.7966 22.4525 48.6907C21.2578 47.4848 20.626 45.7761 20.626 43.7253V27.8514C20.626 25.7711 21.2753 24.0631 22.3271 23.0112C23.3892 21.9491 25.1373 21.2788 27.2742 21.2788H43.148C45.3924 21.2788 47.0014 21.9277 48.2201 23.1363C49.3169 24.3649 49.9406 25.9615 49.9406 27.9957V43.8696C49.9406 45.9459 49.2954 47.6276 48.1343 48.6727ZM24.3983 35.7884C24.3983 41.7846 29.2353 46.6771 35.2111 46.6771C41.1573 46.6771 46.1683 41.9584 46.1683 35.7884C46.1683 29.6088 41.0032 24.8996 35.2111 24.8996C29.3994 24.8996 24.3983 29.628 24.3983 35.7884ZM42.148 25.5425C42.148 27.508 43.6759 28.9271 45.4569 28.9271C47.2379 28.9271 48.7658 27.508 48.7658 25.5425C48.7658 23.5769 47.2379 22.1577 45.4569 22.1577C43.6759 22.1577 42.148 23.5769 42.148 25.5425Z" stroke="#B65656" stroke-width="2"/>
<path d="M19.0916 52.9221L19.0792 52.9094L19.0663 52.8972C17.007 50.9378 16 48.1065 16 44.7127V27.3631C16 23.9997 17.1064 21.2149 18.9982 19.2685C20.8932 17.3191 23.6497 16.1364 27.0679 16.1364H44.0868C47.4142 16.1364 50.1001 17.3102 52.0631 19.3114C53.9985 21.2844 55 23.9809 55 27.3631V44.7127C55 48.0706 53.8585 50.934 51.9084 52.9221C49.9708 54.8973 47.1455 55.9394 43.9321 55.9394H27.0679C23.8545 55.9394 21.0292 54.8973 19.0916 52.9221Z" stroke="#B65656" stroke-width="2"/>
<path id="Vector_3" d="M67.9991 35.9919V36C67.9991 54.1749 53.3107 69 34.9996 69C16.6884 69 2 54.1749 2 36C2 17.8251 16.6884 3 34.9996 3C53.3181 3 68.1324 17.8305 67.9991 35.9919Z" stroke="#B65656" stroke-width="2"/>
</svg>
