<svg width="71" height="66" viewBox="0 0 71 66" fill="none" xmlns="http://www.w3.org/2000/svg">



<g id="instagram">
<path id="Vector" d="M40.5603 33.2681C40.5603 35.9081 38.2353 38.1705 35.2108 38.1705C32.1864 38.1705 29.8613 35.9081 29.8613 33.2681C29.8613 30.6281 32.1864 28.3657 35.2108 28.3657C38.2353 28.3657 40.5603 30.6281 40.5603 33.2681Z" stroke="#B65656" stroke-width="2"/>
<path id="Vector_2" d="M48.134 45.2452L48.114 45.262L48.0949 45.2798C47.0328 46.2671 45.2847 46.8902 43.1477 46.8902H27.4183C25.3249 46.8902 23.6908 46.2901 22.4522 45.262C21.2576 44.1411 20.6257 42.5526 20.6257 40.6463V25.8903C20.6257 23.9564 21.275 22.3688 22.3269 21.391C23.389 20.4037 25.137 19.7805 27.274 19.7805H43.1477C45.3921 19.7805 47.0012 20.3837 48.2199 21.5072C49.3167 22.6494 49.9403 24.1335 49.9403 26.0244V40.7805C49.9403 42.7106 49.2952 44.2738 48.134 45.2452ZM24.398 33.2683C24.398 38.8423 29.2351 43.3902 35.2109 43.3902C41.1571 43.3902 46.168 39.0038 46.168 33.2683C46.168 27.5239 41.003 23.1464 35.2109 23.1464C29.3992 23.1464 24.398 27.5418 24.398 33.2683ZM42.1477 23.7439C42.1477 25.571 43.6756 26.8903 45.4567 26.8903C47.2377 26.8903 48.7656 25.571 48.7656 23.7439C48.7656 21.9168 47.2377 20.5976 45.4567 20.5976C43.6756 20.5976 42.1477 21.9168 42.1477 23.7439Z" stroke="#B65656" stroke-width="2"/>
<path id="Vector_3" d="M69.999 32.9921V33C69.999 50.6241 54.643 65 35.4995 65C16.356 65 1 50.6241 1 33C1 15.3759 16.356 1 35.4995 1C54.6507 1 70.1384 15.3811 69.999 32.9921ZM51.9098 49.1592C54.1484 47.0783 55.4037 44.123 55.4037 40.7805V26.0244C55.4037 22.7048 54.3079 19.8748 52.0541 17.7798C49.8299 15.7122 46.8367 14.561 43.2921 14.561H27.4183C23.8149 14.561 20.7428 15.7042 18.5628 17.7493C16.3779 19.799 15.1624 22.6871 15.1624 26.0244V40.7805C15.1624 44.0836 16.2489 47.0641 18.6688 49.1709C20.9173 51.2539 24.0645 52.2439 27.4183 52.2439H43.1478C46.5078 52.2439 49.6605 51.2502 51.9098 49.1592Z" stroke="#B65656" stroke-width="2"/>
</g>
</svg>
