<svg width="214" height="184" viewBox="0 0 214 184" fill="none" xmlns="http://www.w3.org/2000/svg">
<g id="Group">
<g id="Group_2">
<path id="Vector" d="M204.103 142.304H9.89672C5.5272 142.304 2 139.348 2 135.783V8.52174C2 4.95652 5.57984 2 9.89672 2H204.103C208.473 2 212 4.95652 212 8.52174V135.783C212 139.348 208.473 142.304 204.103 142.304Z" stroke="#B65656" stroke-width="4" stroke-miterlimit="10"/>
<path id="Vector_2" d="M137.876 142.304H76.1764V167.087H137.876V142.304Z" stroke="#B65656" stroke-width="3" stroke-miterlimit="10"/>
<path id="Vector_3" d="M172.464 182H41.589C38.9567 182 36.851 180.261 36.851 178.087V171C36.851 168.826 38.9567 167.087 41.589 167.087H172.464C175.096 167.087 177.202 168.826 177.202 171V178.087C177.202 180.261 175.096 182 172.464 182Z" stroke="#B65656" stroke-width="3" stroke-miterlimit="10"/>
<path id="Vector_4" d="M42.3786 16.9566H12.2658C11.0549 16.9566 10.0547 16.1305 10.0547 15.1305V11.7827C10.0547 10.7827 11.0549 9.95667 12.2658 9.95667H42.326C43.5368 9.95667 44.537 10.7827 44.537 11.7827V15.1305C44.5897 16.1305 43.5894 16.9566 42.3786 16.9566Z" stroke="#B65656" stroke-width="3" stroke-miterlimit="10"/>
<path id="Vector_5" d="M85.9684 16.9566H55.9082C54.6974 16.9566 53.6971 16.1305 53.6971 15.1305V11.7827C53.6971 10.7827 54.6974 9.95667 55.9082 9.95667H85.9684C87.1792 9.95667 88.1795 10.7827 88.1795 11.7827V15.1305C88.1795 16.1305 87.1792 16.9566 85.9684 16.9566Z" stroke="#B65656" stroke-width="3" stroke-miterlimit="10"/>
<path id="Vector_6" d="M199.734 16.9566H169.674C168.463 16.9566 167.463 16.1305 167.463 15.1305V11.7827C167.463 10.7827 168.463 9.95667 169.674 9.95667H199.734C200.945 9.95667 201.945 10.7827 201.945 11.7827V15.1305C201.945 16.1305 200.945 16.9566 199.734 16.9566Z" stroke="#B65656" stroke-width="3" stroke-miterlimit="10"/>
<path id="Vector_7" d="M2 116.565H212" stroke="#B65656" stroke-width="4" stroke-miterlimit="10"/>
</g>
<path id="Vector_8" d="M106.763 20.6958V109.392" stroke="#B65656" stroke-width="7" stroke-miterlimit="10"/>
<g id="Group_3">
<path id="Vector_9" d="M85.3892 35.3479L50.7489 63.9566L84.4942 91.8261" stroke="#B65656" stroke-width="8" stroke-miterlimit="10"/>
<path id="Vector_10" d="M128.663 35.3479L163.304 63.9566L129.506 91.8261" stroke="#B65656" stroke-width="8" stroke-miterlimit="10"/>
</g>
</g>
</svg>
