<svg id="Layer_1" data-name="Layer 1" xmlns="http://www.w3.org/2000/svg"
                xmlns:xlink="http://www.w3.org/1999/xlink" viewBox="0 0 1922.28 1082">
                <defs>
                    <style>
                        .cls-1,
                        .cls-10,
                        .cls-11,
                        .cls-12,
                        .cls-13,
                        .cls-14,
                        .cls-15,
                        .cls-2,
                        .cls-3,
                        .cls-4,
                        .cls-5,
                        .cls-6,
                        .cls-7,
                        .cls-8,
                        .cls-9 {
                            fill: none;
                            stroke-miterlimit: 10;
                            stroke-width: 2px;
                        }

                        .cls-1 {
                            stroke: url(#linear-gradient);
                        }

                        .cls-2 {
                            stroke: url(#linear-gradient-2);
                        }

                        .cls-3 {
                            stroke: url(#linear-gradient-3);
                        }

                        .cls-4 {
                            stroke: url(#linear-gradient-4);
                        }

                        .cls-5 {
                            stroke: url(#linear-gradient-5);
                        }

                        .cls-6 {
                            stroke: url(#linear-gradient-6);
                        }

                        .cls-7 {
                            stroke: url(#linear-gradient-7);
                        }

                        .cls-8 {
                            stroke: url(#linear-gradient-8);
                        }

                        .cls-9 {
                            stroke: url(#linear-gradient-9);
                        }

                        .cls-10 {
                            stroke: url(#linear-gradient-10);
                        }

                        .cls-11 {
                            stroke: url(#linear-gradient-11);
                        }

                        .cls-12 {
                            stroke: url(#linear-gradient-12);
                        }

                        .cls-13 {
                            stroke: url(#linear-gradient-13);
                        }

                        .cls-14 {
                            stroke: url(#linear-gradient-14);
                        }

                        .cls-15 {
                            stroke: url(#linear-gradient-15);
                        }
                    </style>
                    <linearGradient id="linear-gradient" x1="1638.3" y1="450.33" x2="1869.93" y2="681.97"
                        gradientUnits="userSpaceOnUse">
                        <stop offset="0" stop-color="#b65656"></stop>
                        <stop offset="1" stop-color="#b1b1f0"></stop>
                    </linearGradient>
                    <linearGradient id="linear-gradient-2" x1="1431.84" y1="831.71" x2="1819.87" y2="1219.73"
                        xlink:href="#linear-gradient"></linearGradient>
                    <linearGradient id="linear-gradient-3" x1="1502.17" y1="602.2" x2="1863.88" y2="963.91"
                        xlink:href="#linear-gradient"></linearGradient>
                    <linearGradient id="linear-gradient-4" x1="1381.45" y1="1080.28" x2="1461.14" y2="1159.96"
                        xlink:href="#linear-gradient"></linearGradient>
                    <linearGradient id="linear-gradient-5" x1="1763.69" y1="685.9" x2="1908.69" y2="830.9"
                        xlink:href="#linear-gradient"></linearGradient>
                    <linearGradient id="linear-gradient-6" x1="454.85" y1="14.95" x2="755.95" y2="316.05"
                        xlink:href="#linear-gradient"></linearGradient>
                    <linearGradient id="linear-gradient-7" x1="21.11" y1="289.35" x2="376" y2="644.24"
                        xlink:href="#linear-gradient"></linearGradient>
                    <linearGradient id="linear-gradient-8" x1="19.25" y1="572.01" x2="101.95" y2="654.7"
                        xlink:href="#linear-gradient"></linearGradient>
                    <linearGradient id="linear-gradient-9" x1="246.38" y1="74.12" x2="469.25" y2="296.99"
                        xlink:href="#linear-gradient"></linearGradient>
                    <linearGradient id="linear-gradient-10" x1="376.86" y1="76.5" x2="452.45" y2="152.09"
                        xlink:href="#linear-gradient"></linearGradient>
                    <linearGradient id="linear-gradient-11" x1="289.55" y1="72.27" x2="337.94" y2="120.66"
                        xlink:href="#linear-gradient"></linearGradient>
                    <linearGradient id="linear-gradient-12" x1="207.18" y1="69.42" x2="246.44" y2="108.67"
                        xlink:href="#linear-gradient"></linearGradient>
                    <linearGradient id="linear-gradient-13" x1="17.52" y1="551.88" x2="55.51" y2="589.87"
                        xlink:href="#linear-gradient"></linearGradient>
                    <linearGradient id="linear-gradient-14" x1="-34.85" y1="382.65" x2="227.25" y2="644.75"
                        xlink:href="#linear-gradient"></linearGradient>
                    <linearGradient id="linear-gradient-15" x1="179.37" y1="659.47" x2="190.38" y2="670.49"
                        gradientTransform="translate(668.32 172.38) rotate(60)" xlink:href="#linear-gradient">
                    </linearGradient>
                </defs>
                <title>test</title>
                <path class="cls-1 KGYgwIHt_0"
                    d="M1920.88,628.14c-10.81-7.31-21.58-14.7-32.45-21.92-13.3-8.82-26.64-17.57-40.1-26.12a7.93,7.93,0,0,0-6.13-.8q-86.51,32.39-172.85,65.22c-5,1.91-8.74,1.4-12.88-1.45-16.85-11.59-33.85-23-50.64-34.65-3.69-2.57-5.75-2.52-8.1,1.59-3.28,5.73-7.21,11.08-10.8,16.64-1.65,2.56-3.54,3.28-6.21,1.46q-19.14-13-38.32-26c-2.93-2-3.33-3.71-1-7.05,11.09-15.76,21.71-31.84,32.56-47.77q28.55-41.89,57.16-83.75c2.39-3.51,4.64-7.13,6.76-10.81,2.35-4.07,4.87-4.27,8.67-1.55,9.22,6.59,18.69,12.82,28.08,19.18,2.85,1.93,5.85,3.67,8.61,5.72,2.25,1.67,3.62,3.24,1.17,6.47-5,6.63-9.17,13.94-14.13,20.64-3.08,4.15-2.68,6,1.86,9C1689,523,1705.53,534.45,1722,545.89c3.42,2.37,6.17,2.33,10,.85,24.89-9.65,49.92-19,74.89-28.43,24.81-9.4,49.58-18.91,74.43-28.21,9.12-3.41,18.35-6.55,27.67-9.31,1.9-.56,4.5,1,6.69,1.81a52.79,52.79,0,0,1,5.17,2.56v11c-3.08-2.17-6.28-4.18-9.2-6.55-3.07-2.48-6.09-2.67-9.54-1-4.36,2.17-8.7,4.42-13.23,6.17-8.36,3.22-16.89,6-25.28,9.15q-63.17,23.72-126.31,47.52c-16.26,6.09-11,6.53-25.51-3.12-15.11-10.06-30-20.42-45.14-30.46-1.35-.9-4.76-1.2-5.3-0.43-7.46,10.62-14.58,21.48-21.8,32.27-1.48,2.21-.68,3.37,1.4,4.76,17.15,11.49,34.29,23,51.24,34.8,3.43,2.38,6.21,2.66,10,1.2,57.13-21.74,114.33-43.29,171.45-65.06,5.18-2,10-2,14.14,1.19,7.07,5.54,15.84,8.32,22.38,14.77,2.75,2.72,7.05,3.86,10.65,5.72v14c-1.69-1-3.45-1.9-5-3-10-7.07-19.76-14.39-29.88-21.23-5-3.37-10-4.91-16.72-2.32-52.82,20.31-105.87,40-158.83,60-18.49,7-15.14,6.9-31.12-3.87q-21.33-14.37-42.6-28.82c-1.71-1.16-3.47-3.25-5.42-.35q-11.56,17.17-23.08,34.37c-1.62,2.41-1.31,3.87,1.32,5.62,17,11.34,34,22.78,50.82,34.47,3.64,2.53,6.72,2.61,10.62,1.14q86.57-32.82,173.18-65.54c3.5-1.33,6.42-1.21,9.33,1,5.64,4.19,11.13,8.59,16.9,12.59q16,11.08,32.23,21.77c6,3.94,12.21,7.51,18.32,11.25v10Z"
                    transform="translate(0.4 -60.03)"></path>
                <path class="cls-2 KGYgwIHt_1"
                    d="M1840.9,1141l9.91-4.79c-1.34-1.13-2.32-2.11-3.46-2.88-19.42-13.19-38.93-26.25-58.23-39.62-3.74-2.59-6.89-2.94-11-1.36-35.67,13.63-71.42,27-107.08,40.69a11.24,11.24,0,0,1-11.24-1.27q-59.05-40-118.11-80.1c-1.59-1.08-3.1-2.3-5.12-3.8a15.58,15.58,0,0,0-.8,3.28q0.72,42.7,1.51,85.39c0,1.49-.16,3-0.24,4.47h-6c-0.53-20.39-1.16-40.78-1.54-61.17-0.22-11.53,0-23.07,0-35.21-2.36.88-4.33,1.58-6.27,2.35-7,2.76-13.7-2.4-12.41-10.88,1.42-9.26,6.09-14.73,14.8-17.29,2.87-.85,8.75,1.94,9.48,4.94,0.61,2.53,1.51,5.45.79,7.73-1.34,4.25.47,5.77,3.71,7.91,15.13,10,30,20.33,45,30.5q36.49,24.72,73,49.38a14.56,14.56,0,0,1,1.85,1.67c5.61,5.42,11.49,5.62,18.74,2.66,19.28-7.87,38.87-15,58.34-22.39,14.3-5.42,28.64-10.73,42.9-16.27a4.66,4.66,0,0,0,2.44-3.48c-0.16-14.1-.52-28.2-1-42.29a4.59,4.59,0,0,0-1.88-3c-10-7-20-13.92-30.21-20.56a8.1,8.1,0,0,0-6.31-.56c-21.45,7.86-42.81,16-64.2,24-1.37.52-2.73,1.09-4.15,1.47-4.11,1.09-6.72,2.54-7.68,7.79-1.25,6.79-8.19,11.32-13.58,10.83-3.75-.34-5.5-2.17-5.91-5.91-1-8.73,3.67-14,10-16.58a3.34,3.34,0,0,1,1.86-.49c9.29,3,16.79-2.77,24.7-5.49,17.54-6,34.76-13,52.1-19.6a26.56,26.56,0,0,0,3.32-2c-4.09-2.8-7.63-5.24-11.2-7.66-15.47-10.48-30.89-21-46.49-31.3a8.42,8.42,0,0,0-6.59-.71c-22.41,8.3-44.73,16.86-67.07,25.34-3.51,1.33-7.19,2.32-10.51,4-1.7.87-2.79,3-4.12,4.52-3.86,4.53-5.41,11.06-11.63,13.56-8.61,3.47-15.66-1.76-14.18-11a20.5,20.5,0,0,1,10.79-15.06c3.94-2.15,7.9-2.41,11.93.6a7.67,7.67,0,0,0,6.18,1.06c24.12-8.89,48.16-18,72.2-27.14a27.8,27.8,0,0,0,3.45-2c-12.29-8.32-24-16.24-35.73-24.2-8.06-5.48-16.07-11-24.14-16.52-2.4-1.63-4.25-2.35-7.77-.82-11.66,5.07-23.83,9-35.76,13.45-15,5.61-30,11.11-44.84,17.16-2.67,1.09-4.59,4.45-6.42,7.06-6,8.53-11.81,17.2-18.11,26.42-5.53-3.6-10.9-6.92-16-10.62-0.7-.51-0.66-3.26,0-4.31q10.41-15.72,21.28-31.12c0.59-.83,2.67-0.63,4.06-0.82a1.93,1.93,0,0,1,.73.64c7,6.16,13.78,6.8,22.94,2.93,21.56-9.11,43.82-16.57,65.78-24.73a26.65,26.65,0,0,0,3.56-2.12l-26.19-17.9q-32.71-22.34-65.42-44.67c-12.74-8.67-25.57-17.19-38.3-25.87-2.63-1.79-5-2.35-8.16-1.13-6.23,2.38-9.9-.67-10.26-7.41-0.5-9.33,7.56-15.07,13.7-14.55,3.69,0.31,6.78,2.59,6.12,5.71-1.9,9,4.23,12.37,10,16.25q33.3,22.49,66.63,44.93c11.65,7.82,23.46,15.41,35,23.32,12.54,8.56,24.83,17.49,37.37,26.05,11.73,8,23.71,15.63,35.47,23.6,18,12.19,35.88,24.53,53.82,36.8q28.51,19.49,57,38.94c5.27,3.58,10.78,6.83,16,10.55a7.05,7.05,0,0,1,2.7,4.73c0.54,14.1.94,28.2,1,42.31,0,4.87,2,7.73,6,10.36,14.74,9.67,29.23,19.73,43.8,29.65,6.61,4.5,13,9.31,19.9,13.4a10.53,10.53,0,0,0,7.89.5c18.55-6.52,37-13.38,55.45-20.14v6c-14.22,5.49-28.46,10.93-42.67,16.48-6.15,2.4-12.21,5-18.31,7.52h-19ZM1533,1031.28c0-5.22-2.05-8.07-6-8.16-6.69-.16-12.58,5.78-12.37,12.93,0.1,3.41.44,7.37,5.27,7.61C1526.58,1044,1532.94,1037.84,1533,1031.28Zm56-29.57c-0.47-3.56.74-8.47-5.23-8.19-7.88.37-13.65,8.63-11.39,16.25,0.46,1.56,2.49,3.73,3.83,3.76A12.32,12.32,0,0,0,1589,1001.71Z"
                    transform="translate(0.4 -60.03)"></path>
                <path class="cls-3 KGYgwIHt_2"
                    d="M1920.88,904.08c-7-4.48-14-8.82-20.87-13.46q-37.33-25.25-74.54-50.68a37.53,37.53,0,0,1-5.43-4.24c-6.25-6.22-13-5.47-20.56-2.51-21.93,8.59-44.07,16.66-66,25.27-2.9,1.14-5.57,3.88-7.41,6.52-12.09,17.39-23.92,35-35.86,52.47-4.54,6.66-4.52,6.55-11.38,1.93-10-6.74-20.18-13.28-30.2-20q-41-27.62-82-55.35c-3.38-2.29-7.13-4.26-9.91-7.14a13.29,13.29,0,0,1-3.57-8.09c-0.67-25.91-.94-51.83-1.4-77.75-0.14-8-.22-16-0.93-23.9-0.19-2.12-2.21-4.66-4.1-6-20.22-13.82-40.59-27.42-60.9-41.1-1.23-.83-2.3-1.88-3.75-1.76-1.64-.22-3.29-0.41-4.93-0.69a4.74,4.74,0,0,1-.64-0.73c-12.13-7.49-9.89-5.9-2.13-17.44,3.42-5.09,3.85-5.12-1-8.74-2.45-1.82-2.88-2.13-1.14-3.76a2.26,2.26,0,0,1,2.84-.23l5.47,3.79c3.41-4.91,6.53-9.86,10.12-14.44,3.19-4.06,4.65-7.28-1.37-10-0.59-.27-0.81-1.35-1-2.47a1.62,1.62,0,0,1,1.28-1.93,0.37,0.37,0,0,1,.27,0c7.43,4.83,7.41,4.82,12.25-2.58,2.33-3.55,4.86-7,7-10.64,0.55-.93.43-3.34-0.17-3.69-4.71-2.69-2.72-4.76-.79-7a2.58,2.58,0,0,1,3.26-.57l4.07,2.35c2-3,3.83-5.86,5.66-8.7a15.16,15.16,0,0,1,1-1.7c1.69-2,3.94-1.2,11.37,4.19,1.68,1.22,3.76,2.45,1.77,5.2-2.29,3.15-4.32,6.48-6.69,10.07,12.58,8.55,24.77,16.85,37,25.13,9.6,6.51,19.36,12.81,28.75,19.6a10.09,10.09,0,0,1,3.61,7q1.33,50.84,2.06,101.7a8.48,8.48,0,0,0,4.14,7.67q35.54,24,71,48c15.94,10.83,31.87,21.68,47.62,32.77,4,2.8,7.52,3,11.89,1.36,21.22-8.17,42.51-16.16,63.77-24.22,18.67-7.07,37.4-14,56-21.29,5.38-2.11,9.72-1.06,14.27,1.94q24.24,16,48.68,31.7a14.64,14.64,0,0,0,3.6,1.17v13a12.41,12.41,0,0,1-2.19-1c-18.78-12.88-37.58-25.71-56.26-38.74-3.39-2.36-6.21-2.55-10.33-.4a93.51,93.51,0,0,1-19.41,7.69c-5.16,1.36-7.2,2.4-12.4,4.56l100.58,67.83v10ZM1487.12,669.57c4.28,3,8,5.74,11.76,8.3q24.61,16.61,49.26,33.15c5.82,3.93,10.43,8.26,9.19,16.53-0.77,5.18.2,10.61,0.3,15.93q0.73,39.92,1.43,79.85c0.05,3,.14,5.55,3.29,7.67q59.42,39.94,118.51,80.36c4.61,3.17,6.13,2,8.7-1.86,9.8-14.87,19.73-29.66,30-44.22,2.55-3.62,2.43-5.32-1.24-7.75-15-9.91-29.8-20.06-44.67-30.13q-37-25-73.94-50c-3.89-2.62-6.14-5.65-6-10.62,0.17-6.64-.3-13.3-0.42-19.95-0.46-26.64-.8-53.28-1.45-79.91-0.06-2.63-1.13-6.34-3-7.67-21.3-14.8-42.86-29.23-64.75-44Z"
                    transform="translate(0.4 -60.03)"></path>
                <path class="cls-4 KGYgwIHt_3"
                    d="M1354.06,1141q12.64-18.9,25.3-37.79,11.61-17.25,23.34-34.42c6.13-9,12.13-18.17,18.6-27,0.83-1.13,4.6-1.3,6.2-.43,4.57,2.49,8.72,5.74,13.54,9-4.78,7.14-9.36,14.39-14.37,21.33-5.3,7.35-5.42,7.19,1.82,12,15.46,10.32,30.89,20.68,46.21,31.2,1.27,0.87,2.1,3.1,2.23,4.76,0.55,7.06.76,14.15,1.09,21.22h-7c0-5.62.09-11.25-.18-16.87a5.89,5.89,0,0,0-2.15-4.05c-16.82-11.54-33.73-22.93-51.09-34.68l-27.13,40c1.14,0.77,1.81,1.2,2.45,1.67L1412,1141h-13l-13-9.2-6,9.2h-26Z"
                    transform="translate(0.4 -60.03)"></path>
                <path class="cls-5 KGYgwIHt_4"
                    d="M1920.88,816.1c-3.44-1.72-7-3.21-10.28-5.23-2-1.24-3.31-3.55-5.27-4.91-8.19-5.67-16.58-11-24.74-16.73-11.77-8.21-23.3-16.77-35.13-24.89q-35.79-24.59-71.84-48.78c-1.4-.94-3.74-0.76-5.62-0.64-3.45.23-7.39,2.08-10.22,1-5.85-2.29-7.59-7.61-5.4-13.87,2.49-7.11,7.34-12.08,14.88-13.9a8.12,8.12,0,0,1,9.62,7.84c-0.09,3.05-1.16,6.07-1.27,9.13a5.39,5.39,0,0,0,1.95,4q25.35,17.47,50.9,34.66c18.35,12.32,36.9,24.35,55.19,36.77,11.82,8,23.33,16.53,35,24.79a8.79,8.79,0,0,0,2.24.8v10ZM1773.54,700.54c0-5.17-2-8.24-5.21-8.13-7.64.24-13.9,8.77-11.53,16.1,0.5,1.54,2.33,3.46,3.82,3.73C1766.47,713.28,1773.53,706.64,1773.54,700.54Z"
                    transform="translate(0.4 -60.03)"></path>
                <path class="cls-6 KGYgwIHt_5"
                    d="M507.23,192.46c6-1.15,9.25,2.12,12.85,4.89a6.1,6.1,0,0,1,1.29,8.38l-5.08,7.13a5.68,5.68,0,0,1-8.09,1.2c-2.18-1.67-4.27-3.24-6.48-4.61-2.75-1.71-3-3.09-.8-5.33,2.85-2.88,3.52-5.66,1.7-9.94-9.36-22.09-18.21-44.4-27.21-66.64-2.82-7-5.89-13.83-8.25-20.94-2.22-6.68-6.69-10.92-12.34-14.67-7.48-5-14.57-10.5-21.83-15.79l-1,.77c2.62,6.78,5.15,13.59,7.88,20.33,9.86,24.27,19.71,48.55,29.79,72.73,1,2.52,3.9,4.22,5.34,6.64,1.75,2.95,4.17,6.39,3.87,9.37-0.21,2.17-4.42,5.57-6.76,5.5a13,13,0,0,1-9.18-4.87c-1.48-2.15-1.19-6.95.3-9.33,1.73-2.75,2.26-4.51,1.05-7.48-7.45-18.28-14.65-36.66-22.07-55-5.42-13.35-11.14-26.57-16.54-39.92a20.51,20.51,0,0,0-9-10.63c-1.05-.6-2-1.45-4.09-3h6.15q115,0,229.92.06c2.47,0,6.17-1.61,6.65,2.94,0.26,2.45.64,6.86-.11,7.11-3,1-8,2.19-9.53.64-4.94-5-10.7-3.9-16.32-3.92q-28.45-.11-56.9.21c-22.74.23-45.48,0.64-68.22,1q-32.61.49-65.22,1c-1.39,0-2.78.3-5.77,0.64,5.72,4.36,10.13,7.88,14.71,11.18q49.35,35.54,98.75,71c6,4.31,11.91,8.76,18,12.91a9.3,9.3,0,0,0,5.06,1.18c15.76-.17,31.52-0.57,47.28-0.69,22.39-.18,44.79-0.08,67.18-0.28q30.89-.29,61.77-1.1c1.64,0,3.74-1.61,4.74-3.08,2.5-3.67,6.16-5,10.54-3.24,4.58,1.87,8.1,7.68,6.9,11.4-0.82,2.53-6.64,4.8-9.54,2.6-5.54-4.19-11.18-3-17.3-2.72-12.45.59-24.94,0.08-37.42,0.19-31.91.28-63.82,0.68-95.73,1-11,.1-22,0-33,0l-0.6,1.77c2.77,2.1,5.49,4.27,8.32,6.3Q623,208.07,663,236.8c3.37,2.42,6.61,5,9.87,7.58a21.63,21.63,0,0,0,14.58,5c34.11-.63,68.23-0.76,102.35-1.21,4.38-.06,9.38.47,11.39-5.3,0.27-.78,1.81-1.39,2.85-1.57,5-.89,10.86,2.56,12.23,7.57,0.52,1.9.44,5.37-.64,6-2.29,1.4-6.75,2.9-8,1.77-7.67-6.9-16.71-4.08-25.19-4.3-9.41-.24-18.84.53-28.26,0.73-7.32.15-14.65,0-22,.16-15.59.25-31.18,0.5-46.76,0.91a15.36,15.36,0,0,1-10.39-3.31c-16.22-12.1-32.78-23.73-49.22-35.54Q597.63,195,569.4,174.73q-39.65-28.59-79.23-57.26Q481.59,111.26,473,105l-1,.79Z"
                    transform="translate(0.4 -60.03)"></path>
                <path class="cls-7 KGYgwIHt_6"
                    d="M355.44,547.57c2.54-3.56,4.32-2,7-.07,18,13.16,36.24,26,54.38,39,0.69,0.49,1.36,1,2.06,1.56a3.51,3.51,0,0,1,.67,4.82l-17,23.31a4.26,4.26,0,0,1-5.91,1l-8.2-5.87-2.83,1c-0.78,3.32-3.67,1.7-2.88.06l1.71-3.53c-4.3-3.29-8.51-6.38-12.56-9.66-3.24-2.62-3.87.13-5.21,1.88a1.72,1.72,0,0,1-2.87-.18c-1-1.93,2.6-3.55,1.74-5.92l-15.73-11.32a9.38,9.38,0,0,1-1.67,2.05c-0.26.16-.54,0.32-0.81,0.47a1.57,1.57,0,0,1-2.05-2.24l0,0c1.44-1.91,1.24-2.73-.79-4.2-7.21-5.25-7.1-5.37-2.32-13.1a6.15,6.15,0,0,0,.57-1.83H252.86c4.64,3.51,9.43,6.81,14,10.44,3.38,2.7,6.43,4.34,11.35,3.31,7.32-1.52,12.85,2.77,14.67,9.61s-4.95,13.69-12,11.87c-6.8-1.76-11.58-9.89-9.49-16.49-23.52-16.83-47.15-33.61-70.65-50.59-30.68-22.17-61.24-44.52-91.88-66.75-11.75-8.52-23.64-16.86-35.35-25.44a11.24,11.24,0,0,1-4-5.1q-13.32-41.07-26.27-82.26c-2.19-7-5.7-12.32-12.14-16.37-9.65-6.07-18.76-13-27.86-19.93-1.44-1.09-1.63-3.83-2.4-5.8l1.18-.79c5,3.66,10.07,7.3,15.08,11C25,327.2,33,332.89,40.67,338.95a16.41,16.41,0,0,1,5.46,7.12c6.82,21,13.29,42.08,19.87,63.14,1.65,5.29,3.59,10.52,4.85,15.9,1.85,7.94,6.19,13.4,13,18.16,28.87,20.27,57.33,41.15,86,61.66a12.39,12.39,0,0,0,6.8,2.11c8.62,0,17.24-.53,25.87-0.69,9.33-.17,18.66-0.08,28-0.21,20.79-.29,41.58-0.73,62.37-0.88a12.38,12.38,0,0,1,7.27,2.3C318.45,520.63,336.61,533.9,355.44,547.57ZM181.15,509.94l-0.79,2.27c1.12,0.91,2.17,1.91,3.34,2.75,19.7,14.21,39.37,28.47,59.21,42.49a15.73,15.73,0,0,0,8.59,2.81c30.11-.19,60.22-0.65,90.33-1.07,4.8-.07,7.12-1,9-4.53a5.21,5.21,0,0,0-1.57-6.7c-17-12.25-34.09-24.58-51.27-36.75-1.45-1-3.75-1.22-5.66-1.22Q236.76,509.89,181.15,509.94ZM281,581.25c-4.65-.06-7.45,2.23-7.4,6,0.07,5.24,4.19,9.21,9.7,9.36,4.31,0.12,6.9-2.11,6.94-6C290.33,585.06,286.67,581.33,281,581.25Z"
                    transform="translate(0.4 -60.03)"></path>
                <path class="cls-8 KGYgwIHt_7"
                    d="M67.18,600.74l7.31,5.61c1.57-2.43,3.18-4.68,5.27-3.88a3.06,3.06,0,0,1,1,4.83l0,0a2.49,2.49,0,0,0,.23,3.49c2.33,2,3.87,5.83,8.1.77,0.27-.32,1.11-0.16,2.21.15a2.88,2.88,0,0,1,1.5,4.51l-1.12,1.47c2.37,2.4,4.46,6,8,1,0.2-.28,1.07-0.08,2.24.27a2.37,2.37,0,0,1,1.26,3.63c-2.23,3.18-.16,5,3.72,6.45l1.62-2.16a2.74,2.74,0,0,1,3.1-.95c3.9,1.39,3.54,2.22-.06,6.63,3.28,2.38,3.68,4.77.35,7.82a30,30,0,0,0-5.36,7.56c-1.81,3.21-3.78,4.87-7.41,1.74-1.54,3.21-3.31,5.35-5.84,3.51a2.94,2.94,0,0,1-.63-4.07l1.7-2.38c-2.21-2.23-4-6.93-7.59-.71-0.34.59-2.81,0.81-3.28,0.29a6.44,6.44,0,0,1-1.51-4.1,1.7,1.7,0,0,1,.6-1.06,2.4,2.4,0,0,0,0-3.32c-2.11-2.21-3-2-6.32.8a3,3,0,0,1-4.29-.45c-0.93-1.35,0-2.79,1.27-4.32a2.3,2.3,0,0,0-.46-3.42l-4.44-2.94a1.44,1.44,0,0,0-1.73.11c-1.36,1.15-4.31,3-5.33,2.42-3.34-1.81-1.55-3.77.47-5.82a1,1,0,0,0-.1-1.48l-5.07-4a1.83,1.83,0,0,0-2.08-.13,30.49,30.49,0,0,1-4,1.93,1.41,1.41,0,0,1-1.93-1.48L49,615a2.14,2.14,0,0,0-.71-1.89c-2.09-1.79-4.68-5.89-8.29.58-0.18.33-2.11,0.24-2.55-.26a6.39,6.39,0,0,1-1.86-3.71,4.61,4.61,0,0,1,.86-2.27,2.59,2.59,0,0,0-.29-3.14c-2.29-2.42-7.48-3.33-4.43-8.26a1,1,0,0,0-.82-1.5H2.43c-1.46-2.94-1.43-4.36,2-4.45,8.62-.21,17.24-1,25.85-0.82,4.11,0.09,7.4-.42,9.41-3.5a3.46,3.46,0,0,1,4.53-1.23,20.63,20.63,0,0,1,2.17,1.3c2.1,1.48,3.77,4.07,6.23.08a0.84,0.84,0,0,1,.72-0.24,3.44,3.44,0,0,1,2.58,5.67l-0.46.55,7.22,5.68,1.84-2.49A3,3,0,0,1,69,594.7C70.59,596.22,69.71,598.25,67.18,600.74Z"
                    transform="translate(0.4 -60.03)"></path>
                <path class="cls-9 KGYgwIHt_8"
                    d="M270.85,100.1l-9.58-38.59H268c2.43,10,4.9,20.19,7.45,30.4,1,4,1.63,8,5.67,10.76,5,3.47,5,6.77,2.28,12.31a10.92,10.92,0,0,0-.68,6.63c1.26,5.88,3.49,11.57,4.46,17.48a13.88,13.88,0,0,0,6.15,9.52q43.33,31.29,86.69,62.53,38.75,27.91,77.61,55.69a9.29,9.29,0,0,0,6,1.31c9.56-1.17,15.15,2.68,16.93,10.77a7.4,7.4,0,0,1-3.35,8.35c-3,1.6-7.62,2.32-10.7,1.17-5.57-2.1-8.51-7-8.18-13.39a5.06,5.06,0,0,0-1.85-3.71c-25.22-18.2-50.58-36.22-75.79-54.43-24.58-17.75-49-35.7-73.54-53.51-6.86-5-14-9.63-20.69-14.78a14.6,14.6,0,0,1-4.9-6.71c-2.09-6.66-3.34-13.59-5.24-20.32a10.91,10.91,0,0,0-3.4-5.45C264.76,109.87,264.37,107.18,270.85,100.1ZM477.2,279.52c0-5.05-3.26-8.25-8.47-8.26-4.37,0-7.17,2.26-7.13,5.81a8.41,8.41,0,0,0,8.45,8.68C474.57,285.88,477.19,283.6,477.2,279.52Z"
                    transform="translate(0.4 -60.03)"></path>
                <path class="cls-10 KGYgwIHt_9"
                    d="M428.42,147.49L393.53,61.72c3.59-1.33,5.46-.12,6.88,3.47Q415.82,104,431.64,142.6a22.76,22.76,0,0,0,6.21,7.95c3.62,3.16,5.2,8.73,2.65,12-2.42,3.12-8.59,3.65-12.22,1C422.12,159.2,422.09,154.23,428.42,147.49Z"
                    transform="translate(0.4 -60.03)"></path>
                <path class="cls-11 KGYgwIHt_10"
                    d="M315.73,114.25L302.49,61.61h6.7c3.37,13.46,6.77,27.14,10.22,40.81a80.65,80.65,0,0,0,2.6,8.88,9.68,9.68,0,0,0,2.89,4.06c5.32,4.14,6.9,9.1,3.86,13s-9.33,3.86-14.06-.3c-4.37-3.84-4.22-8.13.42-13.06A7.39,7.39,0,0,0,315.73,114.25Z"
                    transform="translate(0.4 -60.03)"></path>
                <path class="cls-12 KGYgwIHt_11"
                    d="M217.44,61.45H224c2.55,10.1,5.18,20.29,7.69,30.51,1.15,4.69,2.8,8.59,7.2,11.64,4.63,3.2,3,10.24-2.42,12.82-3.57,1.7-6.59.74-9.43-1.93s-6-6.24-3.36-9.56c4.39-5.58,1.85-10.67.65-15.91C222.29,79.87,219.82,70.81,217.44,61.45Z"
                    transform="translate(0.4 -60.03)"></path>
                <path class="cls-13 KGYgwIHt_12"
                    d="M2,573.31c-1.74-5.38,1.29-5.84,4.74-5.86q20.66-.16,41.33-0.29c2.7,0,5.61.42,5.44-3.73a1.47,1.47,0,0,1,.37-0.87c1.87-2.31,8.56-1.78,12.33,1s5.47,7.87,3.32,10.74c-2.76,3.68-6.8,4.16-9.92,1.33-4.49-4.07-9.57-3.62-14.75-3.61-10.3,0-20.6,0-30.89.23C10.11,572.28,6.21,572.91,2,573.31Z"
                    transform="translate(0.4 -60.03)"></path>
                <path class="cls-14 KGYgwIHt_13"
                    d="M223.65,595.42q-38-27.4-76.11-54.72Q102.21,508,57.05,475.06a20.25,20.25,0,0,1-7-8.91c-5.85-16.87-11.19-33.92-16.57-51s-10.57-34.35-16-51.47c-0.91-2.86-2.28-5.95-4.37-8-3.25-3.13-7.31-5.43-11-8.08l-1.08.78c0.95,1.52,1.59,3.41,2.9,4.49,4.21,3.49,8.33,6.35,10,12.51,3.91,14.61,9.21,28.85,13.63,43.33,5.2,17,10.08,34.13,15.07,51.2,2.34,8,5.63,14.86,13.15,20,25.77,17.73,51.1,36.1,76.41,54.49,5.72,4.16,12.58,7.34,14.16,15.81,1.4,7.51,4,14.82,6.37,22.13q12.29,38.35,24.79,76.64c1,3.19,1.21,5.61-1.57,8.38-3.35,3.34-1.92,9.86,2,12.41a10.15,10.15,0,0,1,1,.7l2.61,2.19a10.25,10.25,0,0,0,9.57,2.06,6.9,6.9,0,0,0,3.9-2.69c2-3.38.31-9.52-3.42-12.1l-0.15-.15a13.43,13.43,0,0,0-1.84-1.54,21.46,21.46,0,0,1-8.33-12.24c-5.12-17.6-11-35-16.56-52.46q-7-22.06-13.93-44.15l1.08-.77c2.87,2.13,5.72,4.28,8.62,6.37q29.74,21.49,59.54,42.89l5.62,4a2.34,2.34,0,0,1,.55,3.27q-1,1.42-2,2.85c-0.5.74-.27,2.89,0.37,3.36q9.09,6.59,18.52,12.71c0.85,0.55,3.13.42,3.64-.25,2.86-3.75,5.54-7.65,8.33-11.69a3.6,3.6,0,0,0-.86-5l-17.37-12.46a2.45,2.45,0,0,0-3.4.53l-1.53,2.07a3,3,0,0,1-4.06.71Z"
                    transform="translate(0.4 -60.03)"></path>
                <path class="cls-15 KGYgwIHt_14" transform="translate(-483.05 432.56) rotate(-60)"
                    d="M180.20000000000002,664.98A4.67,6.92 0,1,1 189.54,664.98A4.67,6.92 0,1,1 180.20000000000002,664.98">
                </path>
                <style data-made-with="vivus-instant">
                    .KGYgwIHt_0 {
                        stroke-dasharray: 2384 2386;
                        stroke-dashoffset: 2385;
                        animation: KGYgwIHt_draw 4666ms linear 0ms forwards;
                    }

                    .KGYgwIHt_1 {
                        stroke-dasharray: 2953 2955;
                        stroke-dashoffset: 2954;
                        animation: KGYgwIHt_draw 4666ms linear 166ms forwards;
                    }

                    .KGYgwIHt_2 {
                        stroke-dasharray: 2476 2478;
                        stroke-dashoffset: 2477;
                        animation: KGYgwIHt_draw 4666ms linear 333ms forwards;
                    }

                    .KGYgwIHt_3 {
                        stroke-dasharray: 498 500;
                        stroke-dashoffset: 499;
                        animation: KGYgwIHt_draw 4666ms linear 500ms forwards;
                    }

                    .KGYgwIHt_4 {
                        stroke-dasharray: 503 505;
                        stroke-dashoffset: 504;
                        animation: KGYgwIHt_draw 4666ms linear 666ms forwards;
                    }

                    .KGYgwIHt_5 {
                        stroke-dasharray: 2302 2304;
                        stroke-dashoffset: 2303;
                        animation: KGYgwIHt_draw 4666ms linear 833ms forwards;
                    }

                    .KGYgwIHt_6 {
                        stroke-dasharray: 1702 1704;
                        stroke-dashoffset: 1703;
                        animation: KGYgwIHt_draw 4666ms linear 1000ms forwards;
                    }

                    .KGYgwIHt_7 {
                        stroke-dasharray: 378 380;
                        stroke-dashoffset: 379;
                        animation: KGYgwIHt_draw 4666ms linear 1166ms forwards;
                    }

                    .KGYgwIHt_8 {
                        stroke-dasharray: 728 730;
                        stroke-dashoffset: 729;
                        animation: KGYgwIHt_draw 4666ms linear 1333ms forwards;
                    }

                    .KGYgwIHt_9 {
                        stroke-dasharray: 242 244;
                        stroke-dashoffset: 243;
                        animation: KGYgwIHt_draw 4666ms linear 1500ms forwards;
                    }

                    .KGYgwIHt_10 {
                        stroke-dasharray: 165 167;
                        stroke-dashoffset: 166;
                        animation: KGYgwIHt_draw 4666ms linear 1666ms forwards;
                    }

                    .KGYgwIHt_11 {
                        stroke-dasharray: 135 137;
                        stroke-dashoffset: 136;
                        animation: KGYgwIHt_draw 4666ms linear 1833ms forwards;
                    }

                    .KGYgwIHt_12 {
                        stroke-dasharray: 156 158;
                        stroke-dashoffset: 157;
                        animation: KGYgwIHt_draw 4666ms linear 2000ms forwards;
                    }

                    .KGYgwIHt_13 {
                        stroke-dasharray: 1076 1078;
                        stroke-dashoffset: 1077;
                        animation: KGYgwIHt_draw 4666ms linear 2166ms forwards;
                    }

                    .KGYgwIHt_14 {
                        stroke-dasharray: 37 39;
                        stroke-dashoffset: 38;
                        animation: KGYgwIHt_draw 4666ms linear 2333ms forwards;
                    }

                    @keyframes KGYgwIHt_draw {
                        100% {
                            stroke-dashoffset: 0;
                        }
                    }

                    @keyframes KGYgwIHt_fade {
                        0% {
                            stroke-opacity: 1;
                        }

                        96.42857142857143% {
                            stroke-opacity: 1;
                        }

                        100% {
                            stroke-opacity: 0;
                        }
                    }
                </style>
            </svg>