<svg width="132" height="124" viewBox="0 0 132 124" fill="none" xmlns="http://www.w3.org/2000/svg">
<style>
#stroke-linije {

    stroke-width: 2px;
    stroke: #B65656;
    /* stroke-miterlimit="10"; */
    fill: transparent;
    stroke-dasharray: 629, 20;
    stroke-dashoffset: 0;
    transition: all 3s ease-in-out;


}


a svg:hover #stroke-linije {

    stroke-dasharray: 629, 20;
    stroke-dashoffset: 629;


}


@keyframes linija {
    0% {
        stroke-dashoffset: 0;
    }

    100% {
        stroke-dashoffset: 629;
    }
}</style>

<path id="stroke-linije" d="M116.102 77.3236C111.457 73.0986 104.617 69.9456 95.713 67.7385C89.7123 66.2881 85.0666 64.5855 81.7759 62.6937C81.6468 62.6306 81.6469 62.5045 81.6469 62.3784L90.6156 38.92C90.6156 38.8569 90.7447 38.7939 90.8092 38.7939C91.3254 38.7939 91.8415 38.7308 92.3577 38.7308C98.4875 38.7308 103.198 40.4334 106.488 43.4603C109.715 46.4241 111.328 50.6492 111.392 55.2526C111.392 55.3787 111.521 55.5048 111.65 55.5048H122.168C122.297 55.5048 122.361 55.4417 122.426 55.3156L122.49 54.9373C122.49 54.9373 122.49 54.9373 122.49 54.8742C122.684 48.316 120.038 42.4514 114.554 37.4696C109.456 32.8662 102.681 30.6591 94.358 30.3438C94.2289 30.3438 94.0999 30.2177 94.1644 30.0285L102.294 8.96645C102.359 8.84033 102.23 8.65115 102.101 8.65115H90.1639C90.0349 8.65115 89.9704 8.71421 89.9704 8.77727L81.9049 31.4158C81.9049 31.4789 81.8404 31.542 81.7759 31.542C77.84 32.614 74.3557 34.1905 71.4522 36.5237C69.2584 38.2894 67.5162 40.1181 66.2258 42.1991C66.1612 42.3252 65.9031 42.3252 65.8386 42.1991C64.5481 40.1181 62.806 38.2263 60.6767 36.4607C57.7087 34.0644 54.2244 32.4879 50.2885 31.4158C50.224 31.4158 50.1594 31.3528 50.1594 31.2897L42.0295 8.84033C42.0295 8.77727 41.9004 8.71421 41.8359 8.71421H29.8346C29.7055 8.71421 29.5765 8.84033 29.641 9.02951L37.6419 29.9655C37.7064 30.0916 37.5774 30.2808 37.4483 30.2808C29.1248 30.5961 22.4144 32.9924 17.317 37.5957C11.8325 42.5144 9.18707 48.4421 9.38064 55.0003C9.38064 55.0003 9.38064 55.0003 9.38064 55.0634L9.44516 55.3156C9.44516 55.4417 9.57421 55.5048 9.63873 55.5048H20.2206C20.3496 55.5048 20.4787 55.3787 20.4787 55.2526C20.5432 49.451 22.1563 46.4872 25.3824 43.5234C28.6731 40.5596 33.3833 38.92 39.5131 38.92C40.0293 38.92 40.4809 38.92 40.9971 38.92C41.1262 38.92 41.1907 38.9831 41.1907 39.0461L50.1594 62.6306C50.1594 62.7567 50.1594 62.8198 50.0304 62.9459C46.7397 64.7746 42.094 66.4142 36.1579 67.9276C27.2536 70.0717 20.4141 73.2877 15.7685 77.5128C11.1228 81.6747 8.79993 86.9087 8.79993 93.1517C8.79993 99.836 11.5744 105.196 17.188 109.295C22.8015 113.331 30.0927 115.349 39.1259 115.349C47.5785 115.349 55.0632 113.079 61.5801 108.601C63.1932 107.466 64.6127 106.268 65.8386 104.944C65.9031 104.818 66.0967 104.818 66.1612 104.944C67.3872 106.268 68.7422 107.466 70.4198 108.538C76.9366 113.016 84.4214 115.223 92.8739 115.223C101.907 115.223 109.198 113.142 114.812 109.106C120.425 105.07 123.2 99.6469 123.2 92.9625C123.135 86.7826 120.813 81.5486 116.102 77.3236Z"  stroke-miterlimit="10"/>
<path id="stroke -sredina" d="M77.0012 44.9107L74.7428 51.2798C74.9364 48.8835 75.6462 46.8025 77.0012 44.9107ZM68.5486 65.9728C69.0003 66.4773 69.1938 67.1709 69.0003 67.7385L68.0969 70.5131L66.2258 77.1344C66.2258 77.2605 66.0967 77.2605 66.0322 77.2605C65.9031 77.2605 65.8386 77.1975 65.8386 77.1344L63.9674 70.7023L63.0641 68.0538C62.806 67.3601 62.9996 66.5404 63.5158 65.9728C64.8708 64.5224 67.1291 64.4593 68.5486 65.9728ZM57.1925 51.6581L54.8696 44.9738C56.2246 46.8656 57.0634 49.0727 57.1925 51.6581ZM53.9663 102.358C49.9659 105.133 44.9976 106.52 39.1259 106.52C33.3188 106.52 28.7377 105.322 25.3824 102.989C22.0272 100.593 20.2851 97.3767 20.2851 93.2778C20.2851 89.4942 21.7691 86.3412 24.6727 83.8188C27.5762 81.2964 32.7381 79.1523 40.1583 77.3867C45.3847 76.1885 49.9013 74.612 53.7727 72.7202C53.9018 72.6571 54.0308 72.7202 54.0954 72.8463L60.7413 90.1879C60.6767 95.4218 57.9668 99.5838 53.9663 102.358ZM106.553 102.8C103.198 105.196 98.552 106.331 92.8094 106.331C86.9378 106.331 81.9695 105.196 77.969 102.422C72.8717 98.764 70.5488 94.8543 71.1295 90.8815C71.1295 90.6293 71.2586 90.377 71.3231 90.1248L77.84 72.8463C77.9045 72.7202 78.0335 72.6571 78.1626 72.7202C82.034 74.612 86.6152 76.0624 91.8415 77.2605C99.2617 79.0262 104.424 81.1072 107.327 83.6296C110.231 86.152 111.715 89.305 111.715 93.0886C111.65 97.2506 109.973 100.467 106.553 102.8Z" stroke="#B65656" stroke-width="2" stroke-miterlimit="10"/>

</svg>
