<svg width="214" height="184" viewBox="0 0 214 184" fill="none" xmlns="http://www.w3.org/2000/svg">
<g id="Group">
<g id="Group_2">
<path id="Vector" d="M204.103 142.305H9.89672C5.5272 142.305 2 139.348 2 135.783V8.52175C2 4.95652 5.57984 2 9.89672 2H204.103C208.473 2 212 4.95652 212 8.52175V135.783C212 139.348 208.473 142.305 204.103 142.305Z" stroke="#B65656" stroke-width="4" stroke-miterlimit="10"/>
<path id="Vector_2" d="M137.876 142.304H76.1765V167.087H137.876V142.304Z" stroke="#B65656" stroke-width="3" stroke-miterlimit="10"/>
<path id="Vector_3" d="M172.464 182H41.5889C38.9566 182 36.8508 180.261 36.8508 178.087V171C36.8508 168.826 38.9566 167.087 41.5889 167.087H172.464C175.096 167.087 177.202 168.826 177.202 171V178.087C177.202 180.261 175.096 182 172.464 182Z" stroke="#B65656" stroke-width="3" stroke-miterlimit="10"/>
<path id="Vector_4" d="M42.3786 16.9565H12.2658C11.0549 16.9565 10.0547 16.1305 10.0547 15.1305V11.7827C10.0547 10.7827 11.0549 9.95667 12.2658 9.95667H42.326C43.5368 9.95667 44.537 10.7827 44.537 11.7827V15.1305C44.5897 16.1305 43.5894 16.9565 42.3786 16.9565Z" stroke="#B65656" stroke-width="3" stroke-miterlimit="10"/>
<path id="Vector_5" d="M85.9684 16.9565H55.9082C54.6974 16.9565 53.6971 16.1305 53.6971 15.1305V11.7827C53.6971 10.7827 54.6974 9.95667 55.9082 9.95667H85.9684C87.1792 9.95667 88.1795 10.7827 88.1795 11.7827V15.1305C88.1795 16.1305 87.1792 16.9565 85.9684 16.9565Z" stroke="#B65656" stroke-width="3" stroke-miterlimit="10"/>
<path id="Vector_6" d="M199.734 16.9565H169.674C168.463 16.9565 167.463 16.1305 167.463 15.1305V11.7827C167.463 10.7827 168.463 9.95667 169.674 9.95667H199.734C200.945 9.95667 201.945 10.7827 201.945 11.7827V15.1305C201.945 16.1305 200.945 16.9565 199.734 16.9565Z" stroke="#B65656" stroke-width="3" stroke-miterlimit="10"/>
<path id="Vector_7" d="M2 116.565H212" stroke="#B65656" stroke-width="4" stroke-miterlimit="10"/>
</g>
<path id="Vector_8" d="M85.7052 98.6086V69.2173C85.7052 66.9999 88.4954 65.6956 90.7591 66.8695L94.6548 68.9999V36.6522C94.6548 34.913 93.1808 33.5217 91.075 33.5217H68.9642C66.8585 33.5217 65.1738 34.8696 65.1738 36.6522V99.3912C65.1738 101.13 66.8058 102.652 68.9642 102.652H89.7062C87.3899 102.217 85.7052 100.609 85.7052 98.6086Z" stroke="#B65656" stroke-width="3" stroke-miterlimit="10"/>
<path id="Vector_9" d="M97.2344 91.5218V83.1305C97.2344 82.5218 98.0767 82.1305 98.7084 82.4784L114.765 90.9566C115.713 91.4783 115.291 92.6957 114.133 92.6957H98.6031C97.8135 92.6522 97.2344 92.1305 97.2344 91.5218Z" stroke="#B65656" stroke-width="3" stroke-miterlimit="10"/>
<path id="Vector_10" d="M85.4946 98.6957V69.3043C85.4946 67.0869 88.4427 65.7826 90.6538 66.9565L146.826 96.6087C150.142 98.3914 148.668 102.652 144.72 102.652L90.3379 102.696C87.6531 102.696 85.4946 100.913 85.4946 98.6957Z" stroke="#B65656" stroke-width="3" stroke-miterlimit="10"/>
<g id="Group_3">
<g id="Group_4">
<path id="Vector_11" d="M65.1738 40.0435C67.7008 40.0435 70.2803 40.0435 72.8073 40.0435C73.8075 40.0435 73.8075 38.739 72.8073 38.739C70.2803 38.739 67.7008 38.739 65.1738 38.739C64.1209 38.739 64.1209 40.0435 65.1738 40.0435Z" fill="#B65656"/>
</g>
</g>
<g id="Group_5">
<g id="Group_6">
<path id="Vector_12" d="M65.1738 59.174C67.7008 59.174 70.2803 59.174 72.8073 59.174C73.8075 59.174 73.8075 57.8695 72.8073 57.8695C70.2803 57.8695 67.7008 57.8695 65.1738 57.8695C64.1209 57.8695 64.1209 59.174 65.1738 59.174Z" fill="#B65656"/>
</g>
</g>
<g id="Group_7">
<g id="Group_8">
<path id="Vector_13" d="M65.1738 54.348C66.7531 54.348 68.2798 54.348 69.8592 54.348C70.8594 54.348 70.8594 53.0435 69.8592 53.0435C68.2798 53.0435 66.7531 53.0435 65.1738 53.0435C64.1209 53.0435 64.1209 54.348 65.1738 54.348Z" fill="#B65656"/>
</g>
</g>
<g id="Group_9">
<g id="Group_10">
<path id="Vector_14" d="M65.1738 49.5652C66.7531 49.5652 68.2798 49.5652 69.8592 49.5652C70.8594 49.5652 70.8594 48.261 69.8592 48.261C68.2798 48.261 66.7531 48.261 65.1738 48.261C64.1209 48.261 64.1209 49.5652 65.1738 49.5652Z" fill="#B65656"/>
</g>
</g>
<g id="Group_11">
<g id="Group_12">
<path id="Vector_15" d="M65.1738 44.913C66.7531 44.913 68.2798 44.913 69.8592 44.913C70.8594 44.913 70.8594 43.6088 69.8592 43.6088C68.2798 43.6088 66.7531 43.6088 65.1738 43.6088C64.1209 43.6088 64.1209 44.913 65.1738 44.913Z" fill="#B65656"/>
</g>
</g>
<g id="Group_13">
<g id="Group_14">
<path id="Vector_16" d="M65.1738 78.2609C67.7008 78.2609 70.2803 78.2609 72.8073 78.2609C73.8075 78.2609 73.8075 76.9568 72.8073 76.9568C70.2803 76.9568 67.7008 76.9568 65.1738 76.9568C64.1209 76.9568 64.1209 78.2609 65.1738 78.2609Z" fill="#B65656"/>
</g>
</g>
<g id="Group_15">
<g id="Group_16">
<path id="Vector_17" d="M65.1738 73.4347C66.7531 73.4347 68.2798 73.4347 69.8592 73.4347C70.8594 73.4347 70.8594 72.1306 69.8592 72.1306C68.2798 72.1306 66.7531 72.1306 65.1738 72.1306C64.1209 72.1306 64.1209 73.4347 65.1738 73.4347Z" fill="#B65656"/>
</g>
</g>
<g id="Group_17">
<g id="Group_18">
<path id="Vector_18" d="M65.1738 68.6521C66.7531 68.6521 68.2798 68.6521 69.8592 68.6521C70.8594 68.6521 70.8594 67.3478 69.8592 67.3478C68.2798 67.3478 66.7531 67.3478 65.1738 67.3478C64.1209 67.3478 64.1209 68.6521 65.1738 68.6521Z" fill="#B65656"/>
</g>
</g>
<g id="Group_19">
<g id="Group_20">
<path id="Vector_19" d="M65.1738 63.9999C66.7531 63.9999 68.2798 63.9999 69.8592 63.9999C70.8594 63.9999 70.8594 62.6956 69.8592 62.6956C68.2798 62.6956 66.7531 62.6956 65.1738 62.6956C64.1209 62.6956 64.1209 63.9999 65.1738 63.9999Z" fill="#B65656"/>
</g>
</g>
<g id="Group_21">
<g id="Group_22">
<path id="Vector_20" d="M65.1738 97.2608C67.7008 97.2608 70.2803 97.2608 72.8073 97.2608C73.8075 97.2608 73.8075 95.9567 72.8073 95.9567C70.2803 95.9567 67.7008 95.9567 65.1738 95.9567C64.1209 95.9567 64.1209 97.2608 65.1738 97.2608Z" fill="#B65656"/>
</g>
</g>
<g id="Group_23">
<g id="Group_24">
<path id="Vector_21" d="M65.1738 92.4349C66.7531 92.4349 68.2798 92.4349 69.8592 92.4349C70.8594 92.4349 70.8594 91.1307 69.8592 91.1307C68.2798 91.1307 66.7531 91.1307 65.1738 91.1307C64.1209 91.1307 64.1209 92.4349 65.1738 92.4349Z" fill="#B65656"/>
</g>
</g>
<g id="Group_25">
<g id="Group_26">
<path id="Vector_22" d="M65.1738 87.6523C66.7531 87.6523 68.2798 87.6523 69.8592 87.6523C70.8594 87.6523 70.8594 86.3479 69.8592 86.3479C68.2798 86.3479 66.7531 86.3479 65.1738 86.3479C64.1209 86.3479 64.1209 87.6523 65.1738 87.6523Z" fill="#B65656"/>
</g>
</g>
<g id="Group_27">
<g id="Group_28">
<path id="Vector_23" d="M65.1738 82.9564C66.7531 82.9564 68.2798 82.9564 69.8592 82.9564C70.8594 82.9564 70.8594 81.6526 69.8592 81.6526C68.2798 81.6526 66.7531 81.6526 65.1738 81.6526C64.1209 81.6526 64.1209 82.9564 65.1738 82.9564Z" fill="#B65656"/>
</g>
</g>
<g id="Group_29">
<g id="Group_30">
<path id="Vector_24" d="M89.1797 60.8262C89.1797 55.7827 89.1797 50.7392 89.1797 45.6957C89.1797 44.8696 87.6003 44.8696 87.6003 45.6957C87.6003 50.7392 87.6003 55.7827 87.6003 60.8262C87.6003 61.6958 89.1797 61.6958 89.1797 60.8262Z" fill="#B65656"/>
</g>
</g>
<g id="Group_31">
<g id="Group_32">
<path id="Vector_25" d="M89.1797 42.2174C89.1797 40.9131 89.1797 39.6522 89.1797 38.3478C89.1797 37.5217 87.6003 37.5217 87.6003 38.3478C87.6003 39.6522 87.6003 40.9131 87.6003 42.2174C87.6003 43.0435 89.1797 43.0435 89.1797 42.2174Z" fill="#B65656"/>
</g>
</g>
<g id="Group_33">
<g id="Group_34">
<path id="Vector_26" d="M83.6522 38.9566C85.2315 38.9566 86.7582 38.9566 88.3375 38.9566C89.3378 38.9566 89.3378 37.6522 88.3375 37.6522C86.7582 37.6522 85.2315 37.6522 83.6522 37.6522C82.6519 37.6522 82.6519 38.9566 83.6522 38.9566Z" fill="#B65656"/>
</g>
</g>
<g id="Group_35">
<g id="Group_36">
<path id="Vector_27" d="M93.4441 102.652C93.4441 100.565 93.4441 98.4349 93.4441 96.348C93.4441 95.5219 91.8647 95.5219 91.8647 96.348C91.8647 98.4349 91.8647 100.565 91.8647 102.652C91.8647 103.478 93.4441 103.478 93.4441 102.652Z" fill="#B65656"/>
</g>
</g>
<g id="Group_37">
<g id="Group_38">
<path id="Vector_28" d="M116.608 102.652C116.608 100.565 116.608 98.4349 116.608 96.348C116.608 95.5219 115.028 95.5219 115.028 96.348C115.028 98.4349 115.028 100.565 115.028 102.652C115.028 103.478 116.608 103.478 116.608 102.652Z" fill="#B65656"/>
</g>
</g>
<g id="Group_39">
<g id="Group_40">
<path id="Vector_29" d="M110.764 102.652C110.764 101.348 110.764 100.087 110.764 98.7827C110.764 97.9566 109.185 97.9566 109.185 98.7827C109.185 100.087 109.185 101.348 109.185 102.652C109.185 103.478 110.764 103.478 110.764 102.652Z" fill="#B65656"/>
</g>
</g>
<g id="Group_41">
<g id="Group_42">
<path id="Vector_30" d="M104.973 102.652C104.973 101.348 104.973 100.087 104.973 98.7827C104.973 97.9566 103.394 97.9566 103.394 98.7827C103.394 100.087 103.394 101.348 103.394 102.652C103.394 103.478 104.973 103.478 104.973 102.652Z" fill="#B65656"/>
</g>
</g>
<g id="Group_43">
<g id="Group_44">
<path id="Vector_31" d="M99.2876 102.652C99.2876 101.348 99.2876 100.087 99.2876 98.7827C99.2876 97.9566 97.7083 97.9566 97.7083 98.7827C97.7083 100.087 97.7083 101.348 97.7083 102.652C97.7083 103.478 99.2876 103.478 99.2876 102.652Z" fill="#B65656"/>
</g>
</g>
<g id="Group_45">
<g id="Group_46">
<path id="Vector_32" d="M139.719 102.652C139.719 100.565 139.719 98.4349 139.719 96.348C139.719 95.5219 138.139 95.5219 138.139 96.348C138.139 98.4349 138.139 100.565 138.139 102.652C138.139 103.478 139.719 103.478 139.719 102.652Z" fill="#B65656"/>
</g>
</g>
<g id="Group_47">
<g id="Group_48">
<path id="Vector_33" d="M133.875 102.652C133.875 101.348 133.875 100.087 133.875 98.7827C133.875 97.9566 132.296 97.9566 132.296 98.7827C132.296 100.087 132.296 101.348 132.296 102.652C132.296 103.478 133.875 103.478 133.875 102.652Z" fill="#B65656"/>
</g>
</g>
<g id="Group_49">
<g id="Group_50">
<path id="Vector_34" d="M128.084 102.652C128.084 101.348 128.084 100.087 128.084 98.7827C128.084 97.9566 126.505 97.9566 126.505 98.7827C126.505 100.087 126.505 101.348 126.505 102.652C126.505 103.478 128.084 103.478 128.084 102.652Z" fill="#B65656"/>
</g>
</g>
<g id="Group_51">
<g id="Group_52">
<path id="Vector_35" d="M122.451 102.652C122.451 101.348 122.451 100.087 122.451 98.7827C122.451 97.9566 120.872 97.9566 120.872 98.7827C120.872 100.087 120.872 101.348 120.872 102.652C120.872 103.478 122.451 103.478 122.451 102.652Z" fill="#B65656"/>
</g>
</g>
</g>
</svg>
