<svg width="214" height="184" viewBox="0 0 214 184" fill="none" xmlns="http://www.w3.org/2000/svg">
<g id="Group">
<path id="Vector" d="M103.138 161.651H64.5638V137.688H103.183" stroke="#B65656" stroke-width="3" stroke-miterlimit="10"/>
<path id="Vector_2" d="M105.001 176.106C106.319 176.106 38.984 176.106 38.984 176.106C34.7586 176.106 31.351 172.879 31.351 168.878C31.351 164.877 34.7586 161.651 38.984 161.651H103.138C102.457 168.448 103.502 176.106 105.001 176.106Z" stroke="#B65656" stroke-width="3" stroke-miterlimit="10"/>
<path id="Vector_3" d="M35.9852 16.4549H10.7235C9.67845 16.4549 8.81519 15.6375 8.81519 14.6481V11.5076C8.81519 10.5182 9.67845 9.70081 10.7235 9.70081H35.9852C37.0302 9.70081 37.8935 10.5182 37.8935 11.5076V14.6481C37.9389 15.6375 37.0757 16.4549 35.9852 16.4549Z" stroke="#B65656" stroke-width="3" stroke-miterlimit="10"/>
<path id="Vector_4" d="M72.7876 16.4549H47.5258C46.4808 16.4549 45.6176 15.6375 45.6176 14.6481V11.5076C45.6176 10.5182 46.4808 9.70081 47.5258 9.70081H72.7876C73.8326 9.70081 74.6959 10.5182 74.6959 11.5076V14.6481C74.6959 15.6375 73.8326 16.4549 72.7876 16.4549Z" stroke="#B65656" stroke-width="3" stroke-miterlimit="10"/>
<path id="Vector_5" d="M168.792 16.4549H143.53C142.485 16.4549 141.621 15.6375 141.621 14.6481V11.5076C141.621 10.5182 142.485 9.70081 143.53 9.70081H168.792C169.837 9.70081 170.7 10.5182 170.7 11.5076V14.6481C170.7 15.6375 169.837 16.4549 168.792 16.4549Z" stroke="#B65656" stroke-width="3" stroke-miterlimit="10"/>
<path id="Vector_6" d="M60.1567 67.1337L88.4172 40.3315" stroke="#B65656" stroke-width="3" stroke-miterlimit="10"/>
<path id="Vector_7" d="M92.8698 56.7226L113.588 37.1052" stroke="#B65656" stroke-width="3" stroke-miterlimit="10"/>
<path id="Vector_8" d="M66.6084 92.4298L86.8723 73.2427" stroke="#B65656" stroke-width="3" stroke-miterlimit="10"/>
<path id="Vector_9" d="M2 112.779H103.229V66.3593C102.865 56.4215 107.909 51.0439 119.313 51.1299L179.196 51.345V14.0028C179.196 7.42064 173.471 2 166.52 2H14.6763C7.7248 2 2 7.42064 2 14.0028V125.685C2 132.31 7.7248 137.688 14.6763 137.688H103.138V161.651" stroke="#B65656" stroke-width="4" stroke-miterlimit="10"/>
<path id="Vector_10" d="M205.185 182H164.839C161.067 182 158.023 179.075 158.023 175.547V92.6022C158.023 89.0315 161.113 86.149 164.839 86.149H205.185C208.956 86.149 212 89.0745 212 92.6022V175.547C212 179.075 208.91 182 205.185 182Z" stroke="#B65656" stroke-width="4" stroke-miterlimit="10"/>
<path id="Vector_11" d="M103.183 71.4359H190.782" stroke="#B65656" stroke-width="4" stroke-miterlimit="10"/>
<path id="Vector_12" d="M103.229 165.91H210.228" stroke="#B65656" stroke-width="4" stroke-miterlimit="10"/>
<path id="Vector_13" d="M156.751 101.077H210.228" stroke="#B65656" stroke-width="4" stroke-miterlimit="10"/>
<path id="Vector_14" d="M130.49 122.889L145.302 109.079" stroke="#B65656" stroke-width="4" stroke-miterlimit="10"/>
<path id="Vector_15" d="M131.353 144.872L142.757 134.074" stroke="#B65656" stroke-width="4" stroke-miterlimit="10"/>
<path id="Vector_16" d="M148.936 119.06L152.48 139.495" stroke="#B65656" stroke-width="4" stroke-miterlimit="10"/>
<path id="Vector_17" d="M154.979 63.8211H142.121C141.621 63.8211 141.213 63.4339 141.213 62.9607V61.4981C141.213 61.0249 141.621 60.6377 142.121 60.6377H154.979C155.479 60.6377 155.888 61.0249 155.888 61.4981V62.9607C155.888 63.4339 155.479 63.8211 154.979 63.8211Z" stroke="#B65656" stroke-width="3" stroke-miterlimit="10"/>
<path id="Vector_18" d="M187.193 95.5274H182.831C182.331 95.5274 181.922 95.1402 181.922 94.667V93.2044C181.922 92.7312 182.331 92.344 182.831 92.344H187.193C187.692 92.344 188.101 92.7312 188.101 93.2044V94.667C188.101 95.1402 187.692 95.5274 187.193 95.5274Z" stroke="#B65656" stroke-width="3" stroke-miterlimit="10"/>
<path id="Vector_19" d="M151.072 176.837C153.104 176.837 154.752 175.277 154.752 173.352C154.752 171.428 153.104 169.868 151.072 169.868C149.039 169.868 147.392 171.428 147.392 173.352C147.392 175.277 149.039 176.837 151.072 176.837Z" stroke="#B65656" stroke-width="2" stroke-miterlimit="10"/>
<path id="Vector_20" d="M185.012 176.837C187.044 176.837 188.692 175.277 188.692 173.352C188.692 171.428 187.044 169.868 185.012 169.868C182.979 169.868 181.332 171.428 181.332 173.352C181.332 175.277 182.979 176.837 185.012 176.837Z" stroke="#B65656" stroke-width="2" stroke-miterlimit="10"/>
<path id="Vector_21" d="M178.106 182H115.905C108.908 182 103.229 176.579 103.229 169.997V63.305C103.229 56.6797 108.954 51.3021 115.905 51.3021H178.106C185.103 51.3021 190.782 56.7228 190.782 63.305V86.1491" stroke="#B65656" stroke-width="4" stroke-miterlimit="10"/>
<path id="Vector_22" d="M170.7 129.256L182.058 116.651" stroke="#B65656" stroke-width="2" stroke-miterlimit="10"/>
<path id="Vector_23" d="M179.196 151.498L190.782 146.895" stroke="#B65656" stroke-width="2" stroke-miterlimit="10"/>
<path id="Vector_24" d="M180.604 129.643L195.553 133.945" stroke="#B65656" stroke-width="2" stroke-miterlimit="10"/>
</g>
</svg>
