<svg width="43" height="31" viewBox="0 0 43 31" fill="none" xmlns="http://www.w3.org/2000/svg">
<g id="up 1">
<g clip-path="url(#clip0)">
<path id="Vector" d="M39.15 30.22C39.7494 30.222 40.3374 30.0555 40.8468 29.7396C41.3563 29.4237 41.7668 28.9711 42.0315 28.4333C42.2963 27.8954 42.4046 27.2941 42.3442 26.6977C42.2838 26.1013 42.0572 25.5338 41.69 25.06L23.99 1.72C23.6914 1.32824 23.3064 1.01071 22.8649 0.792132C22.4235 0.573556 21.9376 0.459839 21.445 0.459839C20.9524 0.459839 20.4665 0.573556 20.025 0.792132C19.5836 1.01071 19.1986 1.32824 18.9 1.72L1.14999 25.06C0.791558 25.534 0.572209 26.0985 0.516522 26.6902C0.460836 27.2818 0.571013 27.8773 0.834708 28.4099C1.0984 28.9425 1.5052 29.3911 2.0095 29.7055C2.51381 30.0199 3.09571 30.1877 3.68999 30.19V30.19C4.18172 30.1892 4.66665 30.0752 5.10716 29.8567C5.54766 29.6382 5.93188 29.3211 6.22999 28.93L18.86 12.33C19.1586 11.9382 19.5436 11.6207 19.985 11.4021C20.4265 11.1836 20.9124 11.0698 21.405 11.0698C21.8976 11.0698 22.3835 11.1836 22.8249 11.4021C23.2664 11.6207 23.6514 11.9382 23.95 12.33L36.6 28.96C36.8991 29.3524 37.2849 29.6703 37.7273 29.8889C38.1697 30.1075 38.6566 30.2208 39.15 30.22Z" stroke="#B65656" stroke-miterlimit="10"/>
</g>
</g>
<defs>
<clipPath id="clip0">
<rect width="42.87" height="30.72" fill="white"/>
</clipPath>
</defs>
</svg>
