<svg width="941" height="689" viewBox="0 0 941 689" fill="none" xmlns="http://www.w3.org/2000/svg">
<g id="undraw_operating_system_4lr6 1">
<path id="senka" opacity="0.1" d="M538.15 688.96C595.99 688.96 642.88 678.96 642.88 666.6C642.88 654.24 596.03 644.24 538.15 644.24C480.27 644.24 433.42 654.24 433.42 666.6C433.42 678.96 480.31 688.96 538.15 688.96Z" fill="#6C63FF"/>
<path id="pozadina" opacity="0.1" d="M914.86 583.96C894.05 601.21 864.44 608.35 835.81 612.86L830.99 613.59C780.94 621.06 729.88 622.59 679.06 624.08C537.32 628.27 395.21 632.46 253.84 622.79C191.32 618.52 127.26 611.04 72.46 585.47L71.03 584.83C70.32 584.5 69.61 584.16 68.9 583.83C59.167 579.185 49.8438 573.725 41.03 567.51C25.38 556.36 12.46 542.74 5.63001 526.59C-5.06999 501.26 0.630012 472.78 12.81 448.02C24.99 423.26 43.42 400.96 59.27 377.62C63.92 370.79 68.33 363.7 72.43 356.43C98.03 310.85 110.78 258.11 83.9 214.18C80.3546 208.582 76.5263 203.168 72.43 197.96C65.88 189.42 59.21 180.88 54.71 171.43C44.21 149.43 46.46 124.69 50.29 101.18C55.41 69.96 64.86 36.27 94.19 16.74C124.67 -3.54001 167.94 -2.51001 205.77 4.73999C264.59 16 318.88 39.59 373.68 60.85C428.48 82.11 485.92 101.49 546.18 103.57C599.38 105.42 661.45 91.57 696.78 55.67C731.08 20.83 795.56 18.19 842.03 39.26C886.39 59.36 915.03 101.91 912.96 144.41C910.26 197.41 866.02 239.92 830.96 285.07C825.14 292.58 819.57 300.17 814.48 307.89C797.88 333.11 786.15 363.4 797.58 390.63C803.99 405.88 816.22 417.51 830.96 427.63C863.96 450.37 909.58 465.63 930.09 497.52C947.81 525.02 941.27 562.09 914.86 583.96Z" fill="#6C63FF"/>
<path id="Vector 44" d="M838.778 425.61V611.61C788.728 619.08 737.668 620.61 686.848 622.1C545.108 626.29 261.628 625.82 261.628 625.82C261.628 625.82 135.048 614.07 80.2475 588.5V354.35C80.4575 196.35 79.5975 354.35 80.2475 195.87V139C80.2475 135.817 81.5118 132.765 83.7622 130.515C86.0127 128.264 89.0649 127 92.2475 127H826.688C829.87 127 832.922 128.264 835.173 130.515C837.423 132.765 838.688 135.817 838.688 139V283C839.248 425.23 838.398 283.46 838.778 425.61Z" fill="#3F3D56"/>
<path id="Vector 45" opacity="0.3" d="M604.87 185.96H298.58C297.397 185.96 296.263 186.43 295.426 187.266C294.59 188.103 294.12 189.237 294.12 190.42V205.86C294.12 207.043 294.59 208.177 295.426 209.014C296.263 209.85 297.397 210.32 298.58 210.32H604.87C606.053 210.32 607.187 209.85 608.024 209.014C608.86 208.177 609.33 207.043 609.33 205.86V190.39C609.322 189.212 608.849 188.086 608.013 187.256C607.178 186.426 606.048 185.96 604.87 185.96Z" fill="#6C63FF"/>
<path id="Vector 46" d="M587.91 199.14H587.39L587.19 198.98C587.837 198.198 588.191 197.215 588.19 196.2C588.18 195.367 587.924 194.555 587.453 193.867C586.983 193.179 586.319 192.646 585.546 192.335C584.773 192.024 583.925 191.949 583.109 192.119C582.293 192.289 581.546 192.697 580.962 193.291C580.377 193.885 579.982 194.639 579.825 195.457C579.669 196.276 579.758 197.122 580.082 197.89C580.406 198.658 580.95 199.313 581.645 199.772C582.341 200.231 583.157 200.474 583.99 200.47C585.002 200.469 585.981 200.115 586.76 199.47L586.95 199.63V200.13L590.21 203.39L591.21 202.39L587.91 199.14ZM584.01 199.14C583.428 199.142 582.859 198.971 582.374 198.649C581.889 198.328 581.511 197.869 581.287 197.332C581.063 196.795 581.003 196.204 581.115 195.633C581.228 195.062 581.507 194.537 581.918 194.125C582.328 193.712 582.852 193.431 583.423 193.317C583.993 193.203 584.585 193.261 585.123 193.483C585.661 193.705 586.12 194.082 586.444 194.566C586.767 195.049 586.94 195.618 586.94 196.2C586.943 196.584 586.869 196.965 586.724 197.321C586.58 197.677 586.366 198.001 586.095 198.274C585.825 198.547 585.503 198.764 585.149 198.913C584.795 199.062 584.414 199.139 584.03 199.14H584.01Z" fill="#444053"/>
<path id="Vector 47" opacity="0.7" d="M215.6 421.18H194.73C193.598 421.18 192.511 421.63 191.711 422.431C190.91 423.231 190.46 424.318 190.46 425.45V427.07C190.46 428.202 190.91 429.289 191.711 430.089C192.511 430.89 193.598 431.34 194.73 431.34H215.6C216.733 431.34 217.819 430.89 218.619 430.089C219.42 429.289 219.87 428.202 219.87 427.07V425.45C219.87 424.318 219.42 423.231 218.619 422.431C217.819 421.63 216.733 421.18 215.6 421.18V421.18Z" fill="#3F3D56"/>
<path id="Vector 48" opacity="0.3" d="M231.94 446.59H194.73C193.598 446.59 192.511 447.04 191.711 447.841C190.91 448.641 190.46 449.728 190.46 450.86V452.48C190.46 453.612 190.91 454.699 191.711 455.499C192.511 456.3 193.598 456.75 194.73 456.75H231.94C233.073 456.75 234.159 456.3 234.959 455.499C235.76 454.699 236.21 453.612 236.21 452.48V450.86C236.21 449.728 235.76 448.641 234.959 447.841C234.159 447.04 233.073 446.59 231.94 446.59V446.59Z" fill="#6C63FF"/>
<path id="Vector 49" opacity="0.3" d="M277.7 433.89H194.7C194.139 433.89 193.584 434 193.066 434.215C192.548 434.43 192.077 434.744 191.681 435.141C191.284 435.537 190.97 436.008 190.755 436.526C190.54 437.044 190.43 437.599 190.43 438.16V439.78C190.43 440.341 190.54 440.896 190.755 441.414C190.97 441.932 191.284 442.403 191.681 442.799C192.077 443.196 192.548 443.51 193.066 443.725C193.584 443.94 194.139 444.05 194.7 444.05H277.7C278.832 444.05 279.919 443.6 280.719 442.799C281.52 441.999 281.97 440.912 281.97 439.78V438.16C281.97 437.028 281.52 435.941 280.719 435.141C279.919 434.34 278.832 433.89 277.7 433.89V433.89Z" fill="#6C63FF"/>
<path id="Vector 50" d="M140.66 446.27C140.012 446.257 139.367 446.372 138.763 446.61C138.16 446.848 137.61 447.203 137.145 447.655C136.679 448.107 136.309 448.647 136.054 449.244C135.799 449.84 135.665 450.481 135.66 451.13C135.642 451.996 135.285 452.82 134.666 453.425C134.047 454.031 133.216 454.37 132.35 454.37C133.14 455.37 134.143 456.181 135.287 456.743C136.431 457.306 137.686 457.605 138.96 457.62C139.82 457.629 140.674 457.469 141.472 457.148C142.27 456.828 142.997 456.353 143.612 455.751C144.227 455.149 144.717 454.432 145.055 453.641C145.392 452.85 145.571 452 145.58 451.14C145.569 449.843 145.046 448.603 144.124 447.69C143.202 446.778 141.957 446.267 140.66 446.27ZM163.33 431.1L161.11 428.96C160.8 428.657 160.384 428.487 159.95 428.487C159.516 428.487 159.1 428.657 158.79 428.96L143.97 443.48L148.52 447.94L163.32 433.42C163.479 433.272 163.607 433.093 163.694 432.894C163.781 432.695 163.827 432.48 163.828 432.262C163.829 432.045 163.785 431.829 163.699 431.629C163.614 431.43 163.488 431.249 163.33 431.1V431.1Z" fill="#6C63FF"/>
<path id="Vector 51" opacity="0.7" d="M215.6 295.17H194.73C193.598 295.17 192.511 295.62 191.711 296.421C190.91 297.221 190.46 298.308 190.46 299.44V301.06C190.46 302.192 190.91 303.279 191.711 304.079C192.511 304.88 193.598 305.33 194.73 305.33H215.6C216.733 305.33 217.819 304.88 218.619 304.079C219.42 303.279 219.87 302.192 219.87 301.06V299.44C219.87 298.308 219.42 297.221 218.619 296.421C217.819 295.62 216.733 295.17 215.6 295.17V295.17Z" fill="#3F3D56"/>
<path id="Vector 52" opacity="0.3" d="M231.94 320.58H194.73C193.598 320.58 192.511 321.03 191.711 321.831C190.91 322.631 190.46 323.718 190.46 324.85V326.47C190.46 327.602 190.91 328.689 191.711 329.489C192.511 330.29 193.598 330.74 194.73 330.74H231.94C233.073 330.74 234.159 330.29 234.959 329.489C235.76 328.689 236.21 327.602 236.21 326.47V324.85C236.21 323.718 235.76 322.631 234.959 321.831C234.159 321.03 233.073 320.58 231.94 320.58V320.58Z" fill="#6C63FF"/>
<path id="Vector 53" opacity="0.3" d="M277.7 307.87H194.7C193.568 307.87 192.481 308.32 191.681 309.121C190.88 309.921 190.43 311.008 190.43 312.14V313.76C190.43 314.321 190.54 314.876 190.755 315.394C190.97 315.912 191.284 316.383 191.681 316.779C192.077 317.176 192.548 317.49 193.066 317.705C193.584 317.92 194.139 318.03 194.7 318.03H277.7C278.832 318.03 279.919 317.58 280.719 316.779C281.52 315.979 281.97 314.892 281.97 313.76V312.14C281.97 311.008 281.52 309.921 280.719 309.121C279.919 308.32 278.832 307.87 277.7 307.87V307.87Z" fill="#6C63FF"/>
<path id="Vector 54" d="M163.4 322.96L150.4 309.96C151.045 308.282 151.186 306.452 150.806 304.696C150.426 302.939 149.541 301.331 148.26 300.07C146.9 298.723 145.161 297.822 143.276 297.49C141.391 297.158 139.449 297.409 137.71 298.21L143.85 304.38L139.58 308.65L133.32 302.52C132.487 304.26 132.218 306.216 132.55 308.116C132.881 310.016 133.797 311.765 135.17 313.12C136.416 314.404 138.013 315.293 139.761 315.675C141.509 316.058 143.331 315.917 145 315.27L157.95 328.33C158.079 328.466 158.234 328.573 158.406 328.647C158.578 328.721 158.763 328.759 158.95 328.759C159.137 328.759 159.322 328.721 159.494 328.647C159.666 328.573 159.821 328.466 159.95 328.33L163.23 325.03C163.469 324.865 163.646 324.624 163.731 324.347C163.816 324.069 163.805 323.771 163.7 323.5C163.63 323.321 163.52 323.161 163.38 323.03L163.4 322.96Z" fill="#6C63FF"/>
<path id="Vector 55" opacity="0.7" d="M460.65 421.18H439.78C438.648 421.18 437.561 421.63 436.761 422.431C435.96 423.231 435.51 424.318 435.51 425.45V427.07C435.51 428.202 435.96 429.289 436.761 430.089C437.561 430.89 438.648 431.34 439.78 431.34H460.65C461.782 431.34 462.869 430.89 463.669 430.089C464.47 429.289 464.92 428.202 464.92 427.07V425.45C464.92 424.318 464.47 423.231 463.669 422.431C462.869 421.63 461.782 421.18 460.65 421.18V421.18Z" fill="#3F3D56"/>
<path id="Vector 56" opacity="0.3" d="M477.03 446.59H439.78C438.648 446.59 437.561 447.04 436.761 447.841C435.96 448.641 435.51 449.728 435.51 450.86V452.48C435.51 453.612 435.96 454.699 436.761 455.499C437.561 456.3 438.648 456.75 439.78 456.75H477.03C478.162 456.75 479.249 456.3 480.049 455.499C480.85 454.699 481.3 453.612 481.3 452.48V450.86C481.3 449.728 480.85 448.641 480.049 447.841C479.249 447.04 478.162 446.59 477.03 446.59V446.59Z" fill="#6C63FF"/>
<path id="Vector 57" opacity="0.3" d="M522.75 433.89H439.75C438.618 433.89 437.531 434.34 436.731 435.141C435.93 435.941 435.48 437.028 435.48 438.16V439.78C435.48 440.912 435.93 441.999 436.731 442.799C437.531 443.6 438.618 444.05 439.75 444.05H522.75C523.882 444.05 524.969 443.6 525.769 442.799C526.57 441.999 527.02 440.912 527.02 439.78V438.16C527.02 437.028 526.57 435.941 525.769 435.141C524.969 434.34 523.882 433.89 522.75 433.89V433.89Z" fill="#6C63FF"/>
<path id="Vector 58" d="M392.64 449.19C391.352 449.922 389.896 450.307 388.415 450.307C386.934 450.307 385.478 449.922 384.19 449.19C380.88 450.19 378.86 453.54 378.11 456.48H398.72C397.98 453.54 395.96 450.21 392.64 449.19ZM388.42 433.5C386.703 433.502 385.04 434.098 383.714 435.188C382.388 436.278 381.481 437.795 381.148 439.478C380.814 441.162 381.075 442.91 381.885 444.423C382.696 445.936 384.006 447.122 385.592 447.777C387.179 448.433 388.943 448.518 390.586 448.019C392.228 447.519 393.646 446.466 394.599 445.038C395.552 443.61 395.98 441.896 395.81 440.188C395.641 438.48 394.885 436.883 393.67 435.67C392.277 434.28 390.388 433.499 388.42 433.5ZM388.42 445H385.592H383C383 445 383.973 443.213 385 442.5C386.141 441.707 387.026 441.46 388.415 441.5C389.681 441.536 390.46 441.778 391.5 442.5C392.527 443.213 393.5 445 393.5 445L391 445.038L388.42 445Z" fill="#6C63FF"/>
<path id="Vector 59" d="M403.45 445.24C402.367 445.851 401.164 446.22 399.925 446.322C398.685 446.424 397.438 446.256 396.27 445.83C395.733 446.742 395.059 447.565 394.27 448.27C396.002 449.061 397.461 450.349 398.46 451.97H409.46C409.124 450.425 408.394 448.993 407.341 447.814C406.288 446.634 404.947 445.748 403.45 445.24ZM399.23 429.54C397.984 429.541 396.758 429.855 395.664 430.452C394.57 431.05 393.644 431.912 392.97 432.96C394.091 433.61 395.063 434.489 395.821 435.54C396.579 436.592 397.107 437.791 397.37 439.06C397.37 439.06 399.665 439.398 401 440C402.283 440.579 404 442 404 442H402.5C402.5 442 400.113 441.979 399 442C398.392 441.997 397.5 442 397.5 442C397.402 442.603 397.148 443.445 396.94 444.02C397.664 444.252 398.42 444.367 399.18 444.36C401.148 444.36 403.035 443.578 404.427 442.187C405.818 440.795 406.6 438.908 406.6 436.94C406.6 434.972 405.818 433.085 404.427 431.693C403.035 430.302 401.148 429.52 399.18 429.52L399.23 429.54Z" fill="#6C63FF"/>
<path id="Vector 60" opacity="0.7" d="M215.6 515.69H194.73C193.598 515.69 192.511 516.14 191.711 516.941C190.91 517.741 190.46 518.828 190.46 519.96V521.58C190.46 522.712 190.91 523.799 191.711 524.599C192.511 525.4 193.598 525.85 194.73 525.85H215.6C216.733 525.85 217.819 525.4 218.619 524.599C219.42 523.799 219.87 522.712 219.87 521.58V519.96C219.87 518.828 219.42 517.741 218.619 516.941C217.819 516.14 216.733 515.69 215.6 515.69Z" fill="#3F3D56"/>
<path id="Vector 61" opacity="0.3" d="M231.94 541.1H194.73C193.598 541.1 192.511 541.55 191.711 542.351C190.91 543.151 190.46 544.237 190.46 545.37V546.96C190.46 548.092 190.91 549.179 191.711 549.979C192.511 550.78 193.598 551.23 194.73 551.23H231.94C233.073 551.23 234.159 550.78 234.959 549.979C235.76 549.179 236.21 548.092 236.21 546.96V545.34C236.202 544.213 235.749 543.134 234.949 542.34C234.149 541.546 233.067 541.1 231.94 541.1V541.1Z" fill="#6C63FF"/>
<path id="Vector 62" opacity="0.3" d="M277.7 528.4H194.7C194.139 528.4 193.584 528.51 193.066 528.725C192.548 528.94 192.077 529.254 191.681 529.651C191.284 530.047 190.97 530.518 190.755 531.036C190.54 531.554 190.43 532.109 190.43 532.67V534.29C190.43 535.422 190.88 536.509 191.681 537.309C192.481 538.11 193.568 538.56 194.7 538.56H277.7C278.832 538.56 279.919 538.11 280.719 537.309C281.52 536.509 281.97 535.422 281.97 534.29V532.67C281.97 531.538 281.52 530.451 280.719 529.651C279.919 528.85 278.832 528.4 277.7 528.4V528.4Z" fill="#6C63FF"/>
<path id="folder1" d="M139.053 522C138.684 521.995 138.106 522.063 137.763 522.199C137.421 522.336 137.109 522.538 136.845 522.796C136.581 523.053 136.37 523.36 136.226 523.699C136.081 524.038 136.004 524.402 136 524.77V544.95C136.003 545.703 136.303 546.424 136.835 546.956C137.367 547.488 138.088 547.788 138.84 547.79H153.44C153.808 547.784 154.172 547.706 154.51 547.56C155.019 547.342 155.451 546.977 155.752 546.513C156.053 546.048 156.209 545.256 156.2 544.702L153.96 544.682L153.97 544.95C153.978 545.1 153.927 545.247 153.828 545.359C153.729 545.471 153.589 545.54 153.44 545.55H138.84C138.684 545.543 138.537 545.477 138.428 545.366C138.318 545.255 138.255 545.106 138.25 544.95V524.76C138.26 524.613 138.328 524.475 138.438 524.376C138.548 524.277 138.905 524.225 139.053 524.23V522Z" fill="#6C63FF"/>
<path id="folder2" fill-rule="evenodd" clip-rule="evenodd" d="M147.252 522H138.862C138.493 521.995 138.127 522.063 137.785 522.199C137.442 522.336 137.13 522.538 136.866 522.796C136.603 523.053 136.392 523.36 136.247 523.699C136.102 524.038 136.025 524.402 136.022 524.77V525.37V527.6V545.53C135.976 545.84 136.003 546.156 136.102 546.453C136.2 546.75 136.367 547.02 136.589 547.24C136.811 547.461 137.081 547.627 137.379 547.724C137.676 547.821 137.992 547.847 138.302 547.8H150.612L152.852 547.79H153.462C153.83 547.784 154.193 547.706 154.532 547.56C155.04 547.342 155.473 546.977 155.774 546.513C156.075 546.048 156.231 545.504 156.222 544.95V530.95L147.252 522ZM153.102 530.97L147.252 525.13V530.97H153.102ZM153.955 545.168C153.978 545.098 153.987 545.024 153.982 544.95L154.012 544.97V533.24H145.012V524.24H138.862C138.714 524.238 138.571 524.291 138.462 524.39C138.352 524.488 138.284 524.624 138.272 524.77V544.95C138.276 545.106 138.34 545.255 138.449 545.366C138.559 545.477 138.706 545.543 138.862 545.55H153.462C153.535 545.545 153.607 545.526 153.673 545.493C153.739 545.46 153.798 545.414 153.846 545.358C153.895 545.303 153.931 545.238 153.955 545.168Z" fill="#6C63FF"/>
<path id="Vector 64" opacity="0.7" d="M460.65 295.17H439.78C438.648 295.17 437.561 295.62 436.761 296.421C435.96 297.221 435.51 298.308 435.51 299.44V301.06C435.51 302.192 435.96 303.279 436.761 304.079C437.561 304.88 438.648 305.33 439.78 305.33H460.65C461.782 305.33 462.869 304.88 463.669 304.079C464.47 303.279 464.92 302.192 464.92 301.06V299.44C464.92 298.308 464.47 297.221 463.669 296.421C462.869 295.62 461.782 295.17 460.65 295.17V295.17Z" fill="#3F3D56"/>
<path id="Vector 65" opacity="0.3" d="M477.03 320.58H439.78C438.648 320.58 437.561 321.03 436.761 321.831C435.96 322.631 435.51 323.718 435.51 324.85V326.47C435.51 327.602 435.96 328.689 436.761 329.489C437.561 330.29 438.648 330.74 439.78 330.74H477.03C478.162 330.74 479.249 330.29 480.049 329.489C480.85 328.689 481.3 327.602 481.3 326.47V324.85C481.3 323.718 480.85 322.631 480.049 321.831C479.249 321.03 478.162 320.58 477.03 320.58V320.58Z" fill="#6C63FF"/>
<path id="Vector 66" opacity="0.3" d="M522.75 307.87H439.75C438.618 307.87 437.531 308.32 436.731 309.121C435.93 309.921 435.48 311.008 435.48 312.14V313.76C435.48 314.892 435.93 315.979 436.731 316.779C437.531 317.58 438.618 318.03 439.75 318.03H522.75C523.312 318.031 523.868 317.922 524.387 317.708C524.906 317.494 525.378 317.18 525.776 316.783C526.173 316.386 526.489 315.915 526.704 315.396C526.919 314.878 527.03 314.322 527.03 313.76V312.14C527.03 311.578 526.919 311.022 526.704 310.504C526.489 309.985 526.173 309.514 525.776 309.117C525.378 308.72 524.906 308.406 524.387 308.192C523.868 307.978 523.312 307.869 522.75 307.87Z" fill="#6C63FF"/>
<path id="Vector 122" d="M387.73 302.02H378C377.204 302.02 376.441 302.336 375.879 302.899C375.316 303.461 375 304.224 375 305.02V321.46C375 322.256 375.316 323.019 375.879 323.581C376.441 324.144 377.204 324.46 378 324.46H403.43C404.226 324.46 404.989 324.144 405.551 323.581C406.114 323.019 406.43 322.256 406.43 321.46V308.36C406.43 307.564 406.114 306.801 405.551 306.239C404.989 305.676 404.226 305.36 403.43 305.36H390.72L387.72 302L387.73 302.02Z" fill="#5E54FF"/>
<path id="Vector 121" d="M387.73 302.02H378C377.204 302.02 376.441 302.336 375.879 302.899C375.316 303.461 375 304.224 375 305.02V321.46C375 322.256 375.316 323.019 375.879 323.581C376.441 324.144 377.204 324.46 378 324.46H403.43C404.226 324.46 404.989 324.144 405.551 323.581C406.114 323.019 406.43 322.256 406.43 321.46V308.36C406.43 307.564 406.114 306.801 405.551 306.239C404.989 305.676 404.226 305.36 403.43 305.36H390.72L387.72 302L387.73 302.02Z" fill="#6C63FF"/>
<path id="Vector 68" opacity="0.7" d="M702.65 421.18H681.78C680.648 421.18 679.561 421.63 678.761 422.431C677.96 423.231 677.51 424.318 677.51 425.45V427.07C677.51 428.202 677.96 429.289 678.761 430.089C679.561 430.89 680.648 431.34 681.78 431.34H702.65C703.782 431.34 704.869 430.89 705.669 430.089C706.47 429.289 706.92 428.202 706.92 427.07V425.45C706.92 424.318 706.47 423.231 705.669 422.431C704.869 421.63 703.782 421.18 702.65 421.18V421.18Z" fill="#3F3D56"/>
<path id="Vector 69" opacity="0.3" d="M719.03 446.59H681.78C680.648 446.59 679.561 447.04 678.761 447.841C677.96 448.641 677.51 449.728 677.51 450.86V452.48C677.51 453.612 677.96 454.699 678.761 455.499C679.561 456.3 680.648 456.75 681.78 456.75H719.03C720.163 456.75 721.249 456.3 722.049 455.499C722.85 454.699 723.3 453.612 723.3 452.48V450.86C723.3 449.728 722.85 448.641 722.049 447.841C721.249 447.04 720.163 446.59 719.03 446.59V446.59Z" fill="#6C63FF"/>
<path id="Vector 70" opacity="0.3" d="M764.75 433.89H681.75C680.618 433.89 679.531 434.34 678.731 435.141C677.93 435.941 677.48 437.028 677.48 438.16V439.78C677.48 440.912 677.93 441.999 678.731 442.799C679.531 443.6 680.618 444.05 681.75 444.05H764.75C765.882 444.05 766.969 443.6 767.769 442.799C768.57 441.999 769.02 440.912 769.02 439.78V438.16C769.02 437.028 768.57 435.941 767.769 435.141C766.969 434.34 765.882 433.89 764.75 433.89V433.89Z" fill="#6C63FF"/>
<path id="Vector 71" d="M652.03 434.96L646.24 434.69L645.9 430.92C645.874 430.636 645.766 430.367 645.588 430.144C645.41 429.922 645.171 429.757 644.9 429.67C644.712 429.633 644.518 429.633 644.33 429.67L623.59 431.38C623.399 431.39 623.212 431.437 623.04 431.52C622.867 431.602 622.713 431.718 622.586 431.86C622.459 432.003 622.362 432.169 622.3 432.35C622.24 432.53 622.216 432.721 622.23 432.91L623.71 449.44C623.755 449.822 623.95 450.17 624.252 450.408C624.401 450.526 624.573 450.614 624.756 450.665C624.939 450.717 625.131 450.732 625.32 450.71L626.37 450.63L626.21 453.84C626.203 454.051 626.239 454.262 626.314 454.459C626.39 454.657 626.504 454.837 626.65 454.99C626.794 455.143 626.968 455.265 627.16 455.35C627.352 455.436 627.559 455.484 627.77 455.49L650.92 456.58C651.344 456.607 651.762 456.466 652.082 456.187C652.402 455.908 652.599 455.514 652.63 455.09L653.63 436.64C653.64 436.326 653.558 436.016 653.392 435.749C653.227 435.482 652.986 435.27 652.7 435.14C652.493 435.031 652.264 434.97 652.03 434.96V434.96ZM627.14 435.34L626.65 444.78L625.42 446.49L624.25 433.96V433.88C624.271 433.711 624.349 433.554 624.471 433.434C624.592 433.314 624.75 433.239 624.92 433.22L643.22 431.73C643.389 431.714 643.559 431.762 643.695 431.863C643.832 431.965 643.926 432.113 643.96 432.28L644.14 434.43L628.76 433.69C628.547 433.685 628.334 433.722 628.135 433.799C627.936 433.876 627.754 433.992 627.6 434.14C627.444 434.289 627.32 434.467 627.234 434.665C627.148 434.862 627.103 435.075 627.1 435.29L627.14 435.34ZM650.56 451.94L644.56 444.94L641.94 447.35L637.03 441.66L628.42 450.81L629.16 436.86C629.201 436.669 629.309 436.5 629.466 436.384C629.622 436.268 629.816 436.213 630.01 436.23L650.43 437.23C650.617 437.235 650.795 437.31 650.93 437.44C651.064 437.573 651.143 437.751 651.15 437.94L650.56 451.94Z" fill="#6C63FF"/>
<path id="sunce" d="M646.83 443.04C647.354 443.044 647.862 442.866 648.269 442.536C648.676 442.206 648.956 441.745 649.061 441.232C649.165 440.719 649.089 440.186 648.844 439.723C648.599 439.26 648.2 438.897 647.717 438.695C647.234 438.493 646.696 438.465 646.194 438.616C645.693 438.767 645.26 439.088 644.968 439.523C644.677 439.958 644.546 440.481 644.597 441.002C644.648 441.523 644.879 442.01 645.25 442.38C645.669 442.8 646.237 443.037 646.83 443.04Z" fill="#6C63FF"/>
<path id="Vector 73" opacity="0.7" d="M704.68 295.17H683.81C682.678 295.17 681.591 295.62 680.791 296.421C679.99 297.221 679.54 298.308 679.54 299.44V301.06C679.54 302.192 679.99 303.279 680.791 304.079C681.591 304.88 682.678 305.33 683.81 305.33H704.68C705.813 305.33 706.899 304.88 707.699 304.079C708.5 303.279 708.95 302.192 708.95 301.06V299.44C708.95 298.308 708.5 297.221 707.699 296.421C706.899 295.62 705.813 295.17 704.68 295.17V295.17Z" fill="#3F3D56"/>
<path id="Vector 74" opacity="0.3" d="M721.03 320.58H683.81C682.678 320.58 681.591 321.03 680.791 321.831C679.99 322.631 679.54 323.718 679.54 324.85V326.47C679.54 327.602 679.99 328.689 680.791 329.489C681.591 330.29 682.678 330.74 683.81 330.74H721.03C722.163 330.74 723.249 330.29 724.049 329.489C724.85 328.689 725.3 327.602 725.3 326.47V324.85C725.3 323.718 724.85 322.631 724.049 321.831C723.249 321.03 722.163 320.58 721.03 320.58V320.58Z" fill="#6C63FF"/>
<path id="Vector 75" opacity="0.3" d="M766.78 307.87H683.78C682.648 307.87 681.561 308.32 680.761 309.121C679.96 309.921 679.51 311.008 679.51 312.14V313.76C679.51 314.892 679.96 315.979 680.761 316.779C681.561 317.58 682.648 318.03 683.78 318.03H766.78C767.909 318.025 768.99 317.572 769.786 316.772C770.583 315.972 771.03 314.889 771.03 313.76V312.14C771.03 311.011 770.583 309.928 769.786 309.128C768.99 308.327 767.909 307.875 766.78 307.87V307.87Z" fill="#6C63FF"/>
<path id="poruka-tacka" d="M651.67 309.03C652.556 309.028 653.421 308.764 654.156 308.27C654.892 307.777 655.464 307.076 655.802 306.258C656.139 305.439 656.227 304.538 656.053 303.67C655.879 302.801 655.451 302.004 654.824 301.379C654.197 300.753 653.399 300.327 652.53 300.155C651.662 299.983 650.761 300.073 649.943 300.412C649.125 300.751 648.426 301.326 647.934 302.062C647.442 302.799 647.18 303.664 647.18 304.55C647.18 305.139 647.296 305.723 647.522 306.267C647.748 306.811 648.079 307.305 648.496 307.721C648.913 308.138 649.408 308.467 649.953 308.692C650.497 308.916 651.081 309.031 651.67 309.03Z" fill="#6C63FF"/>
<path id="Vector 77" d="M648.23 309.83L639.33 315.76L627.03 307.54V304.54L639.37 312.76L646.46 308.04C645.791 307.03 645.427 305.849 645.411 304.638C645.395 303.427 645.728 302.237 646.37 301.21H626.62C625.824 301.21 625.061 301.526 624.499 302.089C623.936 302.651 623.62 303.414 623.62 304.21V322.9C623.62 323.696 623.936 324.459 624.499 325.021C625.061 325.584 625.824 325.9 626.62 325.9H652.03C652.826 325.9 653.589 325.584 654.151 325.021C654.714 324.459 655.03 323.696 655.03 322.9V309.96C654.006 310.611 652.816 310.953 651.603 310.944C650.389 310.935 649.204 310.576 648.19 309.91L648.23 309.83Z" fill="#6C63FF"/>
<path id="Vector 88" d="M642.65 333.24C642.286 332.502 642.001 331.728 641.8 330.93C641.71 330.02 642.07 328.81 641.26 328.37C640.753 328.283 640.255 328.152 639.77 327.98C639.525 327.699 639.371 327.35 639.33 326.98C639.131 326.263 638.708 325.629 638.124 325.168C637.539 324.708 636.823 324.446 636.08 324.42C636.93 322.11 640.08 321.54 641.46 319.5C642.15 318.5 641.93 316.61 640.71 316.6C640.415 316.61 640.126 316.681 639.86 316.81L635.31 318.69C634.434 319.035 633.579 319.432 632.75 319.88C630.316 321.452 628.25 323.529 626.69 325.97C625.097 328.044 623.826 330.347 622.92 332.8C622.411 334.312 622.141 335.895 622.12 337.49V337.96C621.38 338.09 620.77 338.41 619.99 338.57L618.22 343.24C617.974 344.021 617.569 344.743 617.03 345.36C616.639 345.724 616.221 346.058 615.78 346.36C614.882 347.125 614.186 348.098 613.751 349.195C613.317 350.291 613.159 351.478 613.29 352.65C611.688 353.274 610.382 354.484 609.639 356.034C608.897 357.585 608.772 359.36 609.29 361C607.966 361.29 606.737 361.912 605.718 362.808C604.7 363.704 603.927 364.843 603.47 366.12C603.348 366.71 603.088 367.261 602.71 367.73C602.139 368.17 601.429 368.39 600.71 368.35C598.71 368.48 596.97 370.06 595.16 369.2C593.105 368.239 590.809 367.918 588.57 368.28C588.109 368.39 587.634 368.434 587.16 368.41C586.762 368.322 586.38 368.17 586.03 367.96C585.217 367.493 584.337 367.155 583.42 366.96C582.954 366.866 582.471 366.91 582.03 367.088C581.589 367.266 581.21 367.569 580.94 367.96C580.31 367.27 579.94 366.37 579.36 365.63C579.103 365.235 578.742 364.919 578.317 364.716C577.892 364.513 577.419 364.431 576.95 364.48C577.55 363.94 576.95 362.87 576.16 362.68C575.359 362.612 574.553 362.643 573.76 362.77C571.67 362.77 570.07 360.86 568.04 360.35C566.18 359.9 563.69 360.44 562.73 358.77C562.541 358.177 562.25 357.622 561.87 357.13C561.762 356.676 561.554 356.252 561.26 355.89C560.827 355.504 560.317 355.215 559.763 355.043C559.209 354.871 558.625 354.818 558.05 354.89C556.783 354.926 555.527 355.141 554.32 355.53C554.298 355.365 554.254 355.204 554.19 355.05C553.456 352.911 551.98 351.106 550.03 349.96C548.525 349.073 546.892 348.423 545.19 348.03V347.58C545.165 345.422 545.503 343.276 546.19 341.23C546.26 341.01 546.34 340.79 546.42 340.56C550.302 339.551 553.847 337.531 556.694 334.708C559.542 331.884 561.592 328.356 562.634 324.483C563.677 320.611 563.675 316.531 562.629 312.659C561.583 308.787 559.531 305.261 556.68 302.44C556.675 301.978 556.614 301.518 556.5 301.07C556.251 300.088 555.783 299.175 555.13 298.4C554.13 296.08 552.46 295.05 550.39 294.08C549.79 293.8 549.16 293.52 548.49 293.23C545.18 291.74 541.99 289.56 538.24 289.57C534.82 289.57 531.52 291.46 528.14 291.39H527.33C526.38 291.28 525.24 291.06 524.62 291.78C524.418 292.067 524.257 292.38 524.14 292.71C524.092 292.821 524.035 292.928 523.97 293.03C523.843 293.241 523.696 293.438 523.53 293.62C522.44 294.82 520.6 295.33 519.09 296.13C515.67 297.88 513.43 301.45 512.54 305.19C511.792 308.983 511.822 312.889 512.63 316.67C512.872 318.628 513.722 320.461 515.06 321.91C515.06 321.91 503.64 330.03 505.72 331.18C506.86 331.81 511.59 328.81 515.67 325.95C515.67 326.12 515.75 326.3 515.8 326.47C516.285 328.294 516.907 330.079 517.66 331.81C518.51 333.81 519.74 336.08 521.87 336.67C522.338 336.8 522.825 336.854 523.31 336.83H523.69C523.79 339.955 523.453 343.078 522.69 346.11C521.448 346.05 520.222 346.402 519.2 347.11C518.809 347.492 518.316 347.753 517.78 347.86C517.226 347.792 516.711 347.538 516.32 347.14C514.787 346.037 512.924 345.49 511.038 345.59C509.152 345.69 507.357 346.431 505.95 347.69C501.81 351.59 502.28 359.21 497.41 362.17C496.08 362.98 494.41 363.42 493.58 364.77C493.391 365.206 493.171 365.627 492.92 366.03C492.598 366.392 492.202 366.682 491.76 366.88C490.352 367.512 489.011 368.286 487.76 369.19C487.134 369.648 486.608 370.228 486.213 370.895C485.818 371.561 485.561 372.301 485.46 373.07C485.442 374.193 485.682 375.304 486.16 376.32C486.889 378.106 487.783 379.82 488.83 381.44C488.262 382.174 487.89 383.042 487.75 383.96C487.41 386.36 488.55 388.72 488.68 391.15C488.79 393.27 488.12 395.33 487.74 397.42C486.24 405.57 489.12 413.82 492.01 421.56C492.563 422.828 492.901 424.18 493.01 425.56C493.09 428.12 491.64 430.4 491.24 432.9C490.39 438.14 494.24 443.08 494.34 448.38C494.34 450.83 493.6 453.32 494.22 455.68C494.77 457.217 495.466 458.697 496.3 460.1C497.53 462.71 497.86 465.68 499.04 468.32C500.452 471.192 502.542 473.677 505.13 475.56C506.61 480.25 504.51 485.91 505.13 490.93C505.93 490.61 506.74 490.327 507.56 490.08C507.084 497.542 509 504.961 513.03 511.26C514.479 513.239 515.776 515.325 516.91 517.5C517.558 519.099 518.063 520.752 518.42 522.44C519.853 528.4 521.277 534.357 522.69 540.31C523.85 545.14 525.02 550.05 524.69 555C524.45 558.42 523.58 562.32 525.69 565.05C526.199 565.57 526.627 566.163 526.96 566.81C527.164 567.57 527.164 568.37 526.96 569.13C525.924 574.888 525.216 580.701 524.84 586.54C524.36 587.18 523.84 587.83 523.45 588.47C519.94 593.59 518.25 599.75 516.88 605.82C514.36 617.752 512.884 629.881 512.47 642.07C510.714 643.664 509.201 645.507 507.98 647.54C506.14 650.96 505.9 654.97 505.71 658.85C505.629 659.477 505.697 660.115 505.91 660.71C506.378 661.378 507.047 661.879 507.82 662.14L508.88 662.64C508.65 663.49 508.44 664.35 508.26 665.25C506.91 663.73 504.51 661.32 504.1 663.08C502.749 668.964 502.015 674.973 501.91 681.01C501.862 681.241 501.869 681.481 501.93 681.709C501.992 681.937 502.106 682.148 502.263 682.324C502.421 682.5 502.618 682.636 502.838 682.723C503.058 682.809 503.295 682.842 503.53 682.82C509.399 683.858 515.35 684.367 521.31 684.34C526.14 684.34 530.96 683.95 535.77 683.58L540.7 683.2C545.771 682.928 550.816 682.304 555.8 681.33C558.026 680.992 560.121 680.067 561.87 678.65C563.51 677.12 564.31 674.51 563.19 672.57C561.81 670.23 558.6 670.06 555.92 669.68C553.262 669.308 550.686 668.49 548.3 667.26C547.76 666.99 547.24 666.68 546.72 666.41C546.863 666.395 547.002 666.354 547.13 666.29C549.44 665.51 551.27 663.73 553.45 662.66C556.01 661.42 558.84 661.14 561.63 660.79C564.42 660.44 567.29 659.94 569.63 658.35C571.97 656.76 573.34 654.16 572.83 651.61C572.794 651.431 572.748 651.254 572.69 651.08C571.84 648.32 568.84 646.81 566.06 646.08C563.28 645.35 560.25 644.99 557.99 643.19L557.66 642.93L557.07 642.45C557.567 641.612 557.797 640.642 557.73 639.67C557.61 638.14 556.73 636.79 556.12 635.4C554.93 632.62 554.84 629.52 554.51 626.53C553.71 618.99 551.39 611.71 549.65 604.32C549.45 603.47 549.26 602.61 549.08 601.76C550.781 598.23 552.863 594.897 555.29 591.82C558.075 588.353 560.118 584.35 561.29 580.06C561.65 578.74 561.91 577.41 562.19 576.06C565.277 560.633 568.193 545.183 570.94 529.71C571.395 527.504 571.656 525.262 571.72 523.01C572.438 520.968 572.826 518.824 572.87 516.66C573.67 513.53 574.48 510.24 573.87 508.19C573.41 506.74 573.18 501.78 572.92 497.02C572.994 494.468 572.84 491.915 572.46 489.39C572.38 488.96 572.3 488.54 572.2 488.1C572.147 487.847 572.097 487.633 572.05 487.46C571.69 486.03 571.188 484.64 570.55 483.31C570.223 482.513 569.846 481.739 569.42 480.99C569.167 480.55 568.883 480.129 568.57 479.73C570.35 479.804 572.126 479.968 573.89 480.22C574.099 480.284 574.32 480.294 574.534 480.249C574.747 480.203 574.946 480.104 575.11 479.96C575.22 479.758 575.272 479.53 575.26 479.3C575.343 477.286 574.866 475.288 573.88 473.53C573.2 472.32 572.25 471.14 572.27 469.75C572.316 469.101 572.475 468.464 572.74 467.87L575.11 461.52C577.11 456.15 576.16 449.92 577.2 444.28C578.012 439.876 578.529 435.423 578.75 430.95C578.95 427.13 578.83 422.95 576.53 419.95C575.866 419.21 575.292 418.395 574.82 417.52C574.487 416.595 574.347 415.611 574.41 414.63C574.37 408.63 574.49 402.653 574.77 396.7C584.849 396.419 594.886 395.275 604.77 393.28C605.936 393.082 607.081 392.774 608.19 392.36C609.411 391.776 610.559 391.051 611.61 390.2C614.97 387.77 618.38 385.31 620.93 382.04C623.964 378.084 625.871 373.382 626.45 368.43C628.88 366.18 630.17 362.99 631.38 359.89C631.98 358.581 632.362 357.182 632.51 355.75C632.57 354.28 631.6 352.75 631.88 351.3C632.347 348.815 633.603 346.546 635.46 344.83C635.855 344.547 636.152 344.149 636.31 343.69C636.363 343.308 636.293 342.919 636.11 342.58L636.03 342.45C636.27 342.3 636.49 342.15 636.72 342C637.51 341.44 638.27 340.81 639.02 340.21C640.162 339.362 641.172 338.352 642.02 337.21C642.399 336.63 642.651 335.977 642.76 335.292C642.868 334.608 642.831 333.909 642.65 333.24V333.24ZM533.03 660.59C532.825 660.58 532.62 660.597 532.42 660.64C531.672 660.745 530.941 660.954 530.25 661.26L530.09 661.35C531.03 659.35 531.92 657.25 532.72 655.15C532.81 654.9 532.9 654.66 532.99 654.4L532.89 655.8C532.714 657.395 532.761 659.008 533.03 660.59Z" fill="url(#paint0_linear)"/>
<path id="Vector 89" d="M545.23 349.35C545.31 352.66 546.44 355.87 546.61 359.19C536.84 359.68 527.2 354.92 517.56 356.39C520.27 354.64 521.71 351.49 522.56 348.39C523.644 344.382 523.966 340.207 523.51 336.08C523.484 335.851 523.444 335.624 523.39 335.4C523.03 333.78 522.1 331.48 522.39 330.21C522.72 328.5 524.31 328.85 525.75 328.95C530.11 329.299 534.449 329.87 538.75 330.66C539.88 330.86 550.83 333.59 551 333.31C549.077 336.386 547.488 339.657 546.26 343.07C545.567 345.091 545.219 347.214 545.23 349.35V349.35Z" fill="#EE8E9E"/>
<path id="Vector 90" d="M641.84 339.1C640.996 340.245 639.985 341.256 638.84 342.1C638.1 342.71 637.34 343.33 636.54 343.89C635.123 344.991 633.432 345.683 631.65 345.89C629.33 346.04 624.38 344.68 622.93 342.69C622.314 341.689 622.017 340.524 622.08 339.35C622.102 337.764 622.372 336.192 622.88 334.69C623.786 332.237 625.057 329.934 626.65 327.86C628.217 325.433 630.283 323.367 632.71 321.8C633.539 321.352 634.394 320.955 635.27 320.61L639.82 318.75C640.085 318.619 640.375 318.544 640.67 318.53C641.89 318.53 642.11 320.41 641.42 321.42C640.04 323.42 636.92 323.98 636.04 326.31C636.778 326.333 637.49 326.59 638.074 327.042C638.658 327.495 639.084 328.121 639.29 328.83C639.327 329.2 639.477 329.549 639.72 329.83C640.206 329.995 640.704 330.122 641.21 330.21C642.02 330.64 641.66 331.84 641.75 332.77C641.952 333.561 642.237 334.329 642.6 335.06C642.777 335.748 642.801 336.466 642.669 337.164C642.538 337.863 642.255 338.523 641.84 339.1V339.1Z" fill="#EE8E9E"/>
<path id="Vector 91" d="M507.12 671.63C507.87 670.88 509.12 671.01 510.12 671.17C515.744 672.058 521.427 672.52 527.12 672.55C527.84 669.07 525.76 665.72 525.12 662.18C525.025 661.274 524.796 660.388 524.44 659.55C523.64 658.01 521.82 657.3 520.12 656.99C517.05 656.34 512.25 655.21 510.53 658.31C508.53 661.96 507.87 667.48 507.12 671.63Z" fill="#65617D"/>
<path id="Vector 92" d="M569.58 658.45C567.26 660.03 564.39 660.52 561.58 660.88C558.77 661.24 555.93 661.51 553.4 662.75C551.23 663.83 549.4 665.59 547.08 666.35C544.94 666.938 542.687 666.972 540.53 666.45C537.97 665.96 535.18 665.02 533.79 662.79C532.54 660.79 532.67 658.29 532.84 655.96C533.04 653.32 533.24 650.66 533.43 648.02C533.424 647.35 533.596 646.691 533.93 646.11C535.8 643.38 540.36 647.25 542.79 647.25C546.65 647.25 550.79 645.15 553.57 642.6C553.821 642.345 554.111 642.132 554.43 641.97C555.53 641.48 556.63 642.39 557.61 643.18L557.94 643.44C560.2 645.23 563.22 645.59 566.01 646.32C568.8 647.05 571.78 648.5 572.64 651.25C572.698 651.42 572.745 651.594 572.78 651.77C573.29 654.28 571.72 656.96 569.58 658.45Z" fill="#3F3D56"/>
<path id="Vector 93" d="M569.58 658.45C567.26 660.03 564.39 660.52 561.58 660.88C558.77 661.24 555.93 661.51 553.4 662.75C551.23 663.83 549.4 665.59 547.08 666.35C544.94 666.938 542.687 666.972 540.53 666.45C537.97 665.96 535.18 665.02 533.79 662.79C532.54 660.79 532.67 658.29 532.84 655.96C533.04 653.32 533.24 650.66 533.43 648.02C533.424 647.35 533.596 646.691 533.93 646.11C535.8 643.38 540.36 647.25 542.79 647.25C546.65 647.25 550.79 645.15 553.57 642.6C553.821 642.345 554.111 642.132 554.43 641.97C555.53 641.48 556.63 642.39 557.61 643.18L557.94 643.44C560.2 645.23 563.22 645.59 566.01 646.32C568.8 647.05 571.78 648.5 572.64 651.25C572.698 651.42 572.745 651.594 572.78 651.77C573.29 654.28 571.72 656.96 569.58 658.45Z" fill="#434175"/>
<path id="Vector 94" d="M569.58 659.34C567.26 660.92 564.39 661.42 561.58 661.77C558.77 662.12 555.93 662.39 553.4 663.63C551.23 664.71 549.4 666.47 547.08 667.23C544.94 667.818 542.687 667.852 540.53 667.33C537.775 666.752 535.356 665.119 533.79 662.78C532.54 660.78 532.67 658.28 532.84 655.95C533.04 653.31 533.24 650.65 533.43 648.01C533.424 647.34 533.596 646.681 533.93 646.1C535.8 643.37 540.36 647.24 542.79 647.24C546.65 647.24 550.79 645.14 553.57 642.59C553.821 642.335 554.111 642.122 554.43 641.96C555.53 641.47 556.63 642.38 557.61 643.17C556.969 645.153 556.057 647.037 554.9 648.77C553.963 650.238 552.708 651.477 551.228 652.396C549.748 653.315 548.082 653.89 546.35 654.08C544.64 654.21 542.86 653.87 541.22 654.31C539.58 654.75 538 656.46 538.59 658.08C539.18 659.7 541.2 660 542.86 660.08C545.204 660.346 547.577 660.176 549.86 659.58C551.23 659.13 552.48 658.38 553.81 657.82C559.47 655.48 566.63 656.82 571.29 652.82C571.736 652.418 572.215 652.054 572.72 651.73C574.03 654.31 571.72 657.9 569.58 659.34Z" fill="#E8EAF2"/>
<path id="Vector 95" opacity="0.05" d="M569.58 659.34C567.26 660.92 564.39 661.42 561.58 661.77C558.77 662.12 555.93 662.39 553.4 663.63C551.23 664.71 549.4 666.47 547.08 667.23C544.94 667.818 542.687 667.852 540.53 667.33C537.775 666.752 535.356 665.119 533.79 662.78C532.54 660.78 532.67 658.28 532.84 655.95C533.04 653.31 533.24 650.65 533.43 648.01C533.424 647.34 533.596 646.681 533.93 646.1C535.8 643.37 540.36 647.24 542.79 647.24C546.65 647.24 550.79 645.14 553.57 642.59C553.821 642.335 554.111 642.122 554.43 641.96C555.53 641.47 556.63 642.38 557.61 643.17C556.969 645.153 556.057 647.037 554.9 648.77C553.963 650.238 552.708 651.477 551.228 652.396C549.748 653.315 548.082 653.89 546.35 654.08C544.64 654.21 542.86 653.87 541.22 654.31C539.58 654.75 538 656.46 538.59 658.08C539.18 659.7 541.2 660 542.86 660.08C545.204 660.346 547.577 660.176 549.86 659.58C551.23 659.13 552.48 658.38 553.81 657.82C559.47 655.48 566.63 656.82 571.29 652.82C571.736 652.418 572.215 652.054 572.72 651.73C574.03 654.31 571.72 657.9 569.58 659.34Z" fill="black"/>
<path id="Vector 96" d="M508.18 486.29C506.375 495.14 508.082 504.345 512.94 511.96C514.389 513.929 515.686 516.005 516.82 518.17C517.469 519.765 517.975 521.415 518.33 523.1L522.6 540.87C523.76 545.67 524.93 550.55 524.6 555.48C524.36 558.9 523.49 562.77 525.6 565.48C526.109 565.996 526.537 566.586 526.87 567.23C527.077 567.986 527.077 568.784 526.87 569.54C524.7 582.45 523.09 595.93 527.01 608.41C530.57 619.73 530.78 632.26 533.8 643.73C534.044 645.186 534.692 646.544 535.67 647.65C536.482 648.326 537.452 648.783 538.49 648.98C542.95 650.05 547.66 648.8 551.81 646.88C554.73 645.52 557.88 643.15 557.63 639.95C557.51 638.42 556.63 637.08 556.02 635.68C554.83 632.92 554.74 629.85 554.41 626.86C553.61 619.36 551.29 612.12 549.55 604.79C547.81 597.46 546.61 589.79 548.09 582.39C551.11 567.059 555.951 552.143 562.51 537.96C562.794 537.202 563.245 536.519 563.83 535.96C564.486 535.586 565.111 535.162 565.7 534.69C566.15 533.989 566.441 533.196 566.55 532.37C567.2 530.03 569.11 528.3 570.42 526.25C573.69 521.06 572.66 514.4 572.54 508.25C572.42 502.25 573.27 496.25 572.3 490.38C571.33 484.51 567.99 478.48 562.3 476.66C559.49 475.75 556.45 475.96 553.51 476.25C537.95 477.86 522.81 480.69 508.18 486.29Z" fill="#696791"/>
<path id="Vector 97" opacity="0.1" d="M508.18 487.15C506.392 495.985 508.102 505.17 512.95 512.77C514.399 514.739 515.696 516.815 516.83 518.98C517.479 520.575 517.985 522.225 518.34 523.91L522.61 541.68C523.77 546.48 524.94 551.36 524.61 556.29C524.37 559.71 523.5 563.57 525.61 566.29C526.119 566.806 526.547 567.396 526.88 568.04C527.087 568.796 527.087 569.594 526.88 570.35C524.71 583.25 523.1 596.74 527.02 609.22C530.58 620.54 530.79 633.07 533.81 644.54C534.054 645.996 534.702 647.354 535.68 648.46C536.492 649.136 537.462 649.593 538.5 649.79C542.96 650.86 547.67 649.61 551.82 647.69C554.74 646.33 557.89 643.96 557.64 640.76C557.52 639.23 556.64 637.89 556.03 636.49C554.84 633.73 554.75 630.66 554.42 627.67C553.62 620.17 551.3 612.93 549.56 605.6C547.82 598.27 546.62 590.6 548.1 583.2C551.128 567.903 555.968 553.021 562.52 538.87C562.804 538.112 563.255 537.429 563.84 536.87C564.496 536.496 565.121 536.072 565.71 535.6C566.16 534.899 566.451 534.106 566.56 533.28C567.21 530.94 569.12 529.21 570.43 527.16C573.7 521.97 572.67 515.31 572.55 509.16C572.43 503.16 573.28 497.16 572.31 491.29C571.34 485.42 568 479.39 562.31 477.57C559.5 476.66 556.46 476.87 553.52 477.16C537.95 478.72 522.81 481.54 508.18 487.15Z" fill="black"/>
<path id="Vector 98" d="M571.65 523.69C571.603 526.006 571.342 528.312 570.87 530.58C568.117 545.953 565.19 561.327 562.09 576.7C561.82 578.03 561.55 579.37 561.19 580.7C560.014 584.971 557.972 588.953 555.19 592.4C542.24 608.53 541.12 631.96 534.1 651.4C533.62 652.72 533.15 654.04 532.65 655.34C531.38 658.635 529.935 661.86 528.32 665C528.14 665.453 527.843 665.85 527.46 666.15C527.025 666.372 526.537 666.469 526.05 666.43C519.729 666.461 513.486 665.042 507.8 662.28C506.991 661.977 506.307 661.41 505.86 660.67C505.649 660.078 505.58 659.444 505.66 658.82C505.86 654.97 506.1 650.97 507.93 647.58C509.154 645.552 510.671 643.716 512.43 642.13C512.84 630.004 514.316 617.937 516.84 606.07C518.21 600.07 519.9 593.92 523.41 588.81C525.97 585.04 529.72 581.31 529.25 576.81C529.05 574.81 528.25 572.33 529.84 571.16C530.55 570.64 531.6 570.57 532.09 569.84C532.283 569.493 532.392 569.106 532.41 568.71C532.744 565.586 532.548 562.428 531.83 559.37C531.241 557.371 530.777 555.337 530.44 553.28C530.282 552.247 530.336 551.193 530.599 550.182C530.862 549.171 531.328 548.224 531.97 547.4C532.06 543.24 531.97 538.93 532.03 534.78C532.19 532.43 531.991 530.07 531.44 527.78C531.13 526.7 530.64 525.65 530.44 524.54C529.59 520.54 531.74 515.77 529.16 512.54C528.08 511.22 526.43 510.54 525.02 509.62C522.255 507.617 520.25 504.738 519.33 501.45C518.414 498.188 517.871 494.834 517.71 491.45C517.629 490.732 517.629 490.008 517.71 489.29C517.752 488.917 517.849 488.553 518 488.21C518.8 486.41 521 485.71 522.88 485.21C535.087 482.287 547.598 480.827 560.15 480.86C564.8 477.7 567.41 478.86 569.38 482.18C570.463 484.225 571.341 486.372 572 488.59C572.85 491.31 573 506.52 573.83 509.23C574.9 512.71 571.61 519.96 571.65 523.69Z" fill="#696791"/>
<path id="Vector 99" d="M487.7 385.39C487.36 387.78 488.5 390.13 488.63 392.55C488.74 394.66 488.07 396.72 487.69 398.79C486.19 406.89 489.07 415.09 491.96 422.79C492.511 424.042 492.849 425.377 492.96 426.74C493.04 429.25 491.59 431.56 491.19 434.04C490.34 439.26 494.19 444.16 494.29 449.41C494.29 451.84 493.55 454.32 494.17 456.67C494.721 458.197 495.418 459.667 496.25 461.06C497.49 463.62 497.82 466.61 499 469.23C501.13 473.97 505.7 477.07 510.06 479.91C512.53 479.06 515.19 478.11 516.57 475.91C517.17 474.812 517.557 473.611 517.71 472.37C518.492 466.937 518.78 461.445 518.57 455.96C518.663 451.239 518.426 446.518 517.86 441.83C517.01 435.83 515.05 430.13 513.66 424.26C511.95 416.87 511.02 409.26 508.29 402.14C505.89 395.91 502.16 390.32 498.23 384.96C496.73 382.96 495.55 379.96 492.64 380.47C491.412 380.686 490.28 381.273 489.396 382.153C488.513 383.033 487.921 384.163 487.7 385.39V385.39Z" fill="#434175"/>
<path id="Vector 100" opacity="0.05" d="M487.7 383.68C487.36 386.07 488.5 388.42 488.63 390.84C488.74 392.95 488.07 395.01 487.69 397.08C486.19 405.18 489.07 413.38 491.96 421.08C492.511 422.332 492.849 423.667 492.96 425.03C493.04 427.54 491.59 429.85 491.19 432.33C490.34 437.55 494.19 442.45 494.29 447.7C494.29 450.13 493.55 452.61 494.17 454.96C494.721 456.487 495.418 457.957 496.25 459.35C497.49 461.91 497.82 464.9 499 467.52C501.13 472.26 505.7 475.36 510.06 478.2C512.53 477.35 515.19 476.4 516.57 474.2C517.169 473.105 517.555 471.908 517.71 470.67C518.492 465.237 518.78 459.745 518.57 454.26C518.663 449.539 518.426 444.818 517.86 440.13C517.01 434.13 515.05 428.43 513.66 422.56C511.95 415.17 511.02 407.56 508.29 400.44C505.89 394.21 502.16 388.62 498.23 383.26C496.73 381.26 495.55 378.26 492.64 378.77C491.413 378.985 490.282 379.571 489.399 380.449C488.515 381.327 487.923 382.455 487.7 383.68Z" fill="black"/>
<path id="Vector 101" opacity="0.1" d="M550.92 333.28C548.997 336.356 547.408 339.627 546.18 343.04C544.42 343.474 542.613 343.692 540.8 343.69C533.8 343.69 528.8 339.69 524.62 334.62C524.26 333 522.06 331.49 522.28 330.21C522.61 328.5 524.2 328.85 525.64 328.95C530 329.299 534.339 329.87 538.64 330.66C539.8 330.79 550.75 333.56 550.92 333.28Z" fill="black"/>
<path id="Vector 102" d="M540.8 343.08C545.262 343.078 549.623 341.753 553.332 339.272C557.041 336.792 559.931 333.267 561.637 329.144C563.342 325.021 563.787 320.485 562.915 316.109C562.042 311.733 559.892 307.714 556.735 304.561C553.579 301.407 549.558 299.26 545.181 298.392C540.805 297.523 536.269 297.972 532.147 299.681C528.026 301.39 524.504 304.284 522.026 307.995C519.549 311.706 518.228 316.068 518.23 320.53C518.231 323.493 518.816 326.426 519.951 329.163C521.086 331.899 522.749 334.385 524.845 336.479C526.941 338.573 529.428 340.234 532.166 341.367C534.904 342.499 537.837 343.081 540.8 343.08V343.08Z" fill="#EE8E9E"/>
<path id="Vector 103" opacity="0.1" d="M569.31 482.13C565.4 481.9 561.46 482.06 557.55 482.21C555.096 482.237 552.649 482.488 550.24 482.96C547.24 483.63 544.51 484.96 541.58 485.83C536.9 487.19 531.96 487.25 527.11 487.73C523.923 488.038 520.758 488.536 517.63 489.22C517.672 488.848 517.77 488.483 517.92 488.14C518.72 486.34 520.92 485.64 522.8 485.14C535.006 482.214 547.518 480.75 560.07 480.78C564.73 477.69 567.34 478.79 569.31 482.13Z" fill="black"/>
<path id="Vector 104" d="M553.93 357.45C552.93 358.59 551.62 359.84 550.17 359.45C549.641 359.267 549.144 359.001 548.7 358.66C546.14 356.95 542.91 356.59 539.85 356.1C533.68 355.172 527.584 353.802 521.61 352C519.874 351.373 518.054 351.005 516.21 350.91C512.39 350.91 509 353.47 506.6 356.44C504.2 359.41 502.5 362.9 500.15 365.92C498.44 368.07 496.48 369.92 494.91 372.2C490.96 377.83 490.11 385.2 491.13 391.97C492.15 398.74 494.86 405.18 497.56 411.51C498.992 415.205 500.748 418.766 502.81 422.15C501.9 427.27 502.38 433.25 504.81 437.86C505.726 439.297 506.402 440.875 506.81 442.53C506.93 443.671 506.882 444.823 506.67 445.95L505.52 454.12C505.17 456.61 504.82 459.12 504.37 461.57C503.52 466.09 502.42 470.96 504.52 475.08C507.02 479.98 504.39 486.26 505.05 491.73C512.113 489.002 519.514 487.246 527.05 486.51C531.9 486.03 536.84 485.97 541.52 484.61C544.44 483.76 547.21 482.41 550.18 481.73C552.589 481.261 555.036 481.013 557.49 480.99C562.903 480.606 568.34 480.726 573.73 481.35C573.876 481.44 574.045 481.487 574.217 481.485C574.388 481.483 574.556 481.433 574.701 481.34C574.845 481.247 574.96 481.115 575.032 480.959C575.105 480.803 575.132 480.63 575.11 480.46C575.193 478.456 574.715 476.468 573.73 474.72C573.05 473.52 572.1 472.34 572.12 470.95C572.166 470.304 572.325 469.671 572.59 469.08L574.96 462.76C576.96 457.42 576.01 451.22 577.05 445.62C577.861 441.239 578.379 436.81 578.6 432.36C578.8 428.56 578.68 424.44 576.38 421.36C575.716 420.624 575.142 419.812 574.67 418.94C574.337 418.018 574.197 417.038 574.26 416.06C574.207 408.453 574.413 400.847 574.88 393.24C572.88 389.64 570.79 385.97 568.79 382.38C566.46 378.2 564.1 373.92 563.16 369.23C562.54 366.13 562.55 362.93 562.11 359.79C562.063 358.993 561.789 358.226 561.32 357.58C560.885 357.199 560.373 356.917 559.819 356.753C559.265 356.589 558.682 356.547 558.11 356.63C556.683 356.69 555.274 356.966 553.93 357.45V357.45Z" fill="#434175"/>
<path id="Vector 105" opacity="0.1" d="M636.56 343.9C635.143 345.001 633.452 345.693 631.67 345.9C629.35 346.05 624.4 344.69 622.95 342.7C622.334 341.699 622.037 340.534 622.1 339.36C622.424 339.256 622.76 339.192 623.1 339.17C625.625 338.897 628.176 339.001 630.67 339.48C631.917 339.728 633.092 340.252 634.108 341.016C635.124 341.779 635.955 342.762 636.54 343.89L636.56 343.9Z" fill="black"/>
<path id="Vector 106" d="M561.47 392.68C562.729 394.484 564.346 396.009 566.22 397.16C568.47 398.32 571.11 398.35 573.63 398.3C584.044 398.07 594.417 396.926 604.63 394.88C605.789 394.677 606.927 394.369 608.03 393.96C609.249 393.377 610.396 392.655 611.45 391.81C614.81 389.4 618.22 386.94 620.77 383.69C623.804 379.761 625.712 375.08 626.29 370.15C628.72 367.92 630.01 364.73 631.22 361.67C631.821 360.368 632.203 358.976 632.35 357.55C632.41 356.09 631.45 354.55 631.72 353.13C632.185 350.652 633.441 348.392 635.3 346.69C635.695 346.407 635.992 346.009 636.15 345.55C636.203 345.171 636.132 344.786 635.95 344.45C635.361 343.323 634.527 342.342 633.509 341.579C632.492 340.816 631.317 340.29 630.07 340.04C627.573 339.557 625.018 339.452 622.49 339.73C621.648 339.891 620.819 340.115 620.01 340.4L618.24 345.04C618.008 345.819 617.616 346.541 617.09 347.16C616.699 347.524 616.281 347.858 615.84 348.16C614.943 348.919 614.247 349.887 613.813 350.979C613.379 352.071 613.22 353.252 613.35 354.42C611.753 355.035 610.45 356.236 609.707 357.778C608.964 359.32 608.836 361.087 609.35 362.72C608.026 363.01 606.797 363.632 605.779 364.528C604.76 365.424 603.987 366.563 603.53 367.84C603.406 368.426 603.146 368.974 602.77 369.44C602.198 369.881 601.492 370.11 600.77 370.09C598.77 370.21 597.03 371.8 595.22 370.94C593.164 369.983 590.869 369.663 588.63 370.02C588.169 370.132 587.694 370.175 587.22 370.15C586.818 370.08 586.429 369.944 586.07 369.75C585.256 369.285 584.376 368.948 583.46 368.75C582.994 368.656 582.511 368.7 582.07 368.878C581.629 369.056 581.25 369.359 580.98 369.75C580.35 369.06 579.98 368.17 579.4 367.43C579.143 367.035 578.782 366.719 578.357 366.516C577.932 366.313 577.459 366.231 576.99 366.28C577.59 365.75 576.99 364.68 576.2 364.49C575.399 364.431 574.594 364.461 573.8 364.58C571.71 364.58 570.11 362.67 568.08 362.18C566.22 361.73 563.73 362.27 562.77 360.61C562.44 360.02 562.37 359.22 561.77 358.9C561.376 358.706 560.927 358.657 560.5 358.76C559.179 358.933 557.895 359.321 556.7 359.91C554.7 367.6 555.77 375.49 557.26 383.23C557.835 386.687 559.284 389.941 561.47 392.68V392.68Z" fill="#434175"/>
<path id="Vector 107" opacity="0.1" d="M561.41 420.05L551.69 439.64C552.74 437.82 554.96 437.08 556.69 435.96C558.902 434.355 560.565 432.106 561.45 429.52C562.33 426.946 562.947 424.289 563.29 421.59C563.49 420.35 563.9 418.59 563.29 417.48C562.23 417.71 561.87 419.14 561.41 420.05Z" fill="black"/>
<path id="Vector 108" opacity="0.1" d="M533.45 436.7C531.25 438.87 528.57 440.47 526.16 442.39C520.52 446.88 516.5 453.03 512.58 459.07C511.47 460.649 510.537 462.346 509.8 464.13C510.26 464.52 510.94 464.13 511.41 463.71L519.03 456.96C519.971 456.199 520.829 455.341 521.59 454.4C522.91 452.62 523.5 450.4 524.71 448.52C526.021 446.731 527.584 445.141 529.35 443.8C531.1 442.3 539.15 435.49 537.2 432.8C535.76 433.57 534.6 435.54 533.45 436.7Z" fill="black"/>
<path id="Vector 109" d="M550.12 351.79C547.617 350.406 544.876 349.504 542.04 349.13C540.358 348.749 538.629 348.624 536.91 348.76C535.32 348.96 533.79 349.57 532.19 349.61C529.94 349.74 527.8 348.82 525.63 348.24C523.46 347.66 520.96 347.39 519.14 348.73C518.749 349.112 518.256 349.373 517.72 349.48C517.168 349.405 516.655 349.152 516.26 348.76C514.725 347.664 512.863 347.121 510.979 347.221C509.095 347.321 507.301 348.058 505.89 349.31C501.75 353.19 502.22 360.76 497.34 363.71C496.01 364.56 494.34 364.95 493.51 366.27C493.319 366.701 493.098 367.119 492.85 367.52C492.529 367.886 492.134 368.179 491.69 368.38C490.282 369.008 488.941 369.779 487.69 370.68C487.066 371.132 486.54 371.707 486.145 372.369C485.749 373.031 485.493 373.766 485.39 374.53C485.371 375.649 485.611 376.758 486.09 377.77C488.466 383.589 492.585 388.529 497.881 391.913C503.178 395.297 509.392 396.959 515.67 396.67C516.79 396.722 517.891 396.367 518.77 395.67C519.236 395.146 519.605 394.543 519.86 393.89C522.14 389.12 526.42 385.59 529.14 381.08C530.75 378.37 531.8 375.34 533.49 372.68C536.05 368.68 539.93 365.68 543.74 362.76C545.89 361.13 548.28 359.41 550.98 359.52C553.38 359.62 555.13 359.75 554.24 356.81C553.507 354.7 552.047 352.92 550.12 351.79V351.79Z" fill="#434175"/>
<path id="Vector 110" opacity="0.05" d="M550.12 351.79C547.617 350.406 544.876 349.504 542.04 349.13C540.358 348.749 538.629 348.624 536.91 348.76C535.32 348.96 533.79 349.57 532.19 349.61C529.94 349.74 527.8 348.82 525.63 348.24C523.46 347.66 520.96 347.39 519.14 348.73C518.749 349.112 518.256 349.373 517.72 349.48C517.168 349.405 516.655 349.152 516.26 348.76C514.725 347.664 512.863 347.121 510.979 347.221C509.095 347.321 507.301 348.058 505.89 349.31C501.75 353.19 502.22 360.76 497.34 363.71C496.01 364.56 494.34 364.95 493.51 366.27C493.319 366.701 493.098 367.119 492.85 367.52C492.529 367.886 492.134 368.179 491.69 368.38C490.282 369.008 488.941 369.779 487.69 370.68C487.066 371.132 486.54 371.707 486.145 372.369C485.749 373.031 485.493 373.766 485.39 374.53C485.371 375.649 485.611 376.758 486.09 377.77C488.466 383.589 492.585 388.529 497.881 391.913C503.178 395.297 509.392 396.959 515.67 396.67C516.79 396.722 517.891 396.367 518.77 395.67C519.236 395.146 519.605 394.543 519.86 393.89C522.14 389.12 526.42 385.59 529.14 381.08C530.75 378.37 531.8 375.34 533.49 372.68C536.05 368.68 539.93 365.68 543.74 362.76C545.89 361.13 548.28 359.41 550.98 359.52C553.38 359.62 555.13 359.75 554.24 356.81C553.507 354.7 552.047 352.92 550.12 351.79V351.79Z" fill="black"/>
<path id="Vector 111" d="M561.87 678.7C560.122 680.115 558.025 681.033 555.8 681.36C550.816 682.334 545.771 682.958 540.7 683.23L535.77 683.61C530.96 683.98 526.14 684.34 521.31 684.36C515.346 684.377 509.392 683.862 503.52 682.82C503.251 682.807 502.988 682.741 502.746 682.624C502.503 682.507 502.287 682.342 502.11 682.14C501.928 681.797 501.854 681.406 501.9 681.02C502.004 675.01 502.738 669.027 504.09 663.17C504.65 660.77 508.96 666.17 509.16 666.39C509.605 667.019 510.192 667.535 510.873 667.896C511.554 668.257 512.309 668.454 513.08 668.47C518.08 668.74 523.61 665.73 527.55 663.05C528.395 662.419 529.292 661.861 530.23 661.38C530.92 661.073 531.651 660.867 532.4 660.77C534.953 660.531 537.52 661.05 539.78 662.26C542.78 663.73 545.34 665.84 548.33 667.39C550.717 668.614 553.293 669.428 555.95 669.8C558.63 670.17 561.85 670.35 563.22 672.67C564.31 674.59 563.49 677.18 561.87 678.7Z" fill="#434175"/>
<path id="Vector 112" d="M561.87 679.59C560.122 681.008 558.026 681.93 555.8 682.26C550.816 683.233 545.771 683.858 540.7 684.13L535.77 684.51C530.96 684.88 526.14 685.24 521.31 685.26C515.346 685.282 509.392 684.766 503.52 683.72C503.25 683.712 502.984 683.647 502.74 683.53C502.499 683.411 502.285 683.244 502.11 683.04C501.648 682.43 501.278 681.756 501.01 681.04C501.11 675.04 502.72 669.04 504.09 663.19C504.65 660.79 508.96 666.19 509.16 666.41C509.605 667.039 510.192 667.555 510.873 667.916C511.554 668.277 512.309 668.474 513.08 668.49C518.08 668.76 523.61 665.75 527.55 663.07C528.395 662.439 529.292 661.881 530.23 661.4C530.92 661.093 531.651 660.887 532.4 660.79C531.76 664.36 526.64 668.67 523.99 669.99C518.64 672.65 512.28 671.31 506.32 671.63C505.881 671.62 505.447 671.723 505.06 671.93C504.756 672.232 504.529 672.604 504.4 673.014C504.271 673.423 504.244 673.858 504.32 674.28C504.37 675.7 504.55 677.37 505.79 678.09C506.412 678.392 507.099 678.536 507.79 678.51C522.491 679.15 537.22 678.631 551.84 676.96C554.301 676.797 556.722 676.257 559.02 675.36C560.521 674.659 561.921 673.757 563.18 672.68C565.03 674.12 563.49 678.07 561.87 679.59Z" fill="#E8EAF2"/>
<path id="Vector 113" d="M549.58 320.28C549.49 322.61 551.08 327.11 546.72 325.87C544.16 325.12 543.39 322.04 540.09 322.72C536.79 323.4 536.02 327.48 534.91 330.13C534.002 332.24 532.594 334.098 530.809 335.544C529.023 336.99 526.913 337.98 524.66 338.43C523.729 338.648 522.761 338.648 521.83 338.43C519.7 337.82 518.49 335.63 517.62 333.6C516.869 331.879 516.247 330.104 515.76 328.29C515.418 327.013 515.194 325.708 515.09 324.39C515.018 323.495 515.018 322.595 515.09 321.7C515.48 316.4 518.51 311.56 522.37 307.91C526.23 304.26 530.92 301.61 535.57 299C537.087 298.058 538.725 297.328 540.44 296.83C542.129 296.494 543.86 296.427 545.57 296.63C547.831 296.723 550.054 297.246 552.12 298.17C552.965 298.585 553.741 299.128 554.42 299.78C555.389 300.674 556.083 301.825 556.42 303.1C557.27 306.52 555.07 309.62 553.29 312.32C551.65 314.73 549.69 317.28 549.58 320.28Z" fill="#434175"/>
<path id="Vector 114" opacity="0.1" d="M623.03 370.34C622.1 367.99 618.18 361.49 619.31 359.24C620.496 360.905 621.501 362.692 622.31 364.57C623.03 366.4 622.41 368.84 623.03 370.34Z" fill="black"/>
<path id="Vector 115" opacity="0.1" d="M553.32 312.32C555.1 309.61 557.32 306.52 556.45 303.1C556.035 301.59 555.136 300.258 553.89 299.31C554.18 299.81 554.399 300.349 554.54 300.91C555.39 304.33 553.19 307.42 551.41 310.13C549.83 312.54 547.87 315.13 547.75 318.13C547.66 320.46 549.26 324.96 544.9 323.72C542.34 322.97 541.57 319.88 538.26 320.57C534.95 321.26 534.2 325.32 533.08 327.98C532.173 330.091 530.766 331.95 528.98 333.396C527.195 334.842 525.084 335.832 522.83 336.28C521.899 336.498 520.931 336.498 520 336.28C519.522 336.139 519.072 335.915 518.67 335.62C519.337 336.949 520.49 337.969 521.89 338.47C522.825 338.684 523.796 338.684 524.73 338.47C526.983 338.017 529.093 337.024 530.878 335.577C532.663 334.13 534.071 332.271 534.98 330.16C536.1 327.49 536.83 323.45 540.16 322.76C543.49 322.07 544.16 325.15 546.8 325.9C551.17 327.16 549.57 322.64 549.65 320.31C549.78 317.28 551.75 314.73 553.32 312.32Z" fill="black"/>
<path id="Vector 116" opacity="0.1" d="M554.29 307.68C553.887 308.344 553.443 308.982 552.96 309.59C552.04 310.754 551.008 311.826 549.88 312.79C549.2 313.37 548.51 313.91 547.79 314.42C546.451 315.364 545.044 316.206 543.58 316.94C539.244 318.959 534.732 320.576 530.1 321.77L521.1 324.39C519.99 325.24 517.96 326.73 515.73 328.29C515.384 327.014 515.156 325.708 515.05 324.39C514.977 323.495 514.977 322.595 515.05 321.7C515.44 316.4 518.47 311.56 522.33 307.91C526.19 304.26 530.88 301.61 535.53 299C537.047 298.058 538.685 297.328 540.4 296.83C542.089 296.494 543.82 296.427 545.53 296.63C547.791 296.723 550.014 297.246 552.08 298.17C552.925 298.585 553.701 299.128 554.38 299.78C554.889 300.528 555.277 301.351 555.53 302.22C556.08 304.06 555.3 306.03 554.29 307.68Z" fill="black"/>
<path id="Vector 117" d="M554.29 307.08C553.887 307.744 553.443 308.382 552.96 308.99C552.04 310.151 551.008 311.22 549.88 312.18C549.2 312.76 548.51 313.3 547.79 313.81C546.449 314.75 545.042 315.592 543.58 316.33C539.244 318.346 534.731 319.959 530.1 321.15L521.1 323.76C517.96 326.14 507.43 333.93 505.66 332.96C503.57 331.82 515 323.73 515 323.73L515.52 324.13C513.81 323.08 512.96 320.65 512.6 318.54C511.788 314.78 511.758 310.893 512.51 307.12C512.9 305.241 513.686 303.466 514.815 301.914C515.944 300.362 517.392 299.069 519.06 298.12C520.57 297.33 522.41 296.81 523.5 295.62C523.662 295.438 523.806 295.24 523.93 295.03C523.997 294.933 524.054 294.829 524.1 294.72C524.215 294.389 524.377 294.076 524.58 293.79C525.2 293.07 526.34 293.29 527.29 293.41H528.1C531.52 293.49 534.77 291.6 538.2 291.6C541.95 291.6 545.15 293.77 548.46 295.25C549.13 295.55 549.76 295.82 550.36 296.1C552.75 297.21 554.55 298.4 555.49 301.55C556.08 303.47 555.3 305.44 554.29 307.08Z" fill="#6C63FF"/>
<path id="Vector 118" opacity="0.1" d="M528.09 293.46C528.283 293.78 528.353 294.16 528.287 294.528C528.221 294.896 528.023 295.227 527.73 295.46C527.313 295.756 526.821 295.93 526.31 295.96C525.942 296.011 525.571 296.042 525.2 296.05C524.7 296.087 524.199 296.002 523.74 295.8L523.48 295.64C523.642 295.458 523.786 295.26 523.91 295.05C523.991 295.085 524.077 295.103 524.165 295.103C524.253 295.103 524.34 295.085 524.42 295.05C525.04 295.02 525.655 294.916 526.25 294.74C526.496 294.674 526.726 294.562 526.93 294.41C527.238 294.145 527.463 293.798 527.58 293.41L528.09 293.46Z" fill="black"/>
<path id="Vector 119" opacity="0.1" d="M515.2 323.66C515.676 323.956 516.206 324.153 516.76 324.24C517.157 324.342 517.562 324.409 517.97 324.44C519.006 324.389 520.016 324.098 520.92 323.59" fill="black"/>
</g>
<defs>
<linearGradient id="paint0_linear" x1="564.13" y1="684.38" x2="564.13" y2="289.6" gradientUnits="userSpaceOnUse">
<stop stop-color="#808080" stop-opacity="0.25"/>
<stop offset="0.54" stop-color="#808080" stop-opacity="0.12"/>
<stop offset="1" stop-color="#808080" stop-opacity="0.1"/>
</linearGradient>
</defs>
</svg>
